<svg xmlns="http://www.w3.org/2000/svg" xmlns:xlink="http://www.w3.org/1999/xlink" width="500" zoomAndPan="magnify" viewBox="0 0 375 374.999991" height="500" preserveAspectRatio="xMidYMid meet" version="1.0"><defs><g/><clipPath id="a3b36576fa"><path d="M 0.945312 171 L 373.695312 171 L 373.695312 204 L 0.945312 204 Z M 0.945312 171 " clip-rule="nonzero"/></clipPath><clipPath id="350b2b9beb"><path d="M 0.945312 62.507812 L 373.695312 62.507812 L 373.695312 96 L 0.945312 96 Z M 0.945312 62.507812 " clip-rule="nonzero"/></clipPath><clipPath id="33ec9d4942"><path d="M 0.984375 279.480469 L 373.695312 279.480469 L 373.695312 312.257812 L 0.984375 312.257812 Z M 0.984375 279.480469 " clip-rule="nonzero"/></clipPath></defs><g clip-path="url(#a3b36576fa)"><path fill="#afafaf" d="M 357.703125 203.808594 L 17.289062 203.808594 C 8.285156 203.808594 0.984375 196.511719 0.984375 187.503906 C 0.984375 178.5 8.285156 171.203125 17.289062 171.203125 L 357.703125 171.203125 C 366.707031 171.203125 374.003906 178.5 374.003906 187.503906 C 374.003906 196.511719 366.707031 203.808594 357.703125 203.808594 " fill-opacity="1" fill-rule="nonzero"/></g><g clip-path="url(#350b2b9beb)"><path fill="#afafaf" d="M 357.703125 95.113281 L 17.289062 95.113281 C 8.285156 95.113281 0.984375 87.816406 0.984375 78.8125 C 0.984375 69.804688 8.285156 62.511719 17.289062 62.511719 L 357.703125 62.511719 C 366.707031 62.511719 374.003906 69.804688 374.003906 78.8125 C 374.003906 87.816406 366.707031 95.113281 357.703125 95.113281 " fill-opacity="1" fill-rule="nonzero"/></g><g clip-path="url(#33ec9d4942)"><path fill="#afafaf" d="M 357.703125 312.503906 L 17.289062 312.503906 C 8.285156 312.503906 0.984375 305.210938 0.984375 296.199219 C 0.984375 287.195312 8.285156 279.898438 17.289062 279.898438 L 357.703125 279.898438 C 366.707031 279.898438 374.003906 287.195312 374.003906 296.199219 C 374.003906 305.210938 366.707031 312.503906 357.703125 312.503906 " fill-opacity="1" fill-rule="nonzero"/></g><g fill="#afafaf" fill-opacity="1"><g transform="translate(168.306995, 301.77502)"><g><path d="M 1.5 0 L 1.5 -12.078125 L 2.78125 -12.078125 L 2.78125 -7.390625 L 2.9375 -7.359375 C 3.550781 -8.304688 4.441406 -8.78125 5.609375 -8.78125 C 6.640625 -8.78125 7.390625 -8.515625 7.859375 -7.984375 C 8.328125 -7.460938 8.5625 -6.648438 8.5625 -5.546875 L 8.5625 0 L 7.28125 0 L 7.28125 -5.515625 C 7.28125 -6.035156 7.210938 -6.453125 7.078125 -6.765625 C 6.953125 -7.085938 6.75 -7.316406 6.46875 -7.453125 C 6.1875 -7.597656 5.820312 -7.671875 5.375 -7.671875 C 4.59375 -7.671875 3.960938 -7.414062 3.484375 -6.90625 C 3.015625 -6.40625 2.78125 -5.578125 2.78125 -4.421875 L 2.78125 0 Z M 1.5 0 "/></g></g></g><g fill="#afafaf" fill-opacity="1"><g transform="translate(178.226447, 301.77502)"><g><path d="M 8.21875 -4.015625 L 2.296875 -4.015625 C 2.328125 -2.972656 2.578125 -2.207031 3.046875 -1.71875 C 3.515625 -1.226562 4.15625 -0.984375 4.96875 -0.984375 C 5.582031 -0.984375 6.078125 -1.09375 6.453125 -1.3125 C 6.828125 -1.53125 7.117188 -1.875 7.328125 -2.34375 L 7.5 -2.34375 L 8.328125 -1.84375 C 8.078125 -1.21875 7.675781 -0.722656 7.125 -0.359375 C 6.570312 -0.00390625 5.851562 0.171875 4.96875 0.171875 C 4.132812 0.171875 3.414062 0.00390625 2.8125 -0.328125 C 2.21875 -0.660156 1.757812 -1.160156 1.4375 -1.828125 C 1.113281 -2.492188 0.953125 -3.320312 0.953125 -4.3125 C 0.953125 -5.289062 1.117188 -6.113281 1.453125 -6.78125 C 1.796875 -7.457031 2.265625 -7.957031 2.859375 -8.28125 C 3.453125 -8.613281 4.128906 -8.78125 4.890625 -8.78125 C 5.992188 -8.78125 6.851562 -8.46875 7.46875 -7.84375 C 8.09375 -7.226562 8.40625 -6.304688 8.40625 -5.078125 C 8.40625 -4.597656 8.394531 -4.273438 8.375 -4.109375 Z M 7.15625 -5.078125 C 7.132812 -5.992188 6.929688 -6.660156 6.546875 -7.078125 C 6.160156 -7.492188 5.609375 -7.703125 4.890625 -7.703125 C 4.128906 -7.703125 3.535156 -7.492188 3.109375 -7.078125 C 2.679688 -6.660156 2.421875 -5.992188 2.328125 -5.078125 Z M 7.15625 -5.078125 "/></g></g></g><g fill="#afafaf" fill-opacity="1"><g transform="translate(187.411704, 301.77502)"><g><path d="M 3.4375 0.171875 C 2.820312 0.171875 2.335938 0 1.984375 -0.34375 C 1.640625 -0.695312 1.46875 -1.21875 1.46875 -1.90625 L 1.46875 -12.078125 L 2.75 -12.078125 L 2.75 -2 C 2.75 -1.632812 2.816406 -1.375 2.953125 -1.21875 C 3.085938 -1.0625 3.300781 -0.984375 3.59375 -0.984375 C 3.769531 -0.984375 3.953125 -1.007812 4.140625 -1.0625 L 4.25 -1.03125 L 4.390625 -0.03125 C 4.296875 0.03125 4.160156 0.078125 3.984375 0.109375 C 3.816406 0.148438 3.632812 0.171875 3.4375 0.171875 Z M 3.4375 0.171875 "/></g></g></g><g fill="#afafaf" fill-opacity="1"><g transform="translate(192.098059, 301.77502)"><g><path d="M 3.4375 0.171875 C 2.820312 0.171875 2.335938 0 1.984375 -0.34375 C 1.640625 -0.695312 1.46875 -1.21875 1.46875 -1.90625 L 1.46875 -12.078125 L 2.75 -12.078125 L 2.75 -2 C 2.75 -1.632812 2.816406 -1.375 2.953125 -1.21875 C 3.085938 -1.0625 3.300781 -0.984375 3.59375 -0.984375 C 3.769531 -0.984375 3.953125 -1.007812 4.140625 -1.0625 L 4.25 -1.03125 L 4.390625 -0.03125 C 4.296875 0.03125 4.160156 0.078125 3.984375 0.109375 C 3.816406 0.148438 3.632812 0.171875 3.4375 0.171875 Z M 3.4375 0.171875 "/></g></g></g><g fill="#afafaf" fill-opacity="1"><g transform="translate(196.784414, 301.77502)"><g><path d="M 4.953125 0.171875 C 4.140625 0.171875 3.429688 0 2.828125 -0.34375 C 2.222656 -0.695312 1.757812 -1.207031 1.4375 -1.875 C 1.113281 -2.539062 0.953125 -3.351562 0.953125 -4.3125 C 0.953125 -5.257812 1.113281 -6.066406 1.4375 -6.734375 C 1.757812 -7.410156 2.222656 -7.921875 2.828125 -8.265625 C 3.429688 -8.609375 4.140625 -8.78125 4.953125 -8.78125 C 5.765625 -8.78125 6.46875 -8.609375 7.0625 -8.265625 C 7.664062 -7.921875 8.128906 -7.410156 8.453125 -6.734375 C 8.785156 -6.066406 8.953125 -5.257812 8.953125 -4.3125 C 8.953125 -3.351562 8.785156 -2.539062 8.453125 -1.875 C 8.128906 -1.207031 7.664062 -0.695312 7.0625 -0.34375 C 6.46875 0 5.765625 0.171875 4.953125 0.171875 Z M 4.953125 -0.984375 C 5.804688 -0.984375 6.460938 -1.253906 6.921875 -1.796875 C 7.378906 -2.335938 7.609375 -3.175781 7.609375 -4.3125 C 7.609375 -5.445312 7.378906 -6.285156 6.921875 -6.828125 C 6.460938 -7.367188 5.804688 -7.640625 4.953125 -7.640625 C 4.085938 -7.640625 3.425781 -7.367188 2.96875 -6.828125 C 2.507812 -6.285156 2.28125 -5.445312 2.28125 -4.3125 C 2.28125 -3.175781 2.507812 -2.335938 2.96875 -1.796875 C 3.425781 -1.253906 4.085938 -0.984375 4.953125 -0.984375 Z M 4.953125 -0.984375 "/></g></g></g></svg>