<svg width="517" height="415" viewBox="0 0 517 415" fill="none" xmlns="http://www.w3.org/2000/svg">
<rect x="48.3771" y="328.56" width="383.538" height="43.3632" fill="#AAAAAA"/>
<rect x="129.266" y="286.031" width="300.207" height="44.1972" fill="#AAAAAA"/>
<rect x="231.837" y="242.667" width="195.969" height="43.3632" fill="#AAAAAA"/>
<rect x="321.065" y="199.304" width="108.408" height="43.3632" fill="#AAAAAA"/>
<rect x="87.5708" y="328.56" width="383.538" height="43.3632" fill="#D9D9D9"/>
<rect x="170.962" y="286.031" width="300.207" height="44.1972" fill="#D9D9D9"/>
<rect x="275.2" y="242.667" width="195.969" height="43.3632" fill="#D9D9D9"/>
<rect x="362.761" y="199.304" width="108.408" height="43.3632" fill="#D9D9D9"/>
<path fill-rule="evenodd" clip-rule="evenodd" d="M28.6967 274.458C30.385 274.252 32.1869 274.324 33.757 274.991C37.0956 276.41 38.0446 280.357 37.9988 283.566C37.9494 287.019 37.2167 290.791 39.84 293.574C41.0459 294.853 42.5459 295.832 43.73 297.135C44.9953 298.527 45.988 300.12 46.7231 301.83C48.0728 304.972 48.7352 308.667 47.501 311.963C46.4143 314.864 43.6803 317.483 44.2711 320.783C44.8873 324.225 48.3547 326.857 50.5225 329.42C52.9759 332.322 55.2348 336.03 55.6059 339.835C55.9617 343.482 54.3758 347.169 51.9419 349.926C47.079 355.434 39.7693 358.134 32.3989 358.117C29.2696 358.11 25.7266 357.968 23.0261 356.285C22.1915 355.765 21.7512 355.181 21.255 354.37C20.8101 353.643 20.2225 353.169 19.5423 352.655C18.0479 351.524 16.9687 350 16.2799 348.294C13.6054 341.668 15.743 333.471 19.4867 327.587C20.3738 326.193 21.1001 324.852 20.6691 323.19C20.2194 321.456 19.1141 319.891 18.1365 318.4C17.1705 316.927 16.0676 315.521 15.3125 313.928C14.5218 312.259 14.2991 310.511 14.4388 308.685C14.7014 305.254 16.1813 302.088 18.2764 299.328C20.2945 296.671 22.664 294.127 22.6693 290.645C22.6751 286.954 20.2096 283.67 21.26 279.918C21.6949 278.364 22.5684 276.77 23.9762 275.838C25.3262 274.945 27.1089 274.652 28.6967 274.458Z" fill="#DDE3E9"/>
<path fill-rule="evenodd" clip-rule="evenodd" d="M27.5935 280.359C27.6252 279.863 28.2127 279.566 28.6752 279.695C29.284 279.865 29.2723 280.435 29.2562 280.942C29.2069 282.501 29.4324 284.016 29.8069 285.529C30.5852 288.674 32.0235 291.572 33.1631 294.593C34.3016 297.612 34.8361 300.728 34.1682 303.923C33.5385 306.934 32.5493 309.868 31.9049 312.883C31.3369 315.541 30.7326 318.344 31.5975 320.995C32.4298 323.547 34.2699 325.625 35.595 327.931C38.3379 332.705 39.5548 338 39.7176 343.45C39.793 345.981 39.7251 348.535 39.1385 351.017C38.8009 352.446 38.3472 354.378 37.1235 355.364C36.5592 355.819 35.5941 355.977 35.1192 355.303C34.6733 354.671 35.0645 353.692 35.206 353.019C35.8191 350.103 35.9424 347.123 35.7956 344.162C35.6536 341.294 35.315 338.431 34.4131 335.692C33.576 333.15 32.3044 330.867 30.8077 328.643C29.2826 326.377 27.6972 324.106 27.067 321.421C26.4267 318.694 26.9469 315.919 27.6424 313.244C28.3779 310.415 29.3413 307.667 30.3373 304.914C31.308 302.232 31.652 299.694 31.1162 296.887C30.0577 291.34 27.2243 286.134 27.5935 280.359Z" fill="#C5CFD6"/>
<path fill-rule="evenodd" clip-rule="evenodd" d="M73.2734 281.188C75.3626 281.823 77.4376 282.847 78.9269 284.453C82.0936 287.869 81.122 293.032 79.3738 296.802C77.4921 300.861 74.6407 304.94 76.2481 309.597C76.9869 311.737 78.2293 313.676 78.9301 315.833C79.6789 318.138 80.0021 320.539 79.9609 322.945C79.8847 327.363 78.7104 332.077 75.5223 335.332C72.7152 338.198 68.1253 339.872 67.0756 344.082C65.9806 348.474 68.6578 353.391 69.8464 357.552C71.1917 362.26 71.8828 367.822 70.3086 372.515C68.8002 377.013 64.9924 380.548 60.682 382.541C52.0695 386.523 42.0699 385.91 33.434 382.053C29.7675 380.415 25.6866 378.403 23.408 375.007C22.7038 373.957 22.4956 373.037 22.3421 371.819C22.2046 370.727 21.7652 369.862 21.2393 368.899C20.0837 366.784 19.6227 364.419 19.7158 362.043C20.078 352.815 26.9142 344.234 34.4126 339.225C36.1892 338.038 37.7495 336.83 38.1216 334.64C38.5101 332.355 38.0399 329.929 37.6806 327.657C37.3257 325.412 36.7745 323.175 36.7303 320.898C36.6842 318.512 37.346 316.329 38.4745 314.242C40.5945 310.321 44.0023 307.347 47.917 305.175C51.6876 303.082 55.8099 301.308 57.6553 297.193C59.6114 292.831 58.4537 287.664 61.6674 283.773C62.9982 282.162 64.8647 280.731 67.0079 280.362C69.0632 280.008 71.3085 280.591 73.2734 281.188Z" fill="#DDE3E9"/>
<path fill-rule="evenodd" clip-rule="evenodd" d="M69.0057 288.401C69.3021 287.831 70.1447 287.787 70.6178 288.183C71.2406 288.704 70.9289 289.372 70.6447 289.964C69.7713 291.785 69.2421 293.697 68.8883 295.685C68.1525 299.818 68.3181 304.004 68.0696 308.18C67.8213 312.352 66.8153 316.323 64.3628 319.755C62.0506 322.992 59.3588 325.947 57.0274 329.18C54.9725 332.029 52.7992 335.031 52.4234 338.624C52.0613 342.083 53.1255 345.509 53.4681 348.935C54.1775 356.027 52.8292 362.937 50.1677 369.476C48.9316 372.513 47.5157 375.502 45.531 378.133C44.3883 379.649 42.8471 381.698 40.8999 382.225C40.002 382.468 38.7912 382.148 38.5884 381.101C38.3978 380.118 39.3672 379.165 39.8852 378.441C42.1279 375.31 43.8315 371.845 45.2093 368.262C46.544 364.791 47.6464 361.223 48.0251 357.506C48.3764 354.056 48.0842 350.686 47.4977 347.267C46.9002 343.784 46.2346 340.263 46.9028 336.752C47.5811 333.187 49.6413 330.174 51.8544 327.371C54.195 324.406 56.7596 321.657 59.3646 318.92C61.9032 316.253 63.6335 313.428 64.476 309.822C66.1406 302.699 65.5516 295.047 69.0057 288.401Z" fill="#C5CFD6"/>
<path fill-rule="evenodd" clip-rule="evenodd" d="M8.68639 307.389C12.1603 307.389 15.2145 309.232 17.319 311.847C19.7825 314.908 20.28 318.647 21.2804 322.296C21.7782 324.111 22.6343 325.914 24.1346 327.148C25.4992 328.27 27.2316 328.494 28.865 329.042C32.1293 330.138 34.7653 332.777 35.8063 335.997C37.0763 339.925 35.7311 343.886 35.9627 347.866C36.1753 351.522 39.7766 353.802 42.6741 355.555C45.5312 357.283 48.1051 358.9 48.9656 362.267C49.8781 365.837 50.1842 369.822 48.9203 373.349C46.816 379.222 40.6577 381.808 34.7071 382.209C29.3068 382.573 22.5165 382.001 18.4609 378.078C16.0341 375.73 15.1552 372.447 15.2643 369.18C15.332 367.149 15.7341 365.136 16.2539 363.173C16.6223 361.782 17.1201 360.396 17.2619 358.959C17.6389 355.134 14.1066 354.399 11.0999 353.349C7.27916 352.014 4.60435 349.493 2.74436 345.981C1.01221 342.711 0.285436 339.04 1.32381 335.439C1.85414 333.601 2.81604 331.933 4.12056 330.514C4.69481 329.89 5.50418 329.369 6.0225 328.713C6.50628 328.1 6.40096 327.306 6.23424 326.589C5.46332 323.274 3.06143 320.529 2.20245 317.221C1.42695 314.234 1.88539 310.517 4.61352 308.591C5.79218 307.758 7.24573 307.398 8.68639 307.389Z" fill="#C5CFD6"/>
<path fill-rule="evenodd" clip-rule="evenodd" d="M13.42 316.025C17.102 319.95 18.1028 325.276 18.3965 330.438C18.5611 333.333 18.3898 336.386 19.2396 339.194C19.9666 341.597 21.671 343.434 23.4279 345.17C26.9644 348.665 30.9085 352.218 31.9429 357.276C32.5498 360.244 32.1402 363.31 32.9788 366.246C33.7414 368.914 35.084 371.536 36.7172 373.789C38.0321 375.604 39.7452 376.993 41.1825 378.684C41.621 379.201 42.2492 379.961 42.0682 380.69C41.8565 381.543 40.77 381.813 39.9992 381.679C38.202 381.367 36.6892 379.649 35.5141 378.401C33.7958 376.575 32.3357 374.611 31.1489 372.408C29.8314 369.962 28.7705 367.366 28.3173 364.621C27.8469 361.773 28.081 358.806 27.0069 356.073C25.1995 351.475 20.8157 348.762 17.6461 345.178C13.6971 340.712 14.286 335.155 14.6905 329.661C14.9127 326.643 15.1336 323.234 13.6095 320.477C13.0277 319.425 11.7306 318.444 11.4804 317.248C11.2513 316.153 12.5018 315.046 13.42 316.025Z" fill="#AFB9C5"/>
<path fill-rule="evenodd" clip-rule="evenodd" d="M17.3466 380.532C17.3468 402.982 21.0073 414.744 40.3321 414.744C59.6569 414.744 63.3174 402.982 63.3175 380.532H17.3466Z" fill="#89C5CC"/>
<path fill-rule="evenodd" clip-rule="evenodd" d="M460.654 245.123C465.86 257.504 474.71 266.106 479.397 278.979C482.176 286.614 483.335 294.914 483.405 303.416C483.443 308.033 483.363 312.654 483.342 317.272C483.321 321.775 483.198 326.249 482.816 330.723C482.433 335.221 482.003 339.666 481.813 344.192C481.666 347.718 481.598 351.82 480.404 355.036C479.454 357.594 477.04 357.969 476.4 354.867C476.044 353.142 476.089 351.216 476.128 349.444C476.178 347.17 476.311 344.899 476.378 342.625C476.649 333.502 476.298 324.376 476.481 315.248C476.661 306.33 477.806 297.422 476.539 288.564C475.492 281.248 472.834 274.967 469.778 268.945C466.839 263.151 463.639 257.498 461.653 250.907C461.082 249.014 460.642 247.053 460.43 245.018C460.522 244.975 460.597 245.01 460.654 245.123Z" fill="#C1DEE2"/>
<path fill-rule="evenodd" clip-rule="evenodd" d="M459.236 269.548C460.266 270.294 460.842 271.383 461.539 272.459C462.406 273.796 463.424 275.002 464.291 276.34C466.097 279.13 467.684 282.09 469.33 284.992C472.456 290.501 474.83 296.372 476.005 302.745C477.224 309.35 477.552 316.167 478.063 322.87C478.606 329.974 479.151 337.13 479.223 344.262C479.255 347.457 479.428 350.849 479.045 354.022C478.806 355.997 477.915 357.681 475.908 357.665C471.643 357.631 469.64 352.903 468.804 349.025C467.572 343.316 467.327 337.251 467.522 331.412C467.757 324.372 468.978 317.437 469.506 310.423C470.066 302.999 469.75 295.705 467.2 288.714C465.911 285.182 464.416 281.734 463.073 278.224C462.501 276.73 462.033 275.195 461.26 273.804C460.401 272.256 459.335 270.851 458.662 269.185C458.853 269.306 459.044 269.427 459.236 269.548Z" fill="#89C5CC"/>
<path fill-rule="evenodd" clip-rule="evenodd" d="M508.366 254.743C508.497 254.642 508.628 254.54 508.758 254.438C508.382 256.026 507.701 257.316 507.181 258.768C506.714 260.074 506.477 261.551 506.162 262.977C505.423 266.328 504.568 269.604 503.87 272.983C502.487 279.671 502.749 286.875 503.655 294.294C504.512 301.303 505.866 308.3 506.511 315.307C507.046 321.118 507.276 327.111 506.766 332.655C506.419 336.42 505.283 340.916 502.186 340.536C500.728 340.357 499.967 338.601 499.661 336.618C499.169 333.434 499.066 330.086 498.874 326.919C498.446 319.852 498.36 312.806 498.276 305.811C498.196 299.211 497.976 292.481 498.416 286.047C498.841 279.839 500.17 274.246 502.071 269.084C503.072 266.365 504.025 263.582 505.15 260.99C505.689 259.747 506.348 258.649 506.888 257.407C507.322 256.408 507.667 255.382 508.366 254.743Z" fill="#C1DEE2"/>
<path fill-rule="evenodd" clip-rule="evenodd" d="M460.553 290.008C461.117 289.06 462.358 292.186 462.547 292.579C462.467 292.383 462.387 292.188 462.306 291.993C463.426 293.856 464.45 295.795 465.087 297.931C465.717 300.046 466.258 302.203 466.849 304.333C467.958 308.329 469.389 312.211 470.394 316.243C471.374 320.172 471.621 324.034 471.384 328.098C471.137 332.321 470.986 336.61 471.274 340.831C471.411 342.847 472.066 344.725 472.514 346.666C472.964 348.609 473.317 350.578 473.848 352.497C473.97 352.247 473.986 353.082 473.985 353.146C473.982 353.625 473.915 354.027 473.761 354.482C473.365 355.651 472.624 356.644 471.497 356.966C469.46 357.549 467.569 355.694 466.912 353.736C465.969 350.926 465.45 347.82 465.001 344.867C464.589 342.159 464.492 339.434 464.614 336.689C464.855 331.274 465.834 325.931 466.099 320.518C466.387 314.625 465.22 309.089 464.244 303.353C463.773 300.589 463.324 297.851 462.408 295.218C462.037 294.151 461.554 293.21 461.047 292.226C460.759 291.665 460.176 290.666 460.553 290.008Z" fill="#C1DEE2"/>
<path fill-rule="evenodd" clip-rule="evenodd" d="M477.081 280.803C476.847 287.554 476.444 294.254 475.545 300.934C474.627 307.75 473.573 314.544 472.69 321.366C471.83 328.008 470.929 334.759 471.049 341.493C471.138 346.453 470.316 354.844 475.82 357.293C481.395 359.772 482.591 349.184 482.957 345.69C483.658 338.985 483.431 332.21 483.091 325.469C482.741 318.55 482.158 311.667 481.435 304.773C480.632 297.116 480.002 289.425 479.496 281.746C479.246 277.948 479.184 274.156 479.253 270.357C479.318 266.772 479.182 263.15 477.909 259.747C477.842 259.795 477.776 259.844 477.709 259.892" fill="#69A1AC"/>
<path fill-rule="evenodd" clip-rule="evenodd" d="M505.86 302.191C504.858 303.653 503.847 305.1 502.9 306.648C501.206 309.419 499.674 312.5 499.213 316.461C498.249 324.75 499.023 333.704 499.209 342.247C499.248 343.993 499.027 345.686 499.715 347.348C500.338 348.854 501.503 350.003 502.614 349.996C504.993 349.983 504.63 344.154 504.634 341.588C504.641 337.092 504.137 332.549 504.18 328.057C504.224 323.606 504.494 319.143 505.139 314.916C505.792 310.637 506.748 306.529 508.009 302.695C508.184 302.163 509.441 298.051 508.254 298.76" fill="#89C5CC"/>
<path fill-rule="evenodd" clip-rule="evenodd" d="M495.357 257.977C493.794 257.977 493.803 265.779 493.756 266.781C493.586 270.397 493.626 274.014 493.519 277.631C493.284 285.524 492.995 293.487 491.81 301.289C491.172 305.489 490.433 309.671 489.637 313.839C488.84 318.019 487.769 322.194 487.244 326.427C486.74 330.497 487.025 334.646 487.094 338.736C487.163 342.85 487.288 346.973 487.826 351.051C487.959 352.058 488.115 353.061 488.282 354.061C488.42 354.895 488.34 355.929 488.574 356.721C488.951 357.991 490.566 358.406 491.654 358.208C494.596 357.67 496.476 353.972 497.481 351.27C498.764 347.821 499.445 344.079 500.118 340.443C500.879 336.324 501.325 332.142 501.535 327.949C501.96 319.427 501.414 310.895 500.804 302.4C500.465 297.676 500.073 292.972 499.473 288.277C498.876 283.602 498.11 278.947 497.611 274.258C497.248 270.851 496.891 267.439 496.657 264.018C496.6 263.203 496.553 257.977 495.357 257.977Z" fill="#69A1AC"/>
<path fill-rule="evenodd" clip-rule="evenodd" d="M493.4 314.686C493.145 306.495 489.855 270.517 489.107 260.612C488.92 258.133 487.118 247.811 486.884 245C486.25 245.794 486.304 258.16 486.311 261.001C486.318 263.811 485.97 266.575 485.791 269.371C485.608 272.223 481.395 309.06 480.848 311.801C479.761 317.253 479.033 322.849 478.471 328.424C477.924 333.857 477.074 339.59 477.806 345.052C477.974 346.31 478.24 347.547 478.674 348.702C479.142 349.95 479.463 351.105 479.839 352.411C480.444 354.515 481.538 356.361 483.22 357.229C486.667 359.01 488.518 354.979 489.457 351.469C490.955 345.864 491.917 340.168 492.368 334.282C492.867 327.769 493.604 321.243 493.4 314.686Z" fill="#89C5CC"/>
<path d="M509.348 338.789H458.072C457.421 338.789 456.894 339.317 456.894 339.969V391.287C456.894 391.939 457.421 392.467 458.072 392.467H509.348C509.999 392.467 510.526 391.939 510.526 391.287V339.969C510.526 339.317 509.999 338.789 509.348 338.789Z" fill="white"/>
<path d="M455.715 344.688H452.179C451.528 344.688 451 345.216 451 345.867V410.163C451 410.815 451.528 411.343 452.179 411.343H455.715C456.366 411.343 456.894 410.815 456.894 410.163V345.867C456.894 345.216 456.366 344.688 455.715 344.688Z" fill="#C5CFD6"/>
<path d="M485.183 344.688H481.647C480.996 344.688 480.469 345.216 480.469 345.867V410.163C480.469 410.815 480.996 411.343 481.647 411.343H485.183C485.834 411.343 486.362 410.815 486.362 410.163V345.867C486.362 345.216 485.834 344.688 485.183 344.688Z" fill="#C5CFD6"/>
<path d="M515.241 344.688H511.705C511.054 344.688 510.526 345.216 510.526 345.867V410.163C510.526 410.815 511.054 411.343 511.705 411.343H515.241C515.892 411.343 516.42 410.815 516.42 410.163V345.867C516.42 345.216 515.892 344.688 515.241 344.688Z" fill="#C5CFD6"/>
<path fill-rule="evenodd" clip-rule="evenodd" d="M120.092 171.235L133.021 157.781C134.652 153.879 136.46 150.679 138.445 148.182C139.114 147.619 140.399 147.002 139.838 149.636C139.278 152.269 138.806 155.065 139.662 155.554C140.518 156.043 141.816 154.578 142.937 155.485C143.685 156.09 141.331 158.152 135.875 161.673L127.783 175.631L120.092 171.235Z" fill="#B28B67"/>
<path fill-rule="evenodd" clip-rule="evenodd" d="M84.1048 162.006C82.0056 159.538 80.5847 156.514 80.8222 153.125C81.5062 143.361 95.0781 145.509 97.7181 150.437C100.358 155.365 100.044 167.866 96.6324 168.747C95.2717 169.098 92.3731 168.237 89.4229 166.456L91.2747 179.577H80.3407L84.1048 162.006Z" fill="#B28B67"/>
<path fill-rule="evenodd" clip-rule="evenodd" d="M92.8959 151.152C91.4122 151.983 90.3562 153.54 89.0851 155.583C88.7755 155.462 88.4384 155.395 88.0856 155.395C86.5759 155.395 85.3521 156.62 85.3521 158.132C85.3521 158.9 85.6675 159.594 86.1756 160.091C85.5431 160.985 84.8342 161.919 84.022 162.882C80.9908 161.061 78.7364 155.753 81.6305 150.629C84.1206 140.364 98.2306 146.735 100.945 145.004C101.539 148.729 99.6247 151.732 92.8959 151.152Z" fill="#AFAFAF"/>
<path fill-rule="evenodd" clip-rule="evenodd" d="M79.9004 219.188L102.261 275.868L117.258 323.787H123.181L100.253 219.188L79.9004 219.188Z" fill="#997659"/>
<path fill-rule="evenodd" clip-rule="evenodd" d="M75.3978 219.188C75.1597 239.105 71.6872 265.922 71.1324 267.163C70.7625 267.991 57.9944 278.517 32.828 298.741L36.9069 303.113C66.6009 285.773 82.135 275.947 83.5091 273.634C85.5702 270.165 92.2806 238.243 97.6681 219.188H75.3978Z" fill="#B28B67"/>
<path fill-rule="evenodd" clip-rule="evenodd" d="M32.2833 297.282C30.9132 297.767 29.9694 298.227 29.4519 298.662C28.8224 299.191 27.9919 300.068 26.9602 301.293C27.5728 302.024 33.0779 308.595 43.4757 321.005C45.5963 320.096 46.2616 319.033 45.4718 317.816C44.682 316.599 44.0356 315.58 43.5327 314.759L39.9358 302.168C39.8666 301.926 39.6144 301.786 39.3725 301.855C39.3683 301.856 39.3642 301.858 39.3601 301.859L37.4399 302.469C36.1078 301.848 35.1741 301.217 34.6389 300.579C34.2041 300.06 33.813 299.167 33.4655 297.901L33.4655 297.901C33.3321 297.415 32.8306 297.129 32.3454 297.263C32.3244 297.268 32.3037 297.275 32.2833 297.282Z" fill="black"/>
<path fill-rule="evenodd" clip-rule="evenodd" d="M114.834 321.575C114.324 322.937 114.069 323.957 114.069 324.633C114.069 325.456 114.206 326.657 114.48 328.235C115.433 328.235 123.998 328.235 140.175 328.235C140.843 326.024 140.457 324.831 139.019 324.655C137.58 324.478 136.385 324.319 135.433 324.177L123.49 318.845C123.261 318.742 122.991 318.846 122.889 319.076C122.887 319.08 122.885 319.084 122.884 319.088L122.116 320.953C120.784 321.575 119.702 321.886 118.869 321.886C118.193 321.886 117.259 321.613 116.066 321.065L116.066 321.065C115.609 320.855 115.068 321.056 114.858 321.515C114.849 321.534 114.841 321.554 114.834 321.575Z" fill="black"/>
<path fill-rule="evenodd" clip-rule="evenodd" d="M94.9346 318.851L123.092 315.791L102.224 219.188H77.0048L94.9346 318.851Z" fill="#69A1AC"/>
<path fill-rule="evenodd" clip-rule="evenodd" d="M38.6521 291.689L57.1214 313.583C76.5747 292.304 87.916 278.42 91.1453 271.93C94.3747 265.44 97.2777 247.859 99.8544 219.188H71.4622C70.0547 244.412 69.106 257.611 68.6159 258.785C68.1259 259.958 58.138 270.926 38.6521 291.689Z" fill="#89C5CC"/>
<path fill-rule="evenodd" clip-rule="evenodd" d="M55.5328 201.909L65.8824 201.948C57.9998 227.361 53.8154 240.666 53.3294 241.865C52.2357 244.562 54.5501 248.669 55.5398 250.876C52.3163 252.312 52.6598 246.996 48.5935 248.879C44.8819 250.597 42.0586 253.71 37.7705 251.077C37.2433 250.754 36.6655 249.535 38.0614 248.583C41.539 246.21 46.5504 242.057 47.2275 240.69C48.1509 238.826 50.9193 225.899 55.5328 201.909Z" fill="#B28B67"/>
<path fill-rule="evenodd" clip-rule="evenodd" d="M78.1599 211.234L77.2242 207.199C99.4784 199.456 112.972 165.564 121.313 163.045C124.372 162.121 126.072 164.269 126.949 163.057L131.126 168.129C130.135 169.087 132.156 170.89 131.055 174.966C129.954 179.042 104.956 209.669 78.1599 211.234Z" fill="#DB2721"/>
<path fill-rule="evenodd" clip-rule="evenodd" d="M93.9452 175.689C93.467 205.685 110.892 213.333 107.012 225.363C103.808 235.295 73.1423 245.972 67.8358 236.236C65.6878 232.295 64.7132 227.529 64.6026 222.347C63.2464 226.328 62.1738 229.755 61.3847 232.629C60.0235 237.586 54.7465 238.374 54.7465 240.283L47.7941 238.374C48.2657 235.779 44.9881 234.516 45.8669 228.72C49.8045 202.751 60.3839 183.927 77.6053 172.248L77.7888 169.657C77.8594 168.652 78.7295 167.894 79.7329 167.964L79.733 167.962L92.5995 168.856C93.6035 168.926 94.3609 169.798 94.2911 170.803C94.2911 170.804 94.2911 170.804 94.291 170.805L93.9452 175.689Z" fill="#FF4133"/>
<path fill-rule="evenodd" clip-rule="evenodd" d="M182.323 103.425C180.671 109.506 178.517 123.175 180.715 125.319H194.617C194.619 125.295 194.62 125.27 194.621 125.246C199.774 124.676 203.782 120.313 203.782 115.015V104.961C203.782 99.2766 199.167 94.6681 193.475 94.6681H192.516C187.347 94.6681 183.066 98.4687 182.323 103.425Z" fill="#72357C"/>
<path fill-rule="evenodd" clip-rule="evenodd" d="M198.383 113.095C200.592 110.506 202.087 107.333 201.837 103.777C201.117 93.531 186.836 95.785 184.058 100.956C181.28 106.127 181.61 119.244 185.2 120.168C186.632 120.537 189.682 119.634 192.787 117.765L190.838 131.532H202.344L198.383 113.095Z" fill="#D4A181"/>
<path fill-rule="evenodd" clip-rule="evenodd" d="M195.273 111.365C194.743 117.051 194.955 123.545 196.535 125.087H210.437C211.212 111.646 203.726 116.851 203.726 104.197C203.259 103.741 202.818 103.291 202.382 102.902L202.397 102.53C199.99 97.6078 196.936 95.1469 193.235 95.1469C187.683 95.1469 185.931 97.7266 184.439 99.9168C185.555 103.74 189.884 104.307 193.731 106.689C194.185 106.322 194.763 106.101 195.393 106.101C196.849 106.101 198.029 107.28 198.029 108.734C198.029 110.188 196.849 111.367 195.393 111.367C195.352 111.367 195.312 111.366 195.273 111.365Z" fill="#72357C"/>
<path fill-rule="evenodd" clip-rule="evenodd" d="M220.845 218.229C209.345 221.442 199.422 223.048 191.078 223.048C182.734 223.048 174.984 220.574 167.827 215.627C179.082 212.33 188.35 210.682 195.632 210.682C202.915 210.682 211.319 213.198 220.845 218.229Z" fill="#1F28CF"/>
<path fill-rule="evenodd" clip-rule="evenodd" d="M181.122 227.678C181.233 227.512 181.327 227.331 181.401 227.135C182.939 223.075 207.561 179.277 210.014 171.269H182.293C180.427 177.357 172.033 215.564 170.852 223.186C167.124 235.21 159.45 274.152 158.47 276.849C157.439 279.687 163.238 282.644 164.784 279.155C167.243 273.603 173.101 258.242 175.71 248.863C178.156 240.07 180.147 232.16 181.122 227.678Z" fill="#BA8B72"/>
<path fill-rule="evenodd" clip-rule="evenodd" d="M203.803 233.026C215.06 235.867 256.236 241.004 259.062 241.809C261.968 242.638 264.517 236.655 260.924 235.359C255.207 233.296 239.455 228.531 229.904 226.587C222.221 225.023 215.211 223.746 210.505 222.999C210.904 209.796 212.726 178.112 211.532 171.269H187.003C188.149 177.831 197.833 225.712 199.633 230.505C200.204 232.216 201.908 232.972 203.803 233.026Z" fill="#D4A181"/>
<path fill-rule="evenodd" clip-rule="evenodd" d="M260.666 233.765C262.169 233.485 263.27 233.407 263.969 233.53C264.82 233.68 266.037 234.04 267.62 234.611C267.446 235.597 265.879 244.462 262.921 261.205C260.512 261.494 259.348 260.878 259.429 259.357C259.509 257.836 259.563 256.57 259.59 255.559L256.259 242.228C256.195 241.971 256.351 241.711 256.608 241.647C256.613 241.646 256.617 241.645 256.621 241.644L258.691 241.189C259.578 239.924 260.098 238.86 260.25 237.999C260.374 237.298 260.262 236.282 259.914 234.948L259.914 234.948C259.78 234.437 260.087 233.913 260.599 233.78C260.621 233.774 260.644 233.769 260.666 233.765Z" fill="#E4E4E4"/>
<path fill-rule="evenodd" clip-rule="evenodd" d="M166.543 279.703C167.08 281.133 167.348 282.203 167.348 282.912C167.348 283.776 167.204 285.036 166.916 286.692C165.913 286.692 156.9 286.692 139.877 286.692C139.174 284.372 139.58 283.12 141.094 282.935C142.608 282.75 143.865 282.583 144.867 282.434L157.434 276.839C157.676 276.731 157.959 276.839 158.067 277.081C158.069 277.085 158.071 277.089 158.072 277.093L158.88 279.05C160.282 279.703 161.42 280.03 162.297 280.03C163.008 280.03 163.992 279.743 165.246 279.168L165.246 279.168C165.727 278.948 166.296 279.159 166.517 279.64C166.527 279.661 166.535 279.682 166.543 279.703Z" fill="#E4E4E4"/>
<path fill-rule="evenodd" clip-rule="evenodd" d="M211.452 171.269C200.644 168.181 190.416 168.181 180.771 171.269C177.415 186.559 169.261 192.628 167.827 216.071C184.127 224.159 204.262 210.302 221.04 218.19C225.834 207.157 219.123 180.588 211.452 171.269Z" fill="#2B44FF"/>
<path fill-rule="evenodd" clip-rule="evenodd" d="M164.951 152.268L146.023 149.689C142.237 147.586 138.753 146.162 135.573 145.418C134.678 145.392 133.255 145.716 135.375 147.482C137.496 149.248 139.648 151.201 139.27 152.144C138.892 153.086 136.92 152.735 136.593 154.185C136.375 155.151 139.577 155.308 146.197 154.656L161.555 160.736L164.951 152.268Z" fill="#D4A181"/>
<path fill-rule="evenodd" clip-rule="evenodd" d="M231.344 137.644L227.713 143.753C251.46 159.174 251.14 159.836 252.219 160.591C254.645 162.289 254.954 167.074 255.337 169.505C258.874 168.949 255.634 164.601 260.137 163.961C264.246 163.377 268.374 164.474 270.561 159.857C270.83 159.289 270.646 157.93 268.93 157.888C264.657 157.785 258.091 157.009 256.757 156.216C254.938 155.136 251.521 153.657 231.344 137.644Z" fill="#D4A181"/>
<path fill-rule="evenodd" clip-rule="evenodd" d="M195.657 123.393L187.437 123.94C185.413 142.229 174.387 153.781 149.701 149.871L146.421 173.423C169.494 176.401 189.73 167.176 193.877 142.198C194.95 135.732 195.798 129.003 195.657 123.393Z" fill="#AFB9C5"/>
<path fill-rule="evenodd" clip-rule="evenodd" d="M199.712 121.007L187.258 123.856C187.258 145.246 180.435 158.893 176.936 174.62H214.5C214.745 177.436 211.004 148.651 217 145.5C222.577 142.569 237.927 165.236 238 168L249 150.5C234.5 127.5 218.917 137.595 200.534 121H199.718L199.712 121.007Z" fill="#C5CFD6"/>
<path fill-rule="evenodd" clip-rule="evenodd" d="M214 151C213 165 206.119 167.605 204.233 174.62H214.5C213.561 163.855 213.286 161 214 151Z" fill="black" fill-opacity="0.1"/>
<path fill-rule="evenodd" clip-rule="evenodd" d="M321.718 70.4759C320.262 67.4135 319.643 63.9725 320.803 60.6122C324.145 50.9303 337.304 56.7762 338.64 62.4713C339.976 68.1663 336.267 80.7139 332.574 80.68C331.101 80.6665 328.399 79.012 325.895 76.4134L324.211 90.1734L313.14 87.2125L321.718 70.4759Z" fill="#B28B67"/>
<path fill-rule="evenodd" clip-rule="evenodd" d="M337.026 58.5221C336.813 58.303 336.368 57.842 336.13 57.6545C336.074 57.6096 335.714 57.173 335.701 57.1738C335.333 57.1973 334.244 57.356 334.063 57.6963C334.043 57.7203 334.023 57.7427 334.004 57.7619C333.799 57.9763 333.603 58.2 333.411 58.4283C332.992 58.9297 332.602 59.4666 332.224 60.0016C331.487 61.0435 330.798 62.1272 330.139 63.2217C329.468 64.3358 328.846 65.4781 328.191 66.6019C327.248 68.2189 326.185 69.7576 325.245 71.3748C324.646 72.4074 324.176 73.4887 323.948 74.6555C323.945 74.6694 323.942 74.6832 323.939 74.6975C323.938 74.7033 323.937 74.7092 323.936 74.7151C323.902 74.8948 323.874 75.0764 323.852 75.2603C323.834 75.4177 323.815 75.5756 323.798 75.734C324.459 74.9913 325.041 74.134 325.631 73.3302C325.689 73.2515 325.745 73.1717 325.8 73.0915C325.962 72.9396 326.125 72.7896 326.289 72.6407C327.325 71.7015 328.362 70.7673 329.373 69.7995C331.192 68.059 333.01 66.2713 335.017 64.7632C335.61 64.3178 336.21 63.8838 336.799 63.4323C337.133 63.1754 337.463 62.9114 337.787 62.6394C338.018 62.4449 338.968 61.8055 338.84 61.2342C338.774 60.9419 337.578 59.0905 337.026 58.5221Z" fill="#2C2C2C"/>
<path fill-rule="evenodd" clip-rule="evenodd" d="M336.197 57.713C336.421 57.8618 336.439 57.3167 336.249 57.0723C335.367 55.9401 331.217 54.5052 327.331 54.2845C324.727 54.1366 321.517 54.6432 319.107 55.7538C316.935 56.755 315.078 58.7947 313.836 60.9129C312.531 63.137 311.759 65.613 311.466 68.1731C311.402 68.7355 311.437 69.2972 311.392 69.8524C311.341 70.4776 311.243 71.0664 311.281 71.6982C311.305 72.085 311.413 72.4871 311.419 72.8713C311.426 73.3097 311.254 73.6677 311.058 74.0595C310.739 74.6981 310.387 75.3264 309.972 75.9066C309.347 76.7778 308.662 77.5668 308.115 78.4978C307.387 79.7366 304.676 83.6764 305.485 85.1642L326.944 90.9033C326.799 89.2855 325.643 87.1178 325.738 85.4529C325.794 84.4721 326.246 82.4186 326.246 82.3394C326.657 78.8782 326.14 77.0345 325.703 76.2989C325.267 75.5633 324.527 75.175 324.621 74.6633C325.009 72.5468 326.366 70.7823 327.49 69.0105C328.829 66.8988 329.99 64.6785 331.349 62.5805C331.951 61.6515 335.032 56.9404 336.197 57.713Z" fill="#8991DC"/>
<path fill-rule="evenodd" clip-rule="evenodd" d="M328.032 58.0844C326.534 60.4343 325.992 61.7576 325.225 65.3106L324.828 65.2044C324.975 61.6971 326.471 58.7585 327.533 57.951L328.032 58.0844ZM315.399 61.804C315.925 65.8644 316.033 68.2079 319.449 72.2936L319.063 72.4342C315.518 68.9483 315.059 65.7981 315.041 61.8715L315.399 61.804ZM322.593 59.7392C321.885 65.1134 321.289 68.132 323.332 74.7645L322.921 74.779C320.577 68.8529 321.078 64.662 322.231 59.673L322.593 59.7392ZM314.513 74.105L314.944 73.7973C319.003 76.37 317.74 79.1024 322.543 83.4961L322.001 83.6538C317.655 80.3306 317.673 75.7008 314.513 74.105Z" fill="black" fill-opacity="0.2"/>
<path fill-rule="evenodd" clip-rule="evenodd" d="M299.152 129.389C300.013 141.134 355.511 175.713 355.835 176.683C355.979 177.114 369.66 190.745 358 217.575L363 217.575C380.885 189.16 369.78 175.322 368.861 172.294C367.546 167.959 353.192 153.699 325.801 129.514L299.152 129.389Z" fill="#B28B67"/>
<path fill-rule="evenodd" clip-rule="evenodd" d="M358 213.5L366.5 213.5C383.202 194.676 371.006 180.04 369.812 172.127C369.017 166.851 354.713 152.615 326.901 129.418L298.584 129.418C299.55 156.618 350.99 176.787 351.678 177.946C352.366 179.105 363.757 192.441 358 213.5Z" fill="#2F3676"/>
<path fill-rule="evenodd" clip-rule="evenodd" d="M355.808 217.899C355.272 219.325 355.004 220.392 355.003 221.1C355.003 221.961 355.145 223.218 355.431 224.87C356.43 224.87 365.41 224.87 382.371 224.87C383.073 222.556 382.67 221.307 381.162 221.122C379.654 220.938 378.401 220.771 377.403 220.622L364.887 215.041C364.646 214.934 364.363 215.042 364.256 215.283C364.254 215.287 364.252 215.291 364.25 215.296L363.444 217.248C362.047 217.899 360.912 218.225 360.039 218.225C359.33 218.225 358.35 217.938 357.101 217.365L357.101 217.365C356.622 217.146 356.054 217.356 355.834 217.836C355.825 217.856 355.816 217.877 355.808 217.899Z" fill="#E4E4E4"/>
<path fill-rule="evenodd" clip-rule="evenodd" d="M305.758 129L290.872 188.691L278 235H283.941L325 129H305.758Z" fill="#997659"/>
<path fill-rule="evenodd" clip-rule="evenodd" d="M277.175 227.995C276.178 229.145 275.557 230.052 275.311 230.716C275.011 231.522 274.709 232.75 274.404 234.398C275.341 234.745 283.762 237.87 299.668 243.771C301.129 241.847 301.184 240.536 299.834 239.838C298.484 239.14 297.366 238.548 296.482 238.062L286.68 228.476C286.491 228.291 286.189 228.294 286.004 228.483C286.001 228.486 285.998 228.489 285.995 228.493L284.562 230.042C283.026 230.166 281.849 230.076 281.03 229.773C280.365 229.526 279.546 228.917 278.573 227.945L278.573 227.945C278.199 227.572 277.595 227.572 277.222 227.945C277.206 227.961 277.19 227.978 277.175 227.995Z" fill="#E4E4E4"/>
<path fill-rule="evenodd" clip-rule="evenodd" d="M280.5 218H294C303.748 204.996 322.527 153.822 327 129H298.935C283.998 146.943 289.791 204.781 280.5 218Z" fill="#5C63AB"/>
<path fill-rule="evenodd" clip-rule="evenodd" d="M287.383 121.828L297.208 123.597C287.678 142.111 282.566 151.924 281.87 153.037C280.306 155.541 281.884 160.053 282.479 162.433C279.017 163.303 280.298 158.049 275.918 159.219C271.92 160.286 268.56 162.903 264.757 159.52C264.289 159.104 263.929 157.785 265.487 157.077C269.367 155.315 275.089 152.042 276.004 150.794C277.252 149.092 281.045 139.437 287.383 121.828Z" fill="#B28B67"/>
<path fill-rule="evenodd" clip-rule="evenodd" d="M352.294 97.8146L369.877 90.894C373.023 87.9931 376.037 85.8126 378.919 84.3525C379.772 84.1168 381.216 84.0919 379.591 86.2782C377.966 88.4644 376.355 90.8371 376.939 91.6484C377.522 92.4596 379.335 91.6602 379.988 92.9678C380.423 93.8396 377.384 94.7434 370.871 95.6793L357.537 105.105L352.294 97.8146Z" fill="#B28B67"/>
<path fill-rule="evenodd" clip-rule="evenodd" d="M307.89 107.841L308.627 104.346C324.925 104.297 341.605 99.5357 358.667 90.0622L367.338 105.784C345.405 113.321 325.089 115.268 307.89 107.841Z" fill="#191847"/>
<path fill-rule="evenodd" clip-rule="evenodd" d="M295.498 130.4L331.72 136.775C326.929 114.91 325.793 96.8516 328.31 82.6006L317.671 79.0508C306.647 91.3393 301.22 107.903 295.498 130.4Z" fill="#DDE3E9"/>
<path fill-rule="evenodd" clip-rule="evenodd" d="M317.436 79.015C317.438 79.0127 317.44 79.0104 317.442 79.0081L318.155 79.1336C319.004 79.3132 320.294 79.5949 322.027 79.9787L323.335 87.9826C321.991 97.2237 320.35 116.035 318.411 144.417L294.668 140.238C294.39 142.173 294.15 144.133 293.947 146.118L276.292 143.01C284.192 113.704 297.904 92.3694 317.429 79.0058L317.436 79.015Z" fill="#2F3676"/>
<path fill-rule="evenodd" clip-rule="evenodd" d="M300.587 115.895C299.144 128.006 299.376 136.571 301.281 141.59L294.644 140.422C295.878 131.742 297.859 123.567 300.587 115.895L300.587 115.895Z" fill="black" fill-opacity="0.1"/>
<path fill-rule="evenodd" clip-rule="evenodd" d="M302.497 126.782L315.167 123.403L314.206 128.843L302.497 126.782Z" fill="white" fill-opacity="0.2"/>
<path fill-rule="evenodd" clip-rule="evenodd" d="M433.933 24.9347C435.951 22.2001 437.218 18.9332 436.721 15.4065C435.291 5.24523 421.233 8.4856 418.829 13.8328C416.424 19.18 417.667 32.2302 421.305 32.9014C422.756 33.1691 425.729 32.057 428.688 29.9785L427.708 43.8351L439.16 43.0343L433.933 24.9347Z" fill="#915B3C"/>
<path fill-rule="evenodd" clip-rule="evenodd" d="M441.476 11.6583C441.821 11.2659 441.986 10.7286 442.126 10.2196C442.271 9.69084 442.41 9.15715 442.493 8.61159C442.659 7.52154 442.575 6.28714 441.751 5.50731C441.09 4.88197 440.148 4.64665 439.293 4.64097C438.723 4.63714 438.147 4.75716 437.616 4.97366C437.09 5.18844 436.65 5.57388 436.143 5.82948C436.042 4.67431 435.76 3.47799 435.104 2.53148C434.473 1.6208 433.535 1.15054 432.5 1.08117C431.438 1.00998 430.416 1.32887 429.51 1.90416C429.283 2.04823 429.058 2.19822 428.845 2.36513C428.667 2.5049 428.483 2.67106 428.267 2.73794C428.026 2.81256 427.895 2.67961 427.723 2.51207C427.522 2.31564 427.299 2.14583 427.065 1.99782C426.031 1.34349 424.719 1.13643 423.61 1.64958C423.098 1.886 422.611 2.26085 422.288 2.75311C421.999 3.19191 421.819 3.86858 421.401 4.18947C421.224 4.32569 421.081 4.17164 420.903 4.06283C420.636 3.89934 420.379 3.71627 420.11 3.55794C419.731 3.33547 419.326 3.17754 418.9 3.10986C418.276 3.01076 417.431 3.10336 417.311 3.91957C417.266 4.22614 417.34 4.54557 417.382 4.84833C417.441 5.26407 417.5 5.67957 417.566 6.09419C417.615 6.40901 417.672 6.71249 417.753 7.01935C417.797 7.18292 417.918 7.48503 417.859 7.65604C417.784 7.86979 417.366 7.78048 417.191 7.79995C416.846 7.83844 416.503 7.92341 416.193 8.09364C415.953 8.22559 415.704 8.41238 415.62 8.70391C415.568 8.88299 415.597 9.06114 415.64 9.23863C415.691 9.45164 415.658 9.56889 415.646 9.7883C415.165 9.59194 413.519 9.1961 413.375 10.0432C413.327 10.3252 413.502 10.6278 413.636 10.8535C413.87 11.2494 414.166 11.6055 414.466 11.9438C415.093 12.6495 415.824 13.245 416.601 13.7436C415.763 14.1886 415.616 15.3387 416.413 15.9621C416.764 16.2373 417.213 16.2726 417.629 16.2244C417.781 16.2067 417.997 16.1327 418.119 16.1508C418.185 16.1606 418.258 16.2106 418.348 16.2104C418.939 16.2096 419.594 16.0213 420.16 15.8504C421.169 15.546 422.106 14.9924 422.847 14.1971C423.037 13.9931 423.197 13.8721 423.471 13.8558C423.711 13.8414 423.951 13.8907 424.191 13.88C424.826 13.8519 425.376 13.502 425.951 13.2545C426.042 14.0473 426.33 14.9074 426.705 15.6002C427.012 16.1651 427.572 16.2112 428.12 16.2243C429.872 16.2664 431.606 15.9614 433.35 15.8419C431.689 16.3413 429.956 16.6205 428.315 17.1862C427.573 17.4419 428.186 17.9111 428.534 18.2417C429.107 18.7861 429.553 19.4791 429.881 20.2191C430.631 19.0854 432.04 18.2744 433.356 18.5145C434.81 18.7798 435.951 20.641 435.135 22.0934C434.661 22.9365 433.725 23.3147 432.952 23.7167C433.619 24.3194 433.836 25.2633 434.267 26.0411C434.479 26.4246 434.769 26.8548 435.191 26.9641C435.348 27.0046 435.527 26.9964 435.656 27.1124C435.816 27.2561 435.864 27.4259 436.063 27.5449C436.861 28.0203 438.045 27.8966 438.671 27.1597C439.237 26.4933 439.009 25.5173 438.456 24.9204C439.242 24.5261 440.688 23.9886 440.278 22.749C442.025 22.5097 446.088 19.3646 443.586 17.449C444.828 16.6278 445.891 14.7589 444.951 13.2426C444.226 12.0751 442.701 11.6372 441.476 11.6583Z" fill="#191847"/>
<path fill-rule="evenodd" clip-rule="evenodd" d="M446.854 74L428.817 140.849L416.841 196.438L411.318 198L424.45 80.3336L446.854 74Z" fill="#784931"/>
<path fill-rule="evenodd" clip-rule="evenodd" d="M455.691 106.508L456.198 136.52L451.116 193.157L445.826 195.383L445.766 107.732L455.691 106.508Z" fill="#915B3C"/>
<path fill-rule="evenodd" clip-rule="evenodd" d="M420.427 191.903C420.963 193.332 421.23 194.401 421.23 195.11C421.23 195.973 421.086 197.231 420.799 198.886C419.798 198.886 410.806 198.886 393.821 198.886C393.12 196.568 393.524 195.317 395.035 195.132C396.545 194.947 397.8 194.781 398.799 194.632L411.338 189.042C411.58 188.934 411.862 189.042 411.97 189.284C411.972 189.288 411.974 189.292 411.975 189.296L412.781 191.251C414.18 191.904 415.316 192.23 416.19 192.23C416.9 192.23 417.881 191.943 419.133 191.369L419.133 191.369C419.613 191.149 420.181 191.36 420.401 191.84C420.411 191.861 420.419 191.882 420.427 191.903Z" fill="black"/>
<path fill-rule="evenodd" clip-rule="evenodd" d="M453.427 191.903C453.962 193.332 454.23 194.401 454.23 195.11C454.23 195.973 454.086 197.231 453.799 198.886C452.798 198.886 443.806 198.886 426.821 198.886C426.12 196.568 426.524 195.317 428.035 195.132C429.545 194.947 430.8 194.781 431.799 194.632L444.338 189.042C444.58 188.934 444.862 189.042 444.97 189.284C444.972 189.288 444.974 189.292 444.975 189.296L445.781 191.251C447.18 191.904 448.316 192.23 449.19 192.23C449.9 192.23 450.881 191.943 452.133 191.369L452.133 191.369C452.613 191.149 453.181 191.36 453.401 191.84C453.411 191.861 453.419 191.882 453.427 191.903Z" fill="black"/>
<path fill-rule="evenodd" clip-rule="evenodd" d="M422.583 181.551L411.029 181.073C412.104 165.825 413.875 148.892 416.341 130.277C418.808 111.661 421.931 93.5043 425.71 75.8076L455.98 68C452.398 90.0765 447.826 110.476 442.263 129.198C436.701 147.92 430.141 165.371 422.583 181.551Z" fill="#5C63AB"/>
<path fill-rule="evenodd" clip-rule="evenodd" d="M453.987 185H442.987C445.487 172.5 442.987 171.5 440.487 161.5C437.987 151.5 433.132 120.51 425.697 84.7121H455.506C460.217 114.026 453.586 127.972 461.487 131.5C453.586 145.972 456.487 170.5 453.987 185Z" fill="#8991DC"/>
<path fill-rule="evenodd" clip-rule="evenodd" d="M473.057 63.4128L465.026 66.3776C478.023 83.7864 484.961 92.9794 485.841 93.9567C487.819 96.1557 487.047 100.882 486.873 103.334C490.438 103.59 488.262 98.6294 492.784 99.021C496.912 99.3784 500.679 101.377 503.842 97.376C504.23 96.8842 504.356 95.5194 502.697 95.0924C498.565 94.0284 492.354 91.7942 491.235 90.7222C489.708 89.2603 483.649 80.1572 473.057 63.4128Z" fill="#915B3C"/>
<path fill-rule="evenodd" clip-rule="evenodd" d="M396.923 71.4125L383.843 85.0958C379.961 86.9141 376.797 88.8826 374.352 91.0014C373.81 91.7039 373.239 93.0334 375.882 92.3551C378.524 91.6768 381.334 91.0821 381.864 91.9306C382.395 92.7791 380.967 94.1575 381.931 95.2585C382.574 95.9925 384.564 93.5169 387.901 87.8316L401.692 79.0378L396.923 71.4125Z" fill="#915B3C"/>
<path fill-rule="evenodd" clip-rule="evenodd" d="M392.12 72.331C390.155 72.4469 388.081 73.0473 385.911 74.1102C384.844 74.6333 384.402 75.9227 384.925 76.9902C385.229 77.6102 385.791 78.019 386.418 78.1503C386.026 78.5242 385.326 79.6286 384.925 80L390.067 86.5581C405.075 76.4418 424.358 70.6227 429.5 56.5C431.226 51.7601 430 46.0116 429.5 40.5L426 36C420.849 51.5434 404.761 58.4873 392.12 72.331Z" fill="#69A1AC"/>
<path fill-rule="evenodd" clip-rule="evenodd" d="M458.14 84.7593C443.618 88.9975 431.961 91.0528 423.171 90.9254C422.082 90.9096 421.327 86.3598 421.597 85.0332C425.8 64.3758 428.311 49.3532 425.946 35.9368C427.47 36.4199 429.933 36.0984 433.333 34.9722C445.152 47.1442 452.261 62.2476 458.14 84.7593Z" fill="#191847"/>
<path fill-rule="evenodd" clip-rule="evenodd" d="M461.294 86.5578C461.714 85.996 461.851 85.2404 461.593 84.5322L461.103 83.1838C460.77 82.27 459.883 81.7183 458.96 81.7703C458.677 81.0915 458.417 80.4135 458.181 79.7365C456.192 74.0178 456.8 67.9596 455.724 62.3051C464.438 67.4321 473.201 77.3931 482.012 92.1881L490.447 88.0015C489.885 86.8002 489.314 85.6166 488.733 84.4505C489.657 83.6861 490.386 80.8008 489.443 80.5057C488.47 80.2008 487.468 80.0422 486.439 80.0262C473.949 56.8946 457.441 41.2778 436.914 33.1758L434.369 33.6245L431.557 34.1205C436.812 54.7011 423.055 104.082 437.478 141.64C452.011 142.297 470.259 129.062 491.058 133.397C487.574 117.863 469.847 102.017 461.294 86.5578L461.294 86.5578Z" fill="#89C5CC"/>
<path fill-rule="evenodd" clip-rule="evenodd" d="M435.051 33.9899L438.799 41.0349L434.893 47.5004L440.093 51.1233L432.623 71.3316L442.484 50.7393L437.357 47.066L440.828 41.3489L435.051 33.9899Z" fill="black" fill-opacity="0.1"/>
<path fill-rule="evenodd" clip-rule="evenodd" d="M437.007 77.844C438.048 77.6606 438.742 76.6682 438.559 75.6276C438.375 74.587 437.383 73.8921 436.343 74.0756C435.302 74.2591 434.607 75.2514 434.791 76.2921C434.974 77.3327 435.966 78.0275 437.007 77.844ZM436.562 89.0937C437.603 88.9102 438.298 87.9178 438.114 86.8772C437.931 85.8366 436.938 85.1417 435.898 85.3252C434.857 85.5087 434.162 86.501 434.346 87.5417C434.529 88.5823 435.521 89.2772 436.562 89.0937ZM438.001 100.011C439.042 99.8275 439.737 98.8352 439.553 97.7946C439.37 96.7539 438.378 96.0591 437.337 96.2426C436.296 96.4261 435.601 97.4184 435.785 98.459C435.968 99.4997 436.961 100.195 438.001 100.011Z" fill="black" fill-opacity="0.4"/>
</svg>
