<svg width="402" height="370" viewBox="0 0 402 370" fill="none" xmlns="http://www.w3.org/2000/svg">
<g clip-path="url(#clip0_389_3247)">
<g opacity="0.504511">
<path fill-rule="evenodd" clip-rule="evenodd" d="M372.209 267.051C377.201 304.453 256.131 328.85 151.923 311.824C47.7154 294.798 -0.0901978 228.311 49.636 192.884C99.3622 157.457 367.216 229.648 372.209 267.051Z" fill="#333333"/>
</g>
<path fill-rule="evenodd" clip-rule="evenodd" d="M225.012 94.2096C222.341 92.8833 218.781 94.4215 220.266 97.9277C221.857 101.682 227.739 101.729 231.06 101.654C230.728 101.637 229.657 98.1938 229.291 97.6736C228.21 96.1388 226.653 95.0265 225.012 94.2096ZM255.78 161.526C256.454 162.103 255.835 161.58 255.78 161.526V161.526ZM222.439 111.192C220.877 112.388 220.802 114.501 222.079 115.931C223.599 117.633 226.374 117.571 228.446 117.405C229.383 117.33 234.388 116.929 233.201 116.109C233.293 116.143 233.483 116.227 233.687 116.341C233.797 116.742 233.912 117.143 234.032 117.541C234.003 117.558 233.978 117.577 233.946 117.594C233.98 117.579 234.004 117.563 234.034 117.548C235.238 121.53 236.951 125.322 239.194 128.87C238.354 128.539 237.485 128.288 236.604 128.177C233.993 127.846 228.501 129.878 231.421 133.36C234.221 136.697 238.581 133.116 241.758 132.623C244.841 136.932 248.239 141.061 251.801 145.053C251.583 145.121 251.391 145.264 251.282 145.486C249.853 144.76 248.364 143.721 247.041 143.44C245.133 143.035 241.22 142.789 239.778 144.5C238.004 146.603 239.906 148.312 242.002 148.715C245.04 149.3 249.018 147.813 251.943 146.809C252.277 146.868 252.642 146.77 252.86 146.502C252.925 146.481 252.99 146.46 253.052 146.439C256.659 150.411 260.404 154.252 264.126 158.009C264.086 158.007 264.047 158.005 264.005 158.002C263.035 157.365 261.993 156.841 260.864 156.567C258.253 155.93 255.181 155.927 253.061 157.819C250.951 159.703 250.203 162.999 252.387 165.115C256.758 169.35 263.198 159.693 265.403 159.29C269.185 163.068 273.185 166.597 277.247 170.055C276.786 169.915 276.313 169.811 275.824 169.765C271.84 169.383 262.49 174.274 267.379 179.087C271.639 183.281 276.57 175.209 280.003 172.386C283.831 175.609 287.68 178.81 291.421 182.136C289.38 181.594 287.409 181.514 285.222 182.176C282.958 182.862 279.307 184.573 280.737 187.634C282.192 190.746 286.578 189.33 288.862 188.342C290.107 187.803 292.605 185.984 294.798 185.218C300.767 190.862 305.938 197.08 309.852 204.404C312.296 208.977 314.15 213.862 315.456 218.884C316.289 222.089 317.93 227.472 317.602 231.643C319.168 223.293 316.336 213.265 313.285 205.801C310.479 198.938 306.28 192.913 301.363 187.49C302.597 183.772 312.984 178.41 306.774 174.956C303.477 173.129 300.099 176.16 299.379 179.369C298.883 181.575 299.638 184.346 300.438 186.487C298.891 184.834 297.283 183.234 295.626 181.687C293.335 179.549 290.99 177.473 288.623 175.423C292.524 171.752 296.216 161.257 290.985 159.541C283.261 157.013 286.98 171.329 287.519 174.012C287.672 174.021 287.791 173.974 287.879 173.875C287.836 174.121 287.785 174.384 287.724 174.649C283.193 170.746 278.594 166.92 274.147 162.924C274.547 162.627 275.184 161.494 275.685 160.891C276.815 159.531 277.896 158.11 278.686 156.519C279.934 154.005 281.137 149.995 277.829 148.516C274.232 146.905 272.522 151.441 272.497 154.146C272.48 156.018 272.989 157.795 273.254 159.629C273.337 160.201 273.018 162.78 273.796 161.671C273.759 162.08 273.754 162.376 273.772 162.586C272.973 161.865 272.181 161.136 271.394 160.402C271.43 160.309 271.457 160.208 271.464 160.091C271.506 159.285 270.695 158.974 270.127 159.21C269.088 158.221 268.06 157.22 267.049 156.199C264.908 154.036 262.736 151.811 260.579 149.538C261.047 149.136 260.861 148.578 261.298 148.15C261.735 147.724 262.596 147.488 263.11 147.092C264.402 146.095 265.474 144.642 266.249 143.212C267.529 140.849 269.183 135.893 265.444 134.767C261.591 133.605 259.635 138.376 259.387 141.358C259.339 141.936 259.771 147.143 260.102 149.033C256.11 144.81 252.184 140.428 248.627 135.971C249.706 135.961 252.763 133.747 253.381 133.144C254.89 131.671 257.287 128.416 254.643 126.693C252.292 125.166 249.394 127.378 248.388 129.529C248.223 129.883 247.64 133.179 247.595 134.657C246.123 132.767 244.719 130.865 243.412 128.958C242.541 127.69 241.726 126.388 240.965 125.058C241.148 124.954 241.32 124.773 241.483 124.547C245.405 123.88 250.404 117.752 245.798 115.62C243.605 114.607 241.227 116.699 240.153 118.413C239.933 118.763 239.576 120.525 239.286 121.915C237.094 117.511 235.42 112.848 234.145 108.068C234.486 107.983 234.775 107.722 234.813 107.272C236.717 106.185 238.22 105.28 239.549 103.19C240.375 101.891 241.862 98.9249 239.436 98.2042C236.279 97.2665 234.296 102.096 234.038 104.475C234.008 104.751 234.009 105.554 234.019 106.29C233.909 106.275 233.799 106.277 233.69 106.296C232.965 103.336 232.386 100.338 231.926 97.3342C233.649 96.7787 233.947 87.7148 232.8 86.4242C230.235 83.5343 228.426 87.7088 228.563 89.9151C228.725 92.5165 229.902 94.883 231.303 96.9831C231.453 97.2055 231.411 97.1947 231.45 96.8849C231.471 97.0381 231.522 97.1511 231.598 97.2329C231.526 98.6023 231.385 100.004 231.452 101.216C231.647 104.686 232.05 108.176 232.636 111.602C232.779 112.435 232.942 113.261 233.125 114.08C231.74 112.898 229.873 111.848 229.142 111.52C227.245 110.669 224.323 109.75 222.439 111.192ZM317.824 231.655C317.736 232.865 317.518 233.973 317.111 234.887C317.416 233.847 317.651 232.765 317.824 231.655Z" fill="#0B2538"/>
<path opacity="0.2" fill-rule="evenodd" clip-rule="evenodd" d="M126.15 21.4631C128.057 20.5158 130.6 21.6145 129.539 24.1189C128.403 26.8008 124.202 26.8339 121.829 26.7808C122.067 26.7683 122.832 24.309 123.093 23.9374C123.865 22.8411 124.977 22.0466 126.15 21.4631ZM104.187 70.3288C104.132 70.3829 103.513 70.9058 104.187 70.3288ZM128.367 33.9147C129.507 34.7793 129.561 36.3068 128.628 37.3413C127.518 38.5728 125.491 38.529 123.979 38.4098C123.294 38.3558 119.641 38.0675 120.507 37.4739C120.44 37.4989 120.301 37.5596 120.152 37.642C120.072 37.9324 119.988 38.2219 119.9 38.5101C119.921 38.5225 119.94 38.5359 119.963 38.5483C119.938 38.5375 119.92 38.5258 119.898 38.5148C119.018 41.395 117.766 44.1376 116.127 46.7036C116.74 46.464 117.375 46.2825 118.018 46.2015C119.925 45.9614 123.934 47.4288 121.801 49.9474C119.755 52.3619 116.573 49.7743 114.253 49.4184C112.001 52.5353 109.518 55.5226 106.916 58.4101C107.075 58.4596 107.215 58.5626 107.295 58.7232C108.339 58.1976 109.426 57.446 110.392 57.2422C111.785 56.9485 114.642 56.7694 115.695 58.0059C116.989 59.5263 115.6 60.7626 114.07 61.0551C111.851 61.4793 108.947 60.4054 106.812 59.6799C106.568 59.7229 106.301 59.6522 106.142 59.4585C106.095 59.4432 106.048 59.4281 106.002 59.4135C103.367 62.2869 100.631 65.0657 97.9124 67.7835C97.9413 67.782 97.9702 67.7802 98.0004 67.7786C98.7095 67.3171 99.4701 66.9383 100.294 66.7397C102.201 66.2777 104.444 66.2743 105.991 67.642C107.532 69.0038 108.076 71.3866 106.481 72.9174C103.288 75.9817 98.5893 69.001 96.9796 68.7103C94.2165 71.4433 91.2951 73.9969 88.3277 76.499C88.6646 76.3971 89.0101 76.3222 89.3671 76.2884C92.2758 76.0107 99.1008 79.5443 95.5296 83.0261C92.4175 86.0602 88.8203 80.2252 86.3146 78.1852C83.5184 80.5173 80.707 82.8335 77.9745 85.2398C79.4643 84.8467 80.904 84.7882 82.5007 85.266C84.1528 85.7612 86.8186 86.9975 85.7729 89.2111C84.7093 91.4622 81.508 90.4397 79.8406 89.726C78.9313 89.3368 77.1083 88.0225 75.5074 87.4693C71.1469 91.5532 67.3694 96.0508 64.5087 101.348C62.7227 104.656 61.3669 108.189 60.412 111.821C59.8025 114.139 58.6019 118.032 58.8403 121.048C57.6997 115.011 59.7714 107.758 62.002 102.36C64.053 97.3964 67.1208 93.0382 70.7136 89.1149C69.8139 86.427 62.2313 82.5533 66.7667 80.0533C69.1751 78.7314 71.6401 80.9215 72.1652 83.2421C72.5259 84.8368 71.9741 86.8409 71.3888 88.3891C72.519 87.1932 73.6938 86.0356 74.9044 84.9164C76.5774 83.3696 78.2905 81.8677 80.0199 80.3846C77.1727 77.7315 74.4806 70.144 78.3007 68.9009C83.9416 67.0705 81.2207 77.4234 80.8262 79.3637C80.7145 79.3703 80.6275 79.3368 80.5634 79.2651C80.5951 79.4428 80.6318 79.6328 80.6763 79.8243C83.9863 77.0006 87.3454 74.2324 90.5939 71.3412C90.3015 71.1269 89.8368 70.3076 89.4716 69.8715C88.6472 68.8886 87.8584 67.8617 87.2822 66.7116C86.372 64.8941 85.4947 61.9948 87.9106 60.9243C90.5379 59.7579 91.7844 63.037 91.8017 64.9934C91.8135 66.3466 91.4414 67.6322 91.2472 68.9586C91.1865 69.3723 91.4185 71.2367 90.8508 70.4349C90.8774 70.7306 90.8812 70.9448 90.8678 71.0967C91.451 70.575 92.0298 70.0477 92.6048 69.5166C92.5782 69.4496 92.5585 69.3766 92.5541 69.2918C92.5236 68.7086 93.1154 68.4836 93.5303 68.6542C94.2891 67.9389 95.0405 67.2145 95.7785 66.4758C97.3427 64.9108 98.9296 63.3011 100.506 61.6572C100.164 61.3661 100.3 60.9628 99.9806 60.6538C99.6617 60.3455 99.0334 60.1752 98.6583 59.8888C97.715 59.1683 96.933 58.1181 96.3676 57.0845C95.4341 55.3767 94.2284 51.7936 96.9584 50.978C99.7723 50.136 101.199 53.585 101.378 55.7416C101.413 56.1594 101.096 59.9244 100.854 61.2916C103.77 58.2364 106.638 55.0666 109.237 51.8419C108.449 51.835 106.218 50.2359 105.767 49.7994C104.666 48.7348 102.917 46.3822 104.848 45.1358C106.565 44.0303 108.68 45.6292 109.413 47.1838C109.534 47.4397 109.958 49.8227 109.991 50.8919C111.066 49.5244 112.093 48.1489 113.047 46.769C113.684 45.8516 114.279 44.91 114.836 43.9484C114.702 43.8731 114.576 43.7419 114.457 43.5787C111.594 43.0982 107.946 38.669 111.31 37.1256C112.911 36.3917 114.647 37.904 115.431 39.1426C115.591 39.3959 115.851 40.6701 116.062 41.6751C117.664 38.4896 118.889 35.1174 119.821 31.66C119.572 31.5987 119.361 31.41 119.333 31.0852C117.944 30.2998 116.846 29.6458 115.877 28.1348C115.275 27.1962 114.19 25.0517 115.962 24.5297C118.267 23.8505 119.713 27.3421 119.901 29.0622C119.923 29.2618 119.922 29.8425 119.914 30.3747C119.994 30.3639 120.075 30.365 120.154 30.3789C120.684 28.2381 121.108 26.0697 121.445 23.8978C120.187 23.4968 119.973 16.9428 120.811 16.0091C122.685 13.9186 124.004 16.9364 123.903 18.5318C123.784 20.413 122.924 22.1246 121.9 23.6437C121.79 23.8046 121.822 23.7968 121.793 23.5728C121.778 23.6835 121.74 23.7652 121.685 23.8245C121.737 24.8146 121.839 25.8283 121.79 26.7045C121.647 29.2138 121.351 31.7378 120.922 34.2149C120.817 34.8173 120.698 35.4149 120.564 36.0073C121.575 35.1522 122.939 34.3923 123.473 34.1546C124.858 33.5382 126.992 32.8725 128.367 33.9147ZM58.6138 120.81C58.6806 121.616 58.8791 122.352 59.27 122.955C58.9831 122.266 58.7679 121.548 58.6138 120.81Z" fill="#147BE5"/>
<g opacity="0.7">
<path fill-rule="evenodd" clip-rule="evenodd" d="M276.957 176.169C284.374 175.784 293.546 180.12 294.337 188.194C294.912 194.061 294.734 199.912 295.624 205.77C296.335 210.452 297.839 214.946 299.891 219.211C301.864 223.312 305.956 226.803 307.021 231.184C307.699 233.976 307.319 237.903 306.384 240.633C305.246 243.954 305.851 243.691 308.118 246.477C312.56 251.936 316.56 257.534 319.389 264.055C323.463 273.446 326.135 284.424 324.623 294.704C324.43 296.009 324.202 300.694 322.407 301.022C320.403 301.388 321.34 298.708 321.447 297.843C322.129 292.321 322.735 287.494 321.912 281.885C318.738 260.245 303.239 245.987 293.147 227.621C292.592 226.674 291.421 224.419 290.606 222.931C289.321 220.582 288.028 216.112 286.288 214.37C283.01 211.089 286.023 217.685 286.662 218.945C287.47 220.538 288.358 222.231 289.186 223.627C292.972 230.097 297.198 237.16 301.109 243.83C284.196 247.69 272.285 227.324 267.746 213.935C264.007 202.904 259.532 177.113 276.957 176.169Z" fill="#69A1AC"/>
<path fill-rule="evenodd" clip-rule="evenodd" d="M376.362 155.684C363.964 156.669 356.004 164.863 352.299 176.324C350.302 182.501 350.073 188.846 348.963 195.193C347.294 204.743 343.702 211.98 336.683 218.784C334.508 220.891 332.906 223.054 331.767 225.369C329.506 227.68 327.538 230.295 326.092 233.492C324.245 237.575 323.722 242.474 325.855 246.545C326.428 247.639 327.859 249.836 329.341 250.834C323.791 262.674 320.739 275.641 321.083 288.592C321.291 296.41 321.672 304.231 322.116 312.039C322.236 314.136 322.918 317.598 323.942 314.082C324.879 310.865 323.704 305.817 323.595 302.457C323.066 286.089 322.614 271.207 329.34 255.915C330.046 254.313 330.794 252.723 331.573 251.146C331.618 251.119 331.661 251.087 331.704 251.056C331.733 251.079 331.76 251.103 331.79 251.126C331.84 251.037 331.908 250.931 331.987 250.813C332.211 250.582 332.406 250.29 332.591 249.965C333.188 249.137 333.863 248.164 333.867 247.631C333.867 247.627 333.865 247.62 333.865 247.616C338.029 240.808 342.799 234.374 347.671 228.067C347.634 228.112 352.955 220.856 352.132 224.869C351.736 226.803 347.822 230.486 346.241 232.534C342.744 237.091 338.638 242.866 335.226 248.449C334.766 248.714 334.118 250.011 333.649 250.978C333.389 251.468 333.148 251.961 332.91 252.392C345.001 256.393 354.406 248.333 360.82 238.959C360.828 238.948 360.835 238.936 360.842 238.925C362.794 236.335 364.793 233.763 367.29 231.716C371.457 228.299 375.92 227.696 380.833 226.014C394.232 221.429 399.928 204.037 401.737 191.132C403.779 176.573 393.794 154.248 376.362 155.684Z" fill="#89C5CC"/>
<path fill-rule="evenodd" clip-rule="evenodd" d="M351.871 114.912C339.146 128.177 332.999 146.576 328.131 163.873C322.694 183.191 319.103 202.808 318.965 222.894C318.875 236.09 318.516 249.368 319.285 262.549C319.558 267.231 320.024 271.92 320.765 276.551C320.826 276.931 322.483 287.271 324.069 284.862C324.971 283.492 322.37 274.136 322.173 272.577C321.068 263.8 320.811 254.959 320.865 246.118C320.954 231.563 320.525 217.082 321.998 202.58C322.218 200.415 322.391 198.141 322.905 196.023C323.45 193.771 322.756 194.754 324.532 193.862C326.257 192.996 328.389 193.119 330.18 192.032C337.281 187.719 340.914 176.64 343.742 169.37C346.976 161.058 348.941 152.193 350.511 143.445C351.663 137.017 352.488 130.629 352.954 124.119C353.101 122.067 353.11 119.921 353.512 117.904C353.621 117.36 354.165 116.397 354.145 115.915C354.103 114.895 353.489 114.295 353.438 113.438C352.906 113.918 352.383 114.41 351.871 114.912Z" fill="#89C5CC"/>
<path fill-rule="evenodd" clip-rule="evenodd" d="M282.487 291.647C282.487 313.584 300.241 331.368 322.143 331.368C344.045 331.368 361.8 313.584 361.8 291.647" fill="#89C5CC"/>
<path fill-rule="evenodd" clip-rule="evenodd" d="M325.325 291.774H323.23C323.375 289.14 323.567 286.512 324.007 283.908C325.688 273.949 330.944 259.322 342.472 257.705C342.897 257.645 344.461 257.635 346.356 257.746C347.254 257.244 348.26 256.94 349.32 256.87C359.135 256.145 370.096 264.076 374.83 272.329C378.647 278.983 378.004 287.721 375.647 294.791C374.068 299.524 370.623 306.272 364.877 306.338C357.689 306.42 357.343 297.522 357.204 292.32C357.019 285.404 356.146 279.379 350.706 274.665C349.437 273.567 348.051 272.6 346.771 271.517C344.765 269.822 342.548 268.087 342.29 265.283C341.933 261.414 344.114 260.717 347.443 261.436C348.01 261.559 353.727 264.128 352.88 262.097C352.622 261.477 351.678 260.985 350.487 260.617C347.404 260.281 343.728 259.891 342.671 260.124C331.265 262.63 326.825 278.455 325.645 288.509C325.518 289.594 325.415 290.683 325.325 291.774V291.774Z" fill="#69A1AC"/>
</g>
<g opacity="0.5">
<path fill-rule="evenodd" clip-rule="evenodd" d="M108.77 103.624C111.053 100.364 115.289 92.0837 118.502 90.9186C120.572 90.1682 119.968 97.9304 119.994 99.4105C120.093 105.137 119.537 110.826 118.85 116.505C117.611 126.745 113.562 135.865 108.009 144.58C105.151 149.065 101.799 153.604 97.1566 156.402C95.0197 157.691 92.4483 157.907 90.338 159.017C87.8801 160.31 89.2187 159.265 88.111 161.83C86.5728 165.392 86.0808 169.987 85.369 173.787C82.1012 191.233 74.1898 283.455 75.5614 301.201C75.6832 302.774 73.4935 303.15 73.3842 301.23C72.8032 291.048 77.8307 220.543 80.3672 197.486C82.9037 174.428 85.4704 154.059 88.0442 146.081C91.1665 136.404 96.8055 124.765 101.5 115.74C103.68 111.547 106.057 107.499 108.77 103.624Z" fill="#69A1AC"/>
<path fill-rule="evenodd" clip-rule="evenodd" d="M125.714 216.71C131.655 212.342 138.085 220.586 132.709 224.955C129.737 227.37 126.631 226.511 124.882 224.498C123.746 225.884 122.684 227.334 121.663 228.558C118.552 232.288 115.611 236.108 112.801 240.017C106.964 248.137 101.961 256.715 96.7301 265.137C91.568 273.449 86.4473 281.803 81.7685 290.325C77.8049 297.546 72.5219 306.04 71.1649 313.956C73.2238 297.168 81.0366 281.032 90.3403 266.232C99.5682 251.553 110.158 235.523 124.447 223.939C122.993 221.797 122.952 218.74 125.714 216.71Z" fill="#C1DEE2"/>
<path fill-rule="evenodd" clip-rule="evenodd" d="M12.9907 175.767C16.3149 176.418 21.7467 183.95 24.4869 186.82C27.7434 190.23 30.6978 193.865 33.4827 197.673C39.4781 205.871 44.8399 214.587 49.3992 223.676C56.8322 238.493 62.7869 253.703 67.1085 269.838C69.754 279.714 71.4668 289.951 72.4819 300.116C72.6736 302.033 74.6803 316.814 71.7887 317.212C69.188 317.571 69.9913 305.989 69.8658 304.414C68.4476 286.64 64.199 269.346 58.2892 252.594C57.002 248.944 55.8061 244.474 53.7475 241.19C52.265 238.825 53.7368 239.65 51.1316 238.754C48.8946 237.985 46.3458 238.173 44.055 237.232C39.0785 235.188 35.0938 231.219 31.6009 227.228C24.813 219.471 19.434 211.078 16.6301 201.139C15.0747 195.627 13.6454 190.084 12.8522 184.402C12.647 182.934 10.8496 175.347 12.9907 175.767Z" fill="#69A1AC"/>
<path fill-rule="evenodd" clip-rule="evenodd" d="M26.109 50.4484C38.6307 72.1992 48.9206 96.0918 55.5648 120.291C59.5904 134.954 62.4056 149.999 65.2028 164.936C69.5337 188.065 73.6302 211.191 74.7954 234.73C75.9678 258.405 78.286 285.712 70.546 308.515C74.4122 285.363 70.7313 260.721 70.0796 237.426C69.7682 226.305 68.8657 215.293 67.6817 204.237C66.5329 193.513 64.6559 182.839 62.9081 172.199C62.0567 167.017 61.1625 161.843 60.2521 156.671C59.9803 155.128 59.8655 150.55 58.8884 149.496C57.9049 148.435 52.8871 148.003 51.3117 147.224C48.1395 145.656 45.1556 143.429 42.5147 141.076C37.4522 136.565 33.048 130.67 29.5719 124.86C21.5291 111.416 18.3136 95.0084 18.4761 79.438C18.5073 76.4149 23.3613 43.8613 21.4119 43.413C21.5293 43.2753 21.6403 43.1332 21.745 42.9853C23.2209 45.4604 24.6691 47.9522 26.109 50.4484Z" fill="#89C5CC"/>
<path fill-rule="evenodd" clip-rule="evenodd" d="M161.26 128.895C161.453 128.615 162.71 126.674 162.077 126.798C163.366 126.546 160.304 128.939 163.516 127.471C161.991 128.913 162.871 130.788 162.892 132.73C162.925 135.882 162.398 139.009 161.805 142.094C160.869 146.971 159.473 151.713 157.447 156.248C153.032 166.133 145.536 175.649 136.636 181.829C132.242 184.88 127.936 185.919 122.925 187.323C119.76 188.211 119.509 189.851 117.829 192.927C114.331 199.335 110.895 205.719 107.811 212.343C104.127 220.252 100.551 228.17 97.1786 236.219C85.8158 263.33 76.5676 291.417 71.7107 320.485C71.5918 303.356 75.5481 285.714 80.5386 269.386C84.1738 257.49 88.9063 246.023 93.9539 234.672C95.177 231.922 97.0306 228.385 97.55 225.349C97.9137 223.222 96.8017 221.176 96.2926 218.935C94.3078 210.209 94.4499 200.433 96.1928 191.66C98.1146 181.986 103.672 177.496 113.073 176.126C116.512 175.625 120.882 175.808 124.034 174.34C127.469 172.741 128.886 167.485 130.839 164.111C136.086 155.048 142.319 146.356 149.476 138.72C151.458 136.605 153.589 134.655 155.85 132.846C157.276 131.706 160.288 130.3 161.26 128.895Z" fill="#89C5CC"/>
<path fill-rule="evenodd" clip-rule="evenodd" d="M55.8408 301.985H89.2052C90.7053 301.985 91.9214 303.203 91.9214 304.706C91.9214 304.839 91.9117 304.971 91.8923 305.103L89.3136 322.617C88.5275 327.956 83.9532 331.912 78.565 331.912H66.481C61.0927 331.912 56.5185 327.956 55.7324 322.617L53.1536 305.103C52.9348 303.616 53.9604 302.234 55.4445 302.014C55.5757 301.995 55.7081 301.985 55.8408 301.985Z" fill="#C1DEE2"/>
</g>
<path fill-rule="evenodd" clip-rule="evenodd" d="M25.7594 310.939C25.7594 322.522 26.672 331.912 38.921 331.912C51.17 331.912 52.0826 322.522 52.0826 310.939" fill="#0B2538"/>
<path fill-rule="evenodd" clip-rule="evenodd" d="M42.565 303.712C42.116 304.49 41.7156 305.283 41.362 306.088C41.3495 304.43 41.4411 302.76 41.691 301.067C42.1182 298.167 42.7707 295.283 43.3839 292.402C43.8246 290.333 43.7967 286.615 45.4692 284.966C45.9278 284.609 46.0382 285.308 46.0382 285.612C46.0439 285.676 46.0369 284.373 45.5917 284.6C42.9458 285.969 42.0885 290.273 41.2414 292.427C40.0054 295.573 38.9539 298.788 38.5209 302.06C38.4114 302.887 38.3519 303.713 38.3381 304.538C38.2482 304.318 38.1637 304.095 38.0703 303.875C36.5431 300.288 34.4822 296.787 31.9118 293.559C31.2791 292.765 23.3237 284.927 22.7009 286.127C22.7624 286.301 22.891 286.445 23.0872 286.56C23.0987 286.573 23.099 286.566 23.0923 286.547C23.5596 287.303 24.888 288.47 25.3018 289.133C26.3431 290.799 27.1524 292.568 27.9749 294.304C29.7126 297.971 31.3245 301.674 32.8872 305.386C33.2511 306.251 33.6303 307.11 34.0172 307.967C30.0288 302.205 24.7081 296.974 17.3838 293.98C19.8854 295.254 21.5255 297.653 23.2149 299.489C25.2525 301.704 27.3985 303.859 29.4399 306.072C31.8478 308.681 34.6809 311.43 36.9969 314.318C39.2403 319.036 41.4203 323.758 42.7659 328.717C42.2145 327.004 42.7227 324.636 42.6283 322.838C42.5534 321.407 42.3864 319.987 42.1576 318.57C42.4405 319.209 42.6843 319.849 42.7947 320.444C42.6939 319.446 42.5778 318.455 42.453 317.468C42.7733 316.545 43.0879 315.683 43.3004 314.973C44.3894 311.333 45.6861 307.754 47.452 304.267C49.086 301.04 50.9604 297.855 53.0028 294.767C53.9555 293.328 54.9213 291.893 55.881 290.457C56.5092 289.516 57.1074 288.01 57.982 287.109C52.3285 292.286 46.1518 297.5 42.565 303.712Z" fill="#0B2538"/>
<path fill-rule="evenodd" clip-rule="evenodd" d="M390.598 63.2302C388.978 57.8155 385.172 53.5776 381.222 49.6946C373.533 42.1352 369.397 37.4613 366.656 26.4034C365.045 19.9 363.404 13.0083 358.292 8.28998C354.57 4.854 348.164 1.96717 343.186 4.4276C335.528 9.0058 333.472 18.401 334.244 26.8139C335.201 37.241 340.064 43.6704 349.406 47.511C354.67 49.674 358.169 52.5281 361.026 57.5013C363.312 61.478 364.645 66.4577 367.517 70.0627C371.811 75.4518 377.184 77.8474 383.808 76.9522C377.604 65.5195 370.356 53.9794 361.613 44.3536C360.795 43.3858 355.968 39.6818 356.941 38.0325C358.014 36.2166 362.969 43.0381 362.934 42.9969C365.474 45.918 367.825 49.0221 370.134 52.156C370.128 52.1591 370.121 52.1607 370.115 52.164C372.492 55.3798 374.85 58.643 377.163 61.9471C378.099 63.3447 379.009 64.7602 379.881 66.2112C381.16 68.3403 383.19 74.3832 385.283 75.6924C385.731 75.9723 386.145 76.1287 386.532 76.1933C387.96 78.5354 389.349 80.8962 390.671 83.285C394.122 89.5238 397.085 96.1111 398.444 103.155C398.841 105.211 398.56 112.901 399.961 114.385C402.523 117.1 401.772 111.872 401.619 110.294C400.347 97.2281 395.664 86.0964 388.864 75.1117C390.953 72.3791 391.254 65.4241 390.598 63.2302Z" fill="#0B2538"/>
<path fill-rule="evenodd" clip-rule="evenodd" d="M305.917 39.3829H307.195C307.105 37.759 306.989 36.1376 306.715 34.5319C305.688 28.5127 302.477 19.6722 295.434 18.6953C295.174 18.6589 294.218 18.6527 293.06 18.72C292.512 18.4162 291.897 18.2325 291.249 18.1902C285.253 17.7522 278.556 22.5456 275.664 27.5338C273.332 31.5556 273.725 36.8368 275.165 41.1096C276.13 43.9702 278.235 48.0487 281.745 48.0885C286.136 48.1382 286.348 42.7601 286.433 39.616C286.546 35.436 287.079 31.7947 290.403 28.9455C291.178 28.2818 292.025 27.6978 292.807 27.0433C294.033 26.0188 295.387 24.9698 295.545 23.2749C295.762 20.9366 294.43 20.5158 292.396 20.9502C292.05 21.0241 288.557 22.577 289.074 21.3496C289.232 20.9747 289.809 20.6775 290.537 20.4549C292.42 20.252 294.666 20.0166 295.312 20.1572C302.28 21.672 304.993 31.2363 305.714 37.3129C305.795 38.001 305.86 38.6915 305.917 39.3829H305.917Z" fill="#0B2538"/>
<g clip-path="url(#clip1_389_3247)">
<path fill-rule="evenodd" clip-rule="evenodd" d="M303.359 113.468C306.887 111.062 309.735 107.721 310.586 103.353C313.036 90.7687 294.936 88.8552 289.879 94.1884C284.821 99.5215 280.964 115.441 285.031 117.72C286.652 118.628 290.655 118.529 295.037 117.283L288.198 133.247L302.191 136.978L303.359 113.468Z" fill="#784931"/>
<path fill-rule="evenodd" clip-rule="evenodd" d="M297.222 88.8826C299.29 88.8159 302.12 89.361 303.253 89.8051C303.012 88.0525 303.221 86.2272 303.895 84.5757C304.551 82.9711 305.682 81.7573 306.774 80.4609C307.278 79.8633 307.823 79.2808 308.503 78.9026C309.197 78.5172 309.988 78.3518 310.764 78.3791C311.557 78.407 312.335 78.6298 313.042 78.9852C313.355 79.1424 313.611 79.3714 313.914 79.5414C314.223 79.7154 314.44 79.5525 314.737 79.4099C315.453 79.0664 316.373 79.0477 317.132 79.156C317.985 79.2775 318.809 79.6293 319.524 80.108C320.22 80.574 320.842 81.195 321.23 81.9614C321.403 82.3026 321.543 82.6757 321.595 83.0605C321.616 83.2185 321.604 83.3052 321.733 83.3954C321.852 83.4789 322.007 83.5216 322.131 83.6039C323.334 84.3995 324.192 85.7113 324.458 87.1728C324.614 88.0254 324.425 89.4033 323.977 90.8844C323.528 92.3656 321.116 95.899 319.458 96.9804C317.979 97.9456 316.081 98.3366 314.368 98.2725C315.113 99.77 315.419 101.474 315.532 103.155C315.655 104.981 315.542 106.813 315.196 108.619C314.867 110.335 314.4 112.117 313.558 113.658C312.771 115.098 311.633 116.148 310.086 116.595C309.377 116.799 308.647 116.9 307.919 116.976C307.201 117.051 306.484 117.118 305.765 117.076C304.404 116.995 302.931 116.554 302.21 115.273C301.951 114.812 301.681 114.246 301.54 113.73C301.489 113.544 301.461 113.423 301.618 113.297C301.805 113.145 302.065 113.06 302.28 112.959C303.508 112.386 304.429 111.431 304.944 110.14C305.466 108.83 305.569 106.988 304.399 106.043C302.955 104.878 300.924 105.232 299.257 105.622C299.22 103.294 298.472 101.007 296.745 99.4829C294.834 97.7967 292.337 96.9929 290.323 95.4463C289.798 95.0433 289.272 94.6042 288.971 93.9881C288.846 93.7307 288.705 93.4027 288.707 93.1069C288.71 92.7184 289.028 92.4772 289.287 92.2429C290.661 91.0007 295.153 88.9494 297.222 88.8826Z" fill="#191847"/>
<path fill-rule="evenodd" clip-rule="evenodd" d="M299.025 185.617L277.116 261.981L261.13 318.265H249.471L266.458 185.617H299.025Z" fill="#191847"/>
<path fill-rule="evenodd" clip-rule="evenodd" d="M304.885 185.617C305.391 224.976 307.12 246.444 307.652 250.02C308.184 253.595 316.229 276.344 331.788 318.265H319.71C299.902 278.049 288.845 255.3 286.539 250.02C284.232 244.739 277.113 223.271 266.392 185.617H304.885Z" fill="#2F3676"/>
<path fill-rule="evenodd" clip-rule="evenodd" d="M332.868 329.162L332.263 316.509H319.572C313.555 320.727 305.699 324.141 296.004 326.752V329.162H318.968L326.824 327.957V329.162H332.868Z" fill="#191847"/>
<path fill-rule="evenodd" clip-rule="evenodd" d="M262.766 329.162L262.162 316.509H249.471C243.453 320.727 235.597 324.141 225.902 326.752V329.162H248.866L256.723 327.957V329.162H262.766Z" fill="#191847"/>
<path fill-rule="evenodd" clip-rule="evenodd" d="M249.782 169.705L229.14 181.677C223.794 182.526 219.268 183.805 215.562 185.513C214.659 186.172 213.504 187.578 216.949 187.675C220.393 187.772 224.012 188.028 224.361 189.235C224.711 190.442 222.497 191.61 223.285 193.272C223.811 194.379 227.088 192.083 233.117 186.382L252.922 180.553L249.782 169.705ZM332.278 177.436L321.47 177.106C328.464 203.47 332.245 217.427 332.813 218.978C334.091 222.466 330.952 227.601 329.59 230.372C333.644 232.346 333.441 225.552 338.552 228.135C343.218 230.492 346.687 234.589 352.282 231.424C352.97 231.034 353.762 229.506 352.021 228.229C347.683 225.047 341.465 219.527 340.661 217.753C339.564 215.335 336.77 201.896 332.278 177.436Z" fill="#B28B67"/>
<path fill-rule="evenodd" clip-rule="evenodd" d="M295.755 127.07L289.607 123.78C276.859 144.195 259.887 163.133 234.641 177.214L238.441 187.521C259.843 179.579 279.762 173.988 290.227 158.272C293.739 152.998 294.749 133.937 295.755 127.07Z" fill="#C5CFD6"/>
<path fill-rule="evenodd" clip-rule="evenodd" d="M307.235 192.84C288.187 191.528 273.468 188.945 263.079 185.092C261.792 184.614 261.974 182.366 262.857 180.973C276.606 159.283 286.808 140.043 289.685 123.806C291.291 124.998 294.353 125.672 298.87 125.827C307.75 144.638 309.793 164.791 307.235 192.84Z" fill="#323337"/>
<path fill-rule="evenodd" clip-rule="evenodd" d="M302.088 124.945L297.152 124.079C294.813 130.59 275.084 220.848 258.625 248.618L319.175 259.243C322.688 231.775 318.13 197.237 312.492 168.016C320.274 178.073 325.828 193.773 329.153 215.118L341.007 214.217C338.968 176.653 326.329 147.088 303.091 125.523C303.057 125.382 303.024 125.243 302.99 125.104L302.554 125.027C302.411 124.896 302.268 124.766 302.125 124.636L302.088 124.945V124.945Z" fill="#DDE3E9"/>
</g>
<path fill-rule="evenodd" clip-rule="evenodd" d="M314.197 42.5061C317.884 40.542 324.116 42.4375 327.727 44.1023C332.195 46.1624 336.442 49.1395 340.25 52.2121C346.524 57.2733 351.869 64.0828 356.614 70.5037C357.185 71.2774 364.301 80.6319 363.08 81.2917C361.87 81.9455 355.346 71.6005 353.758 69.6331C350.369 65.4341 347.521 60.9293 343.352 57.3891C339.036 53.7232 334.029 50.9605 328.768 48.9227C328.093 48.6612 326.085 47.319 325.642 48.2972C325.208 49.2539 329.041 50.1886 329.679 50.449C332.315 51.5246 334.877 52.8317 337.301 54.3271C341.844 57.1289 345.748 60.687 348.876 65.0075C346.628 67.2622 343.331 67.4034 340.666 65.5561C338.362 63.9593 336.465 61.5257 334.147 60.1187C332.551 59.1498 330.77 58.6405 328.918 58.4638C324.035 57.9981 320.473 59.6047 316.383 55.8764C313.176 52.9537 308.9 45.3327 314.197 42.5061Z" fill="#0B2538"/>
<path fill-rule="evenodd" clip-rule="evenodd" d="M98.0158 103.899C94.7274 100.88 92.2741 96.987 92.0295 92.3178C91.3247 78.8643 110.264 79.5222 114.706 85.8117C119.148 92.1012 120.82 109.231 116.297 111.006C114.494 111.714 110.381 111.025 106.044 109.087L110.784 126.7L95.8165 128.534L98.0158 103.899Z" fill="#D78352"/>
<path fill-rule="evenodd" clip-rule="evenodd" d="M105.223 79.1032C103.21 79.0218 97.87 79.4508 96.8903 79.571C96.2642 79.6478 95.6033 79.8739 95.1618 79.3448C94.8003 78.9116 94.8137 78.1023 94.6559 77.5675C94.4727 76.9462 94.2463 76.3385 94.0183 75.7326C93.3695 74.0085 92.5111 72.3978 91.4056 70.9222C89.3314 68.154 86.5423 66.1283 83.2165 65.1583C79.5438 64.0874 75.5542 64.2282 71.8393 64.9921C67.8639 65.8096 64.3919 67.5799 60.754 69.2912C57.2873 70.922 53.5607 71.8535 49.7108 71.7366C45.8318 71.619 42.7016 69.9096 39.2497 68.3461C35.7159 66.7455 31.7979 65.8956 27.9487 66.6733C24.3556 67.3993 21.1962 69.3061 18.4423 71.6734C15.8658 73.8884 13.8268 76.4232 12.9089 79.7514C11.9215 83.3317 12.3828 87.0721 15.0661 89.8002C18.9554 93.7547 25.3181 94.1206 30.4823 93.3736C33.4694 92.9417 36.3436 92.0347 39.0491 90.6942C42.6571 88.9064 45.6396 86.2603 48.9433 84.005C50.4938 82.9467 52.1187 82.0344 53.8503 81.3084C55.5306 80.6038 57.2174 80.1683 58.9226 81.0259C60.7266 81.9332 62.3549 82.842 64.3478 83.3041C66.2596 83.7474 68.2437 83.8833 70.1913 83.6292C73.9806 83.1349 77.5743 81.4956 81.1609 80.2529C84.0856 79.2397 87.2208 78.2028 90.3596 78.4473C91.6694 78.5494 93.6017 78.8548 94.2266 80.1254C86.6309 82.4848 84.7605 92.4601 87.8174 99.2398C89.4672 102.899 97.1195 106.475 99.6362 104.136C101.231 102.655 99.9635 101.122 99.1408 100.108C97.5653 98.1667 96.7825 95.5208 99.0393 93.7581C100.986 92.2378 103.565 94.9653 103.606 94.9569C104.178 94.8406 108.823 91.4074 111.756 86.8689C115.174 86.654 115.414 84.3552 114.379 82.6262C113.344 80.8972 108.004 79.2161 105.223 79.1032Z" fill="#191847"/>
<path fill-rule="evenodd" clip-rule="evenodd" d="M100.935 179.871L123.957 259.131L134.785 318.64H145.654L134.805 179.871H100.935Z" fill="#784931"/>
<path fill-rule="evenodd" clip-rule="evenodd" d="M90.5889 179.871C92.1953 221.046 91.5618 243.504 91.2022 247.245C90.8427 250.986 88.8016 276.04 74.8932 319.895H86.1972C104.617 277.823 111.047 252.769 113.159 247.245C115.272 241.72 121.511 219.262 130.62 179.871H90.5889Z" fill="#915B3C"/>
<path fill-rule="evenodd" clip-rule="evenodd" d="M100.441 179.871C106.429 207.145 116.786 250.68 131.513 310.477H147.409C148.583 249.101 143.588 208.705 134.939 179.871H100.441Z" fill="#69A1AC"/>
<path fill-rule="evenodd" clip-rule="evenodd" d="M90.5086 179.871C92.0818 221.046 88.0047 261.611 75.3751 311.118H92.3355C110.789 269.674 124.015 229.309 133.054 179.871H90.5086Z" fill="#C5CFD6"/>
<path fill-rule="evenodd" clip-rule="evenodd" d="M73.282 328.058L73.9057 318.012C77.5575 319.079 82.1314 318.66 87.6275 316.756C93.5371 320.938 100.977 323.794 109.946 325.323L109.946 325.323C110.63 325.44 111.09 326.089 110.973 326.772C110.966 326.817 110.956 326.86 110.944 326.904L110.081 329.942H87.6275H74.5294L73.282 328.058Z" fill="#191847"/>
<path fill-rule="evenodd" clip-rule="evenodd" d="M132.359 328.058L132.983 318.012C136.635 319.079 141.209 318.66 146.705 316.756C152.614 320.938 160.054 323.794 169.023 325.323L169.023 325.323C169.707 325.44 170.168 326.089 170.051 326.772C170.043 326.817 170.033 326.86 170.021 326.904L169.159 329.942H146.705H133.607L132.359 328.058Z" fill="#191847"/>
<path fill-rule="evenodd" clip-rule="evenodd" d="M152.83 165.613L175.13 176.626C180.74 177.127 185.53 178.136 189.502 179.652C190.487 180.276 191.789 181.66 188.222 182.009C184.655 182.358 180.919 182.886 180.645 184.171C180.371 185.456 182.754 186.516 182.058 188.307C181.595 189.502 178.025 187.34 171.35 181.823L150.37 177.163L152.83 165.613ZM77.1201 179.459L90.0624 177.233C86.6261 204.403 84.7289 218.832 84.3708 220.521C83.5651 224.32 87.5495 229.188 89.3581 231.863C85.4705 234.494 84.6858 227.424 79.7984 230.837C75.3374 233.953 72.3634 238.698 66.1369 236.224C65.3714 235.92 64.3319 234.45 65.9385 232.876C69.9412 228.953 75.5389 222.337 76.1081 220.383C76.8843 217.718 77.2216 204.077 77.1201 179.459Z" fill="#D78352"/>
<path fill-rule="evenodd" clip-rule="evenodd" d="M104.308 118.763L109.497 116.904C132.379 130.549 146.348 162.043 173.765 175.202L169.189 183.489C126.047 185.699 108.49 147.375 104.308 118.763Z" fill="#1F28CF"/>
<path fill-rule="evenodd" clip-rule="evenodd" d="M92.8454 190.079C114.301 186.302 130.084 183.523 140.193 181.743C142.356 181.362 141.397 178.312 140.806 176.791C133.986 159.245 116.435 142.126 111.864 116.245L97.829 116.509C89.7389 136.654 89.78 159.695 92.8454 190.079Z" fill="#DDE3E9"/>
<path fill-rule="evenodd" clip-rule="evenodd" d="M83.9233 137.36C81.8392 137.139 80.0338 136.087 78.5071 134.202C71.9261 126.08 72.8536 120.807 77.9004 118.239C82.9471 115.671 88.2968 118.188 96.796 116.692C97.2583 116.611 97.6868 116.565 98.0815 116.555L102.4 116.046C122.003 155.432 130.28 182.555 127.233 197.415L89.9683 203.976C88.6689 209.51 87.3206 214.211 85.9232 218.079L75.7692 219.867C69.3606 189.156 72.0786 161.653 83.9233 137.36Z" fill="#2B44FF"/>
<path fill-rule="evenodd" clip-rule="evenodd" d="M94.3112 181.209C97.2137 190.803 100.375 197.58 103.794 201.54L89.9643 203.975C91.4799 197.52 92.9289 189.931 94.3112 181.209L94.3112 181.209Z" fill="black" fill-opacity="0.1"/>
</g>
<defs>
<clipPath id="clip0_389_3247">
<rect width="402" height="370" fill="white"/>
</clipPath>
<clipPath id="clip1_389_3247">
<rect width="212" height="267" fill="white" transform="matrix(-1 0 0 1 392 63)"/>
</clipPath>
</defs>
</svg>
