<svg width="543" height="378" viewBox="0 0 543 378" fill="none" xmlns="http://www.w3.org/2000/svg">
<g clip-path="url(#clip0_389_3220)">
<path fill-rule="evenodd" clip-rule="evenodd" d="M161.887 288.989C170.944 242.31 262.586 268.902 322.665 254.471C382.745 240.04 453.824 172.832 500.865 205.754C547.906 238.676 497.855 318.258 389.962 336.217C282.07 354.176 152.831 335.668 161.887 288.989Z" fill="#304763"/>
<g opacity="0.5">
<path fill-rule="evenodd" clip-rule="evenodd" d="M185.823 70.9708C184.95 71.8438 185.289 74.9465 185.271 76.0946C185.242 77.8821 185.354 79.6537 185.503 81.4347C185.603 82.6272 186.167 94.0074 187.736 93.1334C188.621 92.641 188.066 89.3489 188.065 88.3077C188.061 85.9927 187.965 83.6834 187.811 81.3736C187.667 79.2293 187.577 77.1099 187.66 74.9614C187.68 74.437 188.17 68.6174 185.823 70.9708Z" fill="#89C5CC"/>
<path fill-rule="evenodd" clip-rule="evenodd" d="M223.87 69.5679C216.364 69.6277 208.862 69.9982 201.36 70.2253C197.75 70.3345 194.143 70.4734 190.537 70.6736C189.308 70.7419 186.672 70.3482 185.649 71.0034C183.376 72.4583 187.041 72.7984 188.018 72.7628C202.864 72.224 217.716 71.5144 232.575 71.4809C239.863 71.4647 247.149 71.6724 254.438 71.6257C257.225 71.6079 260.31 70.4064 261.014 73.6526C261.808 77.3157 260.896 81.3942 260.647 85.075C260.482 87.5322 260.541 89.9384 260.651 92.3935C260.722 93.9664 260.538 95.7387 260.815 97.2821C261.083 98.7684 262.15 99.6597 263.129 97.9949C263.713 97 263.423 94.5436 263.462 93.391C263.514 91.8387 263.465 90.287 263.465 88.7345C263.464 84.9452 263.999 81.1708 263.928 77.3822C263.883 74.9392 263.753 70.5102 260.674 69.9233C257.284 69.2768 253.117 69.9269 249.648 69.8872C241.051 69.789 232.469 69.5007 223.87 69.5679Z" fill="#89C5CC"/>
<path fill-rule="evenodd" clip-rule="evenodd" d="M203.188 93.2693C200.358 93.2693 197.528 93.2863 194.698 93.3332C192.271 93.3734 188.455 92.8671 186.196 93.7362C184.65 94.3312 184.239 96.0592 186.196 96.5194C188.331 97.0216 191.548 96.2006 193.781 96.1612C204.981 95.9633 216.288 95.7054 227.471 96.4143C237.95 97.0783 248.631 97.7222 259.126 97.0213C260.009 96.9623 264.512 96.783 262.457 95.0934C261.258 94.1073 256.399 94.7559 254.841 94.7087C249.346 94.5428 243.845 94.5059 238.352 94.2975C232.93 94.0916 227.532 93.4814 222.108 93.3304C215.807 93.1549 209.492 93.2693 203.188 93.2693Z" fill="#89C5CC"/>
<path fill-rule="evenodd" clip-rule="evenodd" d="M200.357 77.1586C204.768 77.3514 209.132 83.7541 204.669 86.8485C200.482 89.752 192.635 86.5699 194.963 80.9398C194.628 81.7538 195.386 80.0554 195.396 80.0441C195.838 79.522 196.633 78.9441 197.179 78.5326C197.804 78.0615 198.454 77.5431 199.207 77.3071C199.701 77.1522 199.624 77.7351 200.357 77.1586ZM198.208 74.8494C196.144 75.6561 195.202 76.5662 193.783 78.213C192.801 79.3527 191.55 79.9523 191.561 81.4925C191.563 81.8334 192.001 82.208 192.076 82.5363C192.181 82.9901 192.06 83.5714 192.143 84.0535C192.997 89.0282 198.927 90.7054 203.268 89.7661C207.049 88.948 209.877 85.3151 209.001 81.3647C208.12 77.388 202.228 73.276 198.208 74.8494Z" fill="#89C5CC"/>
<path fill-rule="evenodd" clip-rule="evenodd" d="M196.37 81.794C196.37 83.5836 199.194 83.5836 199.194 81.794C199.194 80.0248 196.37 79.9488 196.37 81.794Z" fill="#89C5CC"/>
<path fill-rule="evenodd" clip-rule="evenodd" d="M199.903 81.4318C199.903 82.8539 202.147 82.8539 202.147 81.4318C202.147 80.0259 199.903 79.9659 199.903 81.4318Z" fill="#89C5CC"/>
<path fill-rule="evenodd" clip-rule="evenodd" d="M200.598 84.3645C199.879 84.6409 198.968 84.0676 198.378 84.4454C197.333 85.1148 198.38 85.7206 198.94 85.9896C201.462 87.2007 201.911 83.8612 200.598 84.3645Z" fill="#89C5CC"/>
<path fill-rule="evenodd" clip-rule="evenodd" d="M239.11 80.3983C239.035 80.4302 238.767 80.5436 239.11 80.3983V80.3983ZM228.128 78.7919C226.241 79.2184 224.647 80.9824 222.597 80.7464C221.025 80.5655 219.961 79.0478 218.41 78.8272C216.425 78.5448 211.024 83.0757 213.864 83.8532C215.521 84.3069 216.44 81.2767 217.904 81.1156C219.061 80.9883 220.636 82.4094 221.836 82.6117C224.074 82.9892 225.611 81.7552 227.576 80.9595C229.711 80.0947 230.926 80.8734 232.783 81.8345C234.249 82.5931 235.629 83.0871 237.306 82.774C238.88 82.4805 240.858 80.8605 242.442 81.0267C243.994 81.1896 245.101 82.8103 246.697 82.9608C247.356 83.0227 248.335 83.2471 248.225 82.2308C248.136 81.4171 247.229 81.555 246.661 81.2591C245.202 80.4985 243.837 79.1511 242.075 79.266C240.75 79.3526 239.544 80.2844 238.323 80.7301C234.324 82.1899 232.076 77.9058 228.128 78.7919Z" fill="#89C5CC"/>
<path fill-rule="evenodd" clip-rule="evenodd" d="M231.469 104.568C223.755 104.639 216.015 104.753 208.323 105.372C206.5 105.519 187.879 107.278 187.914 107.405C187.979 107.64 190.374 107.998 190.359 108.053C190.198 107.653 189.829 107.487 189.252 107.556C206.913 107.556 224.518 105.973 242.201 106.258C246.645 106.329 251.105 106.299 255.545 106.44C256.653 106.475 259.4 107.27 260.271 106.769C262.555 105.454 258.405 105.302 257.717 105.247C249.015 104.55 240.196 104.481 231.469 104.568Z" fill="#69A1AC"/>
<path fill-rule="evenodd" clip-rule="evenodd" d="M185.628 108.319C184.474 109.476 185.536 113.639 185.582 115.204C185.647 117.466 185.593 119.744 185.792 122C186.018 124.577 186.369 127.323 187.045 129.824C187.417 131.201 188.723 133.39 189.241 130.887C189.61 129.099 189.049 126.728 188.854 124.907C188.593 122.47 188.529 120.066 188.52 117.618C188.511 115.484 188.47 113.342 188.295 111.216C188.204 110.112 187.649 106.306 185.628 108.319Z" fill="#69A1AC"/>
<path fill-rule="evenodd" clip-rule="evenodd" d="M214.641 129.52C209.167 129.614 203.681 129.743 198.217 130.085C195.977 130.225 193.739 130.434 191.507 130.671C191.052 130.72 186.011 130.924 188.264 132.786C189.28 133.627 193.462 132.465 194.843 132.343C197.166 132.14 199.488 132.007 201.818 131.908C207.215 131.679 212.629 131.477 218.033 131.57C227.9 131.742 237.704 131.818 247.575 131.598C248.977 131.567 259.963 131.861 260.336 130.4C260.637 129.223 256.708 129.763 255.992 129.785C253.364 129.863 250.736 129.845 248.107 129.832C236.97 129.774 225.769 129.331 214.641 129.52Z" fill="#69A1AC"/>
<path fill-rule="evenodd" clip-rule="evenodd" d="M258.476 106.366C258.65 111.244 259.48 116.117 259.745 121.009C259.867 123.246 260.009 125.481 260.119 127.718C260.154 128.44 259.864 130.179 260.716 130.594C261.886 131.163 262.044 130.016 262.262 129.24C262.895 126.998 262.467 124.086 262.41 121.783C262.354 119.553 262.35 117.32 262.186 115.094C262.018 112.82 261.56 110.589 261.348 108.323C261.258 107.365 261.572 105.77 260.556 105.175C259.677 104.661 258.438 105.309 258.476 106.366Z" fill="#69A1AC"/>
<path fill-rule="evenodd" clip-rule="evenodd" d="M204.672 114.481C204.693 114.497 204.713 114.513 204.734 114.529C204.713 114.513 204.693 114.497 204.672 114.481ZM200.02 113.035C201.755 113.531 203.179 113.346 204.836 114.61C206.21 115.658 207.619 117.191 208.075 118.886C209.127 122.801 205.559 124.946 202.213 124.988C198.786 125.031 193.714 124.236 193.89 119.84C194.024 116.462 196.489 113.167 200.02 113.035ZM200.142 110.823C195.644 111.047 192.016 116.103 192.055 120.359C192.101 125.517 197.941 126.845 202.089 126.881C206.77 126.921 211.439 123.686 210.184 118.417C209.179 114.195 204.468 110.598 200.142 110.823Z" fill="#69A1AC"/>
<path fill-rule="evenodd" clip-rule="evenodd" d="M195.617 117.748C195.617 119.187 197.888 119.187 197.888 117.748C197.888 116.326 195.617 116.265 195.617 117.748Z" fill="#69A1AC"/>
<path fill-rule="evenodd" clip-rule="evenodd" d="M200.38 117.117C200.38 118.567 202.668 118.567 202.668 117.117C202.668 115.684 200.38 115.622 200.38 117.117Z" fill="#69A1AC"/>
<path fill-rule="evenodd" clip-rule="evenodd" d="M197.754 120.398C196.277 121.875 201.468 124.463 202.693 122.409C203.698 120.722 201.509 121.281 200.732 121.19C199.889 121.09 198.443 119.711 197.754 120.398Z" fill="#69A1AC"/>
<path fill-rule="evenodd" clip-rule="evenodd" d="M239.263 117.147C239.12 117.207 239.12 117.207 239.263 117.147V117.147ZM219.767 114.743C218.27 115.024 213.359 116.682 213.293 118.459C213.172 121.688 217.981 118.38 219.026 117.955C221.863 116.802 223.353 119.155 226.203 119.28C228.679 119.388 230.955 117.268 233.286 117.518C235.729 117.781 236.904 120.382 239.725 119.001C241.217 118.27 241.179 117.144 239.504 117.038C238.492 116.974 237.796 117.392 236.741 116.956C235.09 116.275 234.425 115.166 232.45 115.342C230.96 115.475 229.613 116.316 228.158 116.641C224.826 117.386 222.978 114.141 219.767 114.743Z" fill="#69A1AC"/>
<path fill-rule="evenodd" clip-rule="evenodd" d="M250.756 118.549C250.653 118.592 250.653 118.592 250.756 118.549V118.549ZM251.133 117.204C251.15 117.212 251.263 117.368 251.133 117.204V117.204ZM249.418 116.178C249.353 116.228 249.353 116.228 249.418 116.178V116.178ZM249.455 116.165C249.788 116.364 252.462 118.195 250.52 118.626C249.534 118.844 248.718 116.859 249.455 116.165ZM248.57 114.138C244.286 116.092 248.896 123.088 252.258 120.246C253.672 119.05 253.858 116.632 252.482 115.386C251.658 114.639 249.689 113.626 248.57 114.138Z" fill="#69A1AC"/>
<path fill-rule="evenodd" clip-rule="evenodd" d="M208.355 141.706C203.01 141.708 197.617 141.595 192.279 141.912C191.381 141.966 187.958 141.795 187.495 142.735C186.649 144.454 190.17 143.6 190.682 143.549C201.311 142.484 212.414 143.097 223.078 143.4C231.8 143.648 240.475 143.802 249.187 144.252C251.477 144.371 253.765 144.501 256.053 144.639C256.799 144.684 258.676 145.179 258.833 143.987C258.978 142.884 256.637 143.133 256.052 143.102C251.401 142.857 246.752 142.6 242.102 142.338C230.91 141.707 219.566 141.704 208.355 141.706Z" fill="#89C5CC"/>
<path fill-rule="evenodd" clip-rule="evenodd" d="M187.324 143.618C186.325 144.611 186.793 148.404 186.765 149.658C186.717 151.851 186.613 154.042 186.567 156.234C186.519 158.526 186.586 160.827 186.721 163.115C186.778 164.076 187.566 168.719 188.806 166.062C189.36 164.874 188.793 161.567 188.801 160.222C188.816 157.774 188.948 155.336 189.07 152.89C189.174 150.789 189.178 148.685 189.27 146.582C189.299 145.912 189.378 141.555 187.324 143.618Z" fill="#89C5CC"/>
<path fill-rule="evenodd" clip-rule="evenodd" d="M259.732 163.204C254.53 163.738 249.244 163.486 244.022 163.88C239.522 164.22 235.025 164.359 230.513 164.454C220.296 164.67 210.061 164.881 199.873 165.733C197.551 165.927 195.232 166.133 192.904 166.237C191.74 166.289 186.854 165.759 186.491 166.987C185.871 169.079 191.096 168.251 192.222 168.219C194.701 168.147 197.167 167.968 199.638 167.779C210.026 166.987 220.454 166.75 230.864 166.421C236.525 166.242 242.148 165.828 247.797 165.45C250.612 165.263 253.436 165.256 256.251 165.074C256.988 165.026 259.596 165.121 260.125 164.527C260.49 164.12 260.582 163.125 259.732 163.204Z" fill="#89C5CC"/>
<path fill-rule="evenodd" clip-rule="evenodd" d="M257.969 143.974C258.147 148.967 258.429 153.956 258.597 158.949C258.648 160.45 258.195 163.142 259.03 164.466C260.373 166.595 261.422 164.342 261.668 163.015C262.444 158.827 261.61 154.202 261.393 149.988C261.31 148.381 261.809 144.803 261.033 143.365C260.294 141.995 257.902 142.132 257.969 143.974Z" fill="#89C5CC"/>
<path fill-rule="evenodd" clip-rule="evenodd" d="M249.235 151.085C251.228 151.626 251.519 155.962 249.27 156.283C245.923 156.761 247.387 151.979 249.235 151.085ZM248.677 149.361C248.069 149.342 246.665 149.174 246.291 149.669C245.977 150.084 246.294 150.958 246.257 151.353C246.125 152.764 244.979 153.578 245.492 155.244C245.84 156.375 246.771 157.437 247.906 157.83C253.896 159.902 253.823 148.318 248.677 149.361Z" fill="#89C5CC"/>
<path fill-rule="evenodd" clip-rule="evenodd" d="M194.595 150.139C194.58 150.158 194.565 150.177 194.551 150.196C194.565 150.177 194.58 150.158 194.595 150.139ZM199.3 147.633C199.277 147.433 199.253 147.232 199.23 147.031C202.478 148.566 205.062 151.42 203.984 155.251C203.161 158.174 200.188 159.211 197.418 158.489C194.352 157.69 192.887 155.161 193.713 152.055C194.095 150.622 195.266 148.696 196.78 148.236C197.485 148.021 199.043 148.568 199.3 147.633ZM197.401 146.42C196.579 146.475 195.78 146.818 195.109 147.286C195.737 146.755 196.573 146.439 197.401 146.42ZM197.424 144.532C195.395 144.594 194.065 145.824 192.861 147.301C192.484 147.764 191.206 148.993 191.365 149.618C191.49 150.111 191.817 150.833 192.506 150.283C188.897 157.482 198.22 163.622 203.911 158.616C209.223 153.944 203.953 144.313 197.424 144.532Z" fill="#89C5CC"/>
<path fill-rule="evenodd" clip-rule="evenodd" d="M195.58 151.219C195.58 152.178 197.067 152.178 197.067 151.219C197.067 150.261 195.58 150.261 195.58 151.219Z" fill="#89C5CC"/>
<path fill-rule="evenodd" clip-rule="evenodd" d="M198.118 151.383C198.118 152.357 199.629 152.357 199.629 151.383C199.629 150.409 198.118 150.409 198.118 151.383Z" fill="#89C5CC"/>
<path fill-rule="evenodd" clip-rule="evenodd" d="M199.269 154.804C198.562 154.862 195.975 154.621 195.521 155.241C194.762 156.276 195.973 156.312 196.568 156.424C197.104 156.525 199.433 156.468 199.762 155.992C200.052 155.571 199.984 154.743 199.269 154.804Z" fill="#89C5CC"/>
<path fill-rule="evenodd" clip-rule="evenodd" d="M230.441 152.119C230.319 152.169 230.319 152.169 230.441 152.119V152.119ZM220.665 151.403C219.072 151.521 217.723 152.437 216.201 152.803C214.575 153.194 213.872 152.476 212.394 152.005C210.857 151.516 209.763 151.709 208.527 152.76C207.827 153.356 206.291 154.726 206.729 155.784C207.731 158.205 209.999 154.266 211.066 154.083C212.73 153.797 214.211 155.254 216.13 154.837C217.869 154.46 219.412 153.265 221.228 153.252C222.747 153.241 224.179 154.073 225.678 154.274C227.967 154.581 229.47 153.768 231.586 153.164C233.421 152.64 234.708 153.331 236.434 153.912C237.223 154.177 239.855 155.142 239.37 153.392C239.233 152.898 235.765 152.014 235.227 151.844C233.331 151.244 232.13 151.478 230.324 152.167C228.817 152.743 227.55 153.023 225.935 152.706C224.155 152.358 222.537 151.261 220.665 151.403Z" fill="#89C5CC"/>
</g>
<g opacity="0.5">
<path fill-rule="evenodd" clip-rule="evenodd" d="M293.942 71.1596C294.199 65.6249 294.553 60.098 294.739 54.5601C294.831 51.8158 294.904 49.0713 294.974 46.3266C294.989 45.7154 295.005 45.1045 295.019 44.4933C295.064 42.4169 294.818 42.2471 296.906 42.0628C306.219 41.24 315.57 40.9672 324.895 40.2228C336.141 39.325 347.446 38.705 358.724 38.4271C363.735 38.3034 368.768 38.0472 373.781 38.2031C374.891 38.2377 377.071 37.9485 377.509 38.8125C377.698 39.1858 377.301 40.4702 377.251 40.901C377.094 42.2466 376.947 43.5968 376.857 44.949C376.323 52.9245 376.641 61.101 378.184 68.9556C374.565 66.9128 369.992 65.1555 365.773 65.5043C361.471 65.8598 358.254 68.347 354.811 70.6363C352.864 71.9311 352.208 72.2716 350.265 71.0173C348.591 69.9362 347.007 68.7001 345.427 67.4871C342.989 65.6149 340.689 63.5849 338.325 61.6222C333.979 58.0134 327.991 52.8768 321.988 54.3892C317.699 55.4697 313.739 57.8289 310.016 60.1377C304.486 63.5679 299.48 67.7686 293.942 71.1596ZM368.48 35.7453C347.112 35.7453 325.904 37.8185 304.596 38.9401C302.37 39.0571 300.153 39.2296 297.935 39.4438C296.457 39.5866 292.843 38.987 291.875 40.2509C291.229 41.0941 291.784 41.2206 291.875 42.0218C291.989 43.0315 291.921 44.2278 291.892 45.2965C291.821 47.8717 291.746 50.4465 291.687 53.0219C291.467 62.7554 291.329 72.4871 291.723 82.218C291.808 84.3402 292.581 87.2785 292.158 89.3407C291.853 90.8337 290.829 91.7424 293.189 92.0182C295.51 92.2899 298.349 91.5991 300.673 91.3779C303.01 91.1552 305.347 90.9137 307.687 90.7206C317.86 89.8815 328.132 90.0084 338.332 89.7294C348.625 89.4482 358.921 89.4302 369.216 89.4245C373.524 89.4222 378.446 89.6645 382.649 88.478C384.128 88.0604 384.367 87.8547 384.003 86.3861C383.934 86.1075 383.487 86.0046 383.356 85.501C383.178 84.8155 383.269 83.9824 383.228 83.2689C383.092 80.9386 383.044 78.6043 382.934 76.2725C382.751 72.3765 382.08 68.5955 381.584 64.7387C381.011 60.2847 381.041 55.7623 381.029 51.2791C381.022 48.7924 381.086 46.3139 381.286 43.8342C381.414 42.2437 382.196 39.8691 381.799 38.3859C381.602 37.6474 381.278 37.0617 380.51 36.7439C380.024 36.5423 379.615 36.7001 379.134 36.649C378.563 36.5885 378.207 36.5083 377.524 36.3534C374.595 35.6891 371.464 35.7453 368.48 35.7453Z" fill="#69A1AC"/>
<path fill-rule="evenodd" clip-rule="evenodd" d="M356.655 46.3342C356.653 47.8841 356.411 50.1713 357.125 51.6308C358.031 53.4822 359.164 52.9035 359.464 51.1638C359.636 50.167 359.632 47.217 359.312 46.3342C358.859 45.0845 356.655 44.2333 356.655 46.3342Z" fill="#89C5CC"/>
<path fill-rule="evenodd" clip-rule="evenodd" d="M359.253 46.9326C357.799 46.9839 353.565 46.6347 352.581 47.8047C350.894 49.8114 353.831 50.1669 355.092 50.0545C356.552 49.9246 361.062 50.2417 362.04 49.0703C363.675 47.1108 360.396 46.8909 359.253 46.9326Z" fill="#89C5CC"/>
<path fill-rule="evenodd" clip-rule="evenodd" d="M302.834 98.7132C309.225 99.8245 307.237 109.578 301.189 107.319C299.081 106.532 295.976 104.257 297.141 101.577C298.011 99.5747 300.847 98.5225 302.834 98.7132ZM300.187 95.6805C296.03 96.3809 293.189 100.883 294.614 104.81C295.989 108.599 301.204 111.373 305.05 110.012C308.721 108.712 310.553 103.823 309.315 100.246C308.022 96.5093 303.808 95.0704 300.187 95.6805Z" fill="#89C5CC"/>
<path fill-rule="evenodd" clip-rule="evenodd" d="M339.064 99.8541C337.473 99.9863 336.098 101.101 334.497 101.299C332.999 101.483 331.759 100.971 330.357 100.561C328.662 100.066 327.108 99.8479 325.376 100.288C324.053 100.624 322.748 101.525 321.373 101.634C318.669 101.848 315.525 98.7593 313.413 102.253C312.401 103.927 313.871 105.006 315.385 104.225C316.964 103.411 316.189 103.12 318.147 103.601C319.781 104.001 321.101 104.219 322.738 103.657C324.22 103.148 325.521 102.217 327.132 102.112C328.71 102.01 330.083 102.729 331.591 103.04C333.445 103.421 335.086 103.132 336.843 102.551C338.515 101.997 339.181 101.695 340.868 102.188C341.936 102.501 344.269 103.494 345.308 102.694C347.105 101.31 344.699 101.108 343.752 100.911C342.226 100.595 340.648 99.7244 339.064 99.8541Z" fill="#89C5CC"/>
<path fill-rule="evenodd" clip-rule="evenodd" d="M375.481 98.9245C375.494 98.9343 375.506 98.9441 375.519 98.9539C375.506 98.9441 375.494 98.9343 375.481 98.9245ZM373.919 98.5974C376.242 98.7472 378.754 102.983 375.676 103.133C373.509 103.239 371.085 99.53 373.919 98.5974ZM373.593 95.1314C366.247 97.1846 369.605 107.55 376.691 106.353C379.909 105.809 381 102.077 379.936 99.3145C379.479 98.128 378.588 97.1276 377.523 96.4448C376.738 95.9411 374.491 94.8811 373.593 95.1314Z" fill="#89C5CC"/>
<path fill-rule="evenodd" clip-rule="evenodd" d="M294.598 161.382C294.381 160.417 294.499 158.943 294.486 158.602C294.43 157.004 294.41 155.405 294.348 153.808C294.202 150.001 294.105 146.172 293.812 142.374C293.532 138.743 292.824 135.223 292.804 131.565C292.79 129.091 292.103 122.823 294.268 121.142C297.988 118.97 296.517 126.636 296.456 127.962C296.272 131.957 296.521 135.775 296.923 139.744C297.291 143.382 296.868 147.004 296.727 150.642C296.652 152.573 296.611 154.502 296.465 156.43C296.42 157.031 296.49 159.741 296.175 161.184C296.986 161.149 297.757 161.186 298.188 161.172C301.202 161.081 304.216 161.001 307.229 160.888C318.82 160.452 330.418 160.649 342.007 160.098C352.969 159.577 363.971 159.466 374.94 159.331C375.9 159.415 376.329 160.423 375.713 161.198C375.111 161.956 372.317 161.79 371.446 161.86C368.356 162.109 365.273 162.221 362.174 162.25C355.647 162.312 349.146 162.592 342.631 162.964C331.054 163.625 319.461 163.57 307.878 164.042C305.067 164.156 302.255 164.242 299.443 164.315C297.959 164.354 294.075 165.248 293.34 163.475C292.821 162.221 293.543 161.644 294.598 161.382ZM358.72 116.267C362.227 116.235 365.715 116.296 369.217 116.497C370.77 116.586 372.322 116.673 373.876 116.738C374.774 116.776 376.825 116.482 377.613 116.899C380.704 118.535 374.406 118.715 373.64 118.702C370.427 118.648 367.221 118.398 364.008 118.319C352.192 118.028 340.288 118.748 328.482 119.232C322.803 119.466 317.127 119.499 311.45 119.818C308.347 119.993 305.246 120.192 302.143 120.356C300.712 120.431 299.281 120.505 297.848 120.541C296.965 120.563 295.168 120.929 294.353 120.595C293.658 120.311 293.096 119.913 293.478 119.071C293.889 118.164 295.679 118.55 296.436 118.535C299.171 118.482 301.9 118.329 304.63 118.161C310.828 117.782 317.013 117.338 323.224 117.232C335.059 117.03 346.879 116.377 358.72 116.267ZM375 120.304C375.002 118.68 376.948 118.353 377.812 119.458C378.637 120.515 378.106 123.713 378.126 124.978C378.192 129.143 378.586 133.285 378.96 137.431C379.331 141.544 379.593 145.658 379.879 149.777C380.012 151.681 381.474 159.279 379.349 160.388C376.638 161.803 377.149 154.602 377.073 153.289C376.83 149.063 376.523 144.831 376.141 140.616C375.524 133.801 374.995 127.146 375 120.304Z" fill="#69A1AC"/>
<path fill-rule="evenodd" clip-rule="evenodd" d="M339.19 139.866C342.908 141.188 346.605 142.569 350.285 143.993C352.255 144.754 354.214 145.54 356.179 146.313C357.163 146.699 361.256 147.67 361.491 148.654C361.823 150.043 357.461 148.337 356.767 148.115C354.806 147.488 352.87 146.785 350.933 146.087C346.601 144.525 342.287 142.913 337.938 141.399C337.531 141.257 337.124 141.116 336.717 140.975C332.1 143.051 327.493 145.146 322.901 147.274C320.438 148.416 317.989 149.584 315.547 150.768C313.736 151.645 310.459 154.149 308.464 154.106C307.709 154.089 307.201 153.927 307.122 153.011C307.021 151.841 308.906 151.36 309.667 150.979C312.278 149.672 314.904 148.398 317.538 147.141C322.77 144.643 328.051 142.245 333.35 139.895C333.381 139.882 333.411 139.868 333.442 139.855C330.503 138.859 327.555 137.887 324.602 136.936C322.914 136.392 311.078 133.469 311.509 131.9C311.994 130.141 322.477 134.288 324.089 134.802C328.059 136.069 332.017 137.37 335.955 138.731C345.405 134.483 354.955 129.955 364.811 126.863C365.432 126.669 365.824 127.31 365.684 127.847C365.495 128.566 363.284 129.149 362.671 129.423C360.243 130.508 357.803 131.566 355.376 132.652C350.087 135.017 344.789 137.36 339.501 139.726C339.397 139.773 339.294 139.819 339.19 139.866Z" fill="#89C5CC"/>
<path fill-rule="evenodd" clip-rule="evenodd" d="M304.236 169.618C306.652 170.042 308.357 172.363 308.092 174.793C307.734 178.077 304.464 179.581 301.443 179.153C298.016 178.667 297.295 175.767 298.956 172.977C299.323 172.359 299.746 171.62 300.414 171.295C300.874 171.072 301.459 171.269 301.829 171.089C303.126 170.457 302.346 169.45 304.236 169.618ZM303.135 167.473C300.186 167.85 294.736 171.266 295.012 174.684C295.252 175.08 295.612 175.242 296.092 175.17C295.976 175.91 296.014 176.643 296.205 177.367C296.485 178.308 297.044 179.079 297.793 179.691C299.335 180.953 301.444 181.263 303.364 181.041C306.95 180.629 309.777 178.176 309.978 174.443C310.175 170.799 306.997 166.985 303.135 167.473Z" fill="#89C5CC"/>
<path fill-rule="evenodd" clip-rule="evenodd" d="M317.42 171.92C316.097 172.622 314.003 173.701 313.227 175.034C312.407 176.442 313.256 177.982 314.984 177.316C316.355 176.787 317.227 175.107 318.69 174.569C319.98 174.094 320.501 174.336 321.865 174.809C323.271 175.296 324.499 175.768 326.019 175.648C327.929 175.498 329.583 174.389 331.452 174.137C333.026 173.925 334.324 174.538 335.832 174.782C337.581 175.064 338.724 174.402 340.361 174.057C341.474 173.822 343.435 174.777 344.247 174.42C346.073 173.617 344.142 172.635 343.131 172.31C341.429 171.764 340.381 172.246 338.762 172.699C337.004 173.191 336.245 172.821 334.565 172.369C331.165 171.455 328.538 173.666 325.316 173.264C322.333 172.892 320.547 170.263 317.42 171.92Z" fill="#89C5CC"/>
<path fill-rule="evenodd" clip-rule="evenodd" d="M373.01 170.287C376.283 173.357 372.607 177.726 368.998 175.272C367.729 174.408 367.708 173.021 368.697 171.78C369.6 170.645 371.586 170.202 373.01 170.287ZM371.797 167.806C368.74 168.401 365.856 169.805 365.58 173.336C365.309 176.782 368.841 178.382 371.807 178.156C378.467 177.649 377.986 166.608 371.797 167.806Z" fill="#89C5CC"/>
</g>
<path opacity="0.5" fill-rule="evenodd" clip-rule="evenodd" d="M444.215 53.3679C441.77 53.4152 435.731 54.3054 434.833 57.2007C434.152 59.3985 436.176 58.916 437.261 58.1163C438.729 57.0348 440.016 56.3876 441.834 56.0586C448.762 54.8044 455.419 59.3019 462.28 59.8707C464.879 60.0862 468.016 60.2265 470.498 59.3841C472.265 58.7842 472.495 57.4761 470.479 57.2769C468.765 57.1077 466.869 57.641 465.112 57.6259C457.843 57.5637 451.381 53.2311 444.215 53.3679Z" fill="#C1DEE2"/>
<g opacity="0.5">
<path fill-rule="evenodd" clip-rule="evenodd" d="M187.268 190.869C182.589 190.921 177.913 191.094 173.243 191.39C168.802 191.671 163.984 191.458 159.616 192.319C158.375 192.564 156.7 193.695 158.349 194.94C159.508 195.815 163.75 194.808 165.134 194.723C170.232 194.41 175.333 194.034 180.438 193.853C185.271 193.682 190.104 193.622 194.94 193.574C195.678 193.567 196.903 193.33 197.638 193.544C198.695 193.853 198.444 193.936 198.523 195.278C198.667 197.71 198.627 200.15 198.579 202.584C198.532 204.939 198.445 207.294 198.454 209.65C198.46 211.331 197.923 214.671 198.766 216.131C199.979 218.233 201.237 215.95 201.328 214.554C201.501 211.883 201.424 209.18 201.424 206.505C201.425 203.995 201.443 201.485 201.354 198.976C201.29 197.164 201.549 194.001 200.574 192.353C199.58 190.675 197.188 191.037 195.443 190.957C192.72 190.832 189.993 190.84 187.268 190.869Z" fill="#89C5CC"/>
<path fill-rule="evenodd" clip-rule="evenodd" d="M157.499 193.898C157.504 198.614 156.959 203.298 156.806 208.009C156.736 210.175 156.594 212.553 157.141 214.68C157.694 216.826 159.449 217.292 159.651 214.895C160.06 210.042 159.96 205.009 160.279 200.117C160.391 198.39 161.124 195.225 160.44 193.607C159.838 192.183 157.496 191.91 157.499 193.898Z" fill="#89C5CC"/>
<path fill-rule="evenodd" clip-rule="evenodd" d="M201.374 214.686C193.248 215.763 184.753 215.37 176.57 215.539C172.644 215.62 168.718 215.626 164.792 215.667C163.421 215.681 159.941 215.159 158.756 215.93C156.868 217.158 158.916 218.105 160.165 218.132C167.914 218.302 175.75 217.945 183.497 217.691C186.978 217.576 190.471 217.52 193.942 217.224C196.08 217.042 198.415 216.865 200.491 216.291C200.933 216.168 201.896 216.193 201.995 215.59C202.056 215.216 201.945 214.607 201.374 214.686Z" fill="#89C5CC"/>
<path fill-rule="evenodd" clip-rule="evenodd" d="M167.585 221.541C165.327 221.555 158.521 220.505 157.586 222.709C156.339 225.648 161.203 224.962 162.511 224.929C165.482 224.852 168.452 224.844 171.423 224.845C174.339 224.847 177.255 224.828 180.171 224.758C181.015 224.738 182.981 225.089 183.467 224.071C183.836 223.297 183.545 222.687 182.864 222.277C181.225 221.292 176.967 221.863 175.049 221.775C172.565 221.66 170.072 221.541 167.585 221.541Z" fill="#89C5CC"/>
<path fill-rule="evenodd" clip-rule="evenodd" d="M195.059 222.086C193.768 222.162 191.158 221.63 190.002 222.221C188.688 222.893 189.151 223.945 190.285 224.408C191.071 224.728 194.294 224.56 195.059 224.189C195.857 223.802 196.759 221.981 195.059 222.086Z" fill="#89C5CC"/>
<path fill-rule="evenodd" clip-rule="evenodd" d="M209.209 194.36C207.83 194.739 208.248 202.571 208.213 203.813C208.116 207.215 207.733 211.493 208.863 214.769C209.583 216.858 210.966 216.575 210.731 214.376C210.524 212.446 210.169 210.538 210.015 208.596C209.667 204.2 209.194 199.512 209.523 195.113C209.662 195.369 210.97 197.739 211.278 197.563C211.185 197.618 209.77 194.212 209.209 194.36Z" fill="#89C5CC"/>
<path fill-rule="evenodd" clip-rule="evenodd" d="M224.714 191.476C221.924 191.517 219.135 191.566 216.346 191.644C214.129 191.706 210.644 191.341 208.611 192.274C206.19 193.386 207.338 195.863 209.613 195.915C211.625 195.961 213.77 195.507 215.8 195.438C221.284 195.25 226.777 195.21 232.263 195.163C237.225 195.12 242.397 195.65 247.315 194.904C248.045 201.387 246.072 207.897 246.743 214.455C246.847 215.473 246.8 216.911 248.095 217.143C249.73 217.435 249.797 215.815 249.859 214.655C250.036 211.342 249.94 208.027 250.183 204.71C250.407 201.636 250.849 198.495 250.476 195.416C250.016 191.627 248.202 191.931 244.996 191.774C238.224 191.441 231.494 191.376 224.714 191.476Z" fill="#89C5CC"/>
<path fill-rule="evenodd" clip-rule="evenodd" d="M215.365 214.496C213.944 214.532 211.583 214.094 210.672 215.458C209.725 216.877 210.849 218.115 212.227 218.407C213.858 218.751 215.985 218.279 217.677 218.274C219.44 218.268 221.204 218.288 222.967 218.295C230.525 218.325 238.115 218.439 245.668 218.126C246.722 218.083 249.716 218.437 250.446 217.424C251.094 216.526 250.641 215.72 249.787 215.263C248.388 214.512 245.513 214.798 243.956 214.738C242.033 214.665 240.108 214.641 238.184 214.611C230.591 214.494 222.958 214.308 215.365 214.496Z" fill="#89C5CC"/>
<path fill-rule="evenodd" clip-rule="evenodd" d="M221.759 221.058C218.93 221.106 215.913 220.982 213.112 221.411C210.65 221.789 210.347 224.171 212.997 224.45C215.433 224.706 218.386 224.227 220.834 224.07C221.703 224.014 222.714 224.093 223.131 223.131C223.566 222.127 222.734 221.163 221.759 221.058Z" fill="#89C5CC"/>
<path fill-rule="evenodd" clip-rule="evenodd" d="M243.141 221.308C241.632 221.346 237.222 220.696 236.474 222.422C235.229 225.295 241.199 224.203 242.344 224.161C243.787 224.108 249.413 224.951 249.414 222.652C249.415 220.397 244.524 221.274 243.141 221.308Z" fill="#89C5CC"/>
<path fill-rule="evenodd" clip-rule="evenodd" d="M157.255 235.585C157.258 240.812 156.933 246.088 157.41 251.301C157.607 253.457 157.573 257.588 158.821 259.416C159.706 260.714 160.935 260.623 161.419 259.064C161.742 258.023 161.225 255.94 161.167 254.826C161.112 253.756 161.047 252.687 160.997 251.618C160.87 248.862 160.88 246.111 160.918 243.353C160.951 240.989 161.52 237.86 160.983 235.585C160.483 233.465 157.255 232.97 157.255 235.585Z" fill="#69A1AC"/>
<path fill-rule="evenodd" clip-rule="evenodd" d="M209.738 230.987C200.678 231.214 191.597 231.011 182.545 231.46C178.081 231.681 173.634 232.168 169.192 232.652C167.01 232.89 164.829 233.136 162.65 233.405C161.993 233.485 156.53 233.697 158.585 235.777C159.482 236.685 162.337 235.736 163.466 235.602C165.654 235.344 167.845 235.119 170.036 234.887C174.203 234.446 178.377 234.028 182.562 233.796C192.42 233.249 202.319 233.413 212.187 233.049C214.856 232.95 217.518 232.879 220.188 232.985C220.889 233.012 226.042 233.274 223.805 231.37C222.747 230.469 218.758 230.934 217.436 230.907C214.87 230.853 212.303 230.923 209.738 230.987Z" fill="#69A1AC"/>
<path fill-rule="evenodd" clip-rule="evenodd" d="M223.849 258.562C223.848 258.564 223.847 258.566 223.845 258.568C223.352 259.296 221.527 259.094 220.729 259.148C218.298 259.313 215.912 259.592 213.502 259.954C208.701 260.674 203.942 261.117 199.089 261.237C189.491 261.475 179.853 261.253 170.27 261.911C168.147 262.057 166.057 262.307 163.969 262.707C162.478 262.993 159.605 263.971 159.43 261.506C159.22 258.535 166.667 258.54 168.796 258.342C177.939 257.491 187.232 257.67 196.403 257.798C200.838 257.86 205.264 257.995 209.695 257.724C214.122 257.453 218.699 257.524 223.094 257.048C222.528 254.851 222.61 252.105 222.452 249.861C222.044 244.099 222.153 238.318 221.89 232.55C221.775 230.009 225.233 229.624 226.259 231.681C227.294 233.759 226.621 237.881 226.688 240.185C226.843 245.518 227.831 251.488 226.788 256.763C226.425 258.598 224.879 259.562 223.849 258.562Z" fill="#69A1AC"/>
<path fill-rule="evenodd" clip-rule="evenodd" d="M229.423 234.412C228.199 234.578 227.178 235.627 227.724 236.956C228.412 238.631 230.462 237.977 231.817 237.871C236.121 237.533 240.615 238.207 244.868 237.699C246.029 237.56 247.714 236.927 246.671 235.365C245.887 234.191 243.032 234.397 241.818 234.284C237.666 233.9 233.569 234.003 229.423 234.412Z" fill="#C1DEE2"/>
<path fill-rule="evenodd" clip-rule="evenodd" d="M236.688 241.717C235.018 241.829 231.132 241.741 230.429 243.642C229.167 247.052 234.109 245.85 235.614 245.656C237.362 245.431 241.484 246.034 242.414 244.338C244.079 241.303 238.151 241.615 236.688 241.717Z" fill="#C1DEE2"/>
<path fill-rule="evenodd" clip-rule="evenodd" d="M232.395 249.201C231.603 249.994 231.602 251.41 232.395 252.203C233.366 253.174 235.481 252.972 236.757 253.043C238.537 253.142 243.648 254.084 244.532 251.987C245.724 249.157 241.096 249.217 239.573 249.056C237.814 248.87 233.853 247.74 232.395 249.201Z" fill="#C1DEE2"/>
<path fill-rule="evenodd" clip-rule="evenodd" d="M170.01 200.762C170.01 203.804 174.758 203.804 174.758 200.762C174.758 197.736 170.01 197.69 170.01 200.762Z" fill="#89C5CC"/>
<path fill-rule="evenodd" clip-rule="evenodd" d="M179.016 200.796C179.016 204.274 184.423 204.267 184.423 200.796C184.423 197.33 179.016 197.295 179.016 200.796Z" fill="#89C5CC"/>
<path fill-rule="evenodd" clip-rule="evenodd" d="M173.568 205.421C170.939 206.147 173.361 208.377 174.582 208.886C176.521 209.696 179.169 210.292 181.109 209.079C181.881 208.596 182.508 207.954 181.942 207.016C181.339 206.019 180.514 206.462 179.596 206.554C178.434 206.671 177.494 206.653 176.371 206.28C175.533 206.002 174.482 205.169 173.568 205.421Z" fill="#89C5CC"/>
<path fill-rule="evenodd" clip-rule="evenodd" d="M221.248 200.954C221.248 203.012 224.441 203.012 224.441 200.954C224.441 198.897 221.248 198.897 221.248 200.954Z" fill="#89C5CC"/>
<path fill-rule="evenodd" clip-rule="evenodd" d="M228.309 201.264C228.309 203.55 231.855 203.551 231.855 201.264C231.855 198.978 228.309 198.978 228.309 201.264Z" fill="#89C5CC"/>
<path fill-rule="evenodd" clip-rule="evenodd" d="M228.046 206.226C226.183 206.466 220.795 207.013 220.493 209.311C220.028 212.857 225.932 209.987 227.28 209.709C228.996 209.354 230.529 209.447 232.242 209.516C233.183 209.553 234.434 209.706 234.335 208.272C234.174 205.917 229.674 206.017 228.046 206.226Z" fill="#89C5CC"/>
<path fill-rule="evenodd" clip-rule="evenodd" d="M181.204 238.926C179.854 239.287 178.088 241.623 179.017 243.053C180.54 245.399 181.212 241.798 181.849 241.451C183.01 240.82 183.951 243.125 185.164 241.916C187.077 240.009 182.409 238.603 181.204 238.926Z" fill="#69A1AC"/>
<path fill-rule="evenodd" clip-rule="evenodd" d="M196.677 237.193C195.076 237.207 191.695 239.477 191.455 241.152C191.313 242.148 191.973 243.104 193.045 243.118C194.505 243.135 194.969 241.235 196.235 240.838C197.6 240.409 197.397 241.396 198.577 241.908C199.439 242.283 200.519 242.126 200.818 241.064C201.384 239.061 198.323 237.161 196.677 237.193Z" fill="#69A1AC"/>
<path fill-rule="evenodd" clip-rule="evenodd" d="M184.419 246.786C181.858 248.288 186.072 251.508 187.533 251.911C189.739 252.519 194.178 251.385 194.701 248.688C194.909 247.615 194.238 246.642 193.055 246.835C192.081 246.993 191.456 248.216 190.553 248.654C189.335 249.246 188.252 249.205 187.217 248.315C186.373 247.59 185.922 245.909 184.419 246.786Z" fill="#69A1AC"/>
<path fill-rule="evenodd" clip-rule="evenodd" d="M186.276 268.983C183.987 269.472 181.661 269.144 179.361 269.603C177.016 270.072 175.615 270.958 173.437 270.065C173.334 270.022 173.232 269.978 173.13 269.935C171.444 269.208 169.676 268.993 167.911 270.152C166.867 270.837 163.696 273.208 164.078 274.655C164.907 277.792 168.474 272.873 169.384 272.394C171.119 271.48 172.308 272.648 174.094 272.977C176.234 273.372 177.955 272.241 179.97 271.79C182.327 271.263 184.979 271.079 187.377 270.797C188.324 270.686 191.912 271.436 192.236 270.256C192.793 268.229 187.175 268.792 186.276 268.983Z" fill="#C1DEE2"/>
<path fill-rule="evenodd" clip-rule="evenodd" d="M202.786 275.301C202.936 275.414 202.816 275.323 202.786 275.301V275.301ZM209.195 268.861C211.155 268.662 217.423 267.261 218.71 269.287C219.548 270.607 218.218 275.478 216.949 276.108C215.934 276.611 213.572 276.055 212.459 276.015C210.388 275.942 208.313 275.91 206.244 275.781C205.55 275.737 203.318 275.865 202.774 275.25C202.132 274.525 202.161 270.656 202.009 269.697C203.811 270.281 207.312 269.052 209.195 268.861ZM213.379 266.874C210.87 266.983 208.361 267.172 205.871 267.509C204.483 267.696 203.076 268.196 201.794 268.432C201.381 268.508 200.71 268.297 200.203 268.542C198.722 269.258 200.019 274.099 200.376 275.393C200.925 277.38 202.305 277.701 204.239 277.889C206.787 278.136 209.387 278.058 211.943 278.027C214.406 277.996 217.728 278.543 219.11 276.069C220.004 274.469 220.962 270.744 220.199 268.961C219.194 266.616 215.442 266.788 213.379 266.874Z" fill="#C1DEE2"/>
<path fill-rule="evenodd" clip-rule="evenodd" d="M241.477 276.631C241.342 276.804 241.342 276.804 241.477 276.631V276.631ZM242.026 275.968C241.985 276.031 241.792 276.234 242.026 275.968V275.968ZM236.043 275.786C237.149 275.577 238.255 275.371 239.362 275.169C238.314 276.638 237.21 276.031 235.418 275.903C235.627 275.864 235.835 275.825 236.043 275.786ZM230.766 275.266C231.046 275.172 231.326 275.078 231.607 274.984C231.598 275.198 231.644 275.398 231.744 275.584C231.264 275.532 230.785 275.477 230.306 275.418C230.459 275.367 230.613 275.316 230.766 275.266ZM228.321 273.459C228.305 273.073 228.884 273.338 229.216 273.312C228.576 273.876 228.278 273.925 228.321 273.459ZM237.066 269.087C237.15 268.98 237.261 268.985 237.4 269.103C237.249 269.154 236.666 269.402 237.066 269.087ZM242.737 268.419C242.752 268.419 243.067 268.845 242.737 268.419V268.419ZM242.578 268.28C242.66 268.343 242.66 268.343 242.578 268.28V268.28ZM241.87 268.197C243.03 268.393 242.941 269.755 241.87 268.197V268.197ZM228.247 268.105C228.011 268.3 228.092 268.111 228.247 268.105V268.105ZM232.681 265.205C230.713 265.32 227.099 265.204 225.455 266.254C223.309 267.624 224.438 272.341 224.63 274.409C224.914 277.466 226.351 278.336 229.227 278.657C232.659 279.04 236.186 279.111 239.636 279.02C242.743 278.938 244.513 277.869 245.082 274.595C245.256 273.593 245.698 272.043 245.684 271.083C245.675 270.418 245.343 270.114 245.218 269.548C244.505 266.326 243.311 265.944 240.011 265.803C237.583 265.7 235.064 265.08 232.681 265.205Z" fill="#89C5CC"/>
</g>
<g opacity="0.5">
<path fill-rule="evenodd" clip-rule="evenodd" d="M336.962 191.175C341.968 191.282 347.646 194.054 346.855 199.928C346.275 204.231 342.553 207.724 338.242 208.025C333.609 208.348 328.71 204.789 328.081 200.068C327.373 194.757 332.068 191.069 336.962 191.175ZM334.508 188.784C332.479 189.087 330.54 190.154 328.753 191.109C328.071 191.474 324.613 193.698 327.325 194.251C320.791 204.798 336.169 214.595 344.815 207.74C348.697 204.661 350.741 198.825 348.232 194.257C345.636 189.532 339.481 188.037 334.508 188.784Z" fill="#89C5CC"/>
<path fill-rule="evenodd" clip-rule="evenodd" d="M333.312 197.762C333.312 199.732 336.367 199.732 336.367 197.762C336.367 195.792 333.312 195.792 333.312 197.762Z" fill="#89C5CC"/>
<path fill-rule="evenodd" clip-rule="evenodd" d="M338.976 198.077C338.976 200.213 342.288 200.213 342.288 198.077C342.288 195.942 338.976 195.942 338.976 198.077Z" fill="#89C5CC"/>
<path fill-rule="evenodd" clip-rule="evenodd" d="M335.154 202.301C334.708 203.921 339.79 204.752 339.959 202.877C340.04 201.981 335.464 201.17 335.154 202.301Z" fill="#89C5CC"/>
<path fill-rule="evenodd" clip-rule="evenodd" d="M350.052 201.299C355.9 200.597 361.929 200.922 367.806 201.09C369.276 201.133 370.747 201.174 372.218 201.198C373.153 201.214 375.172 201.663 375.988 201.225C379.33 199.431 372.775 198.564 371.846 198.482C366.001 198 356.981 197.828 351.118 198.056C349.385 198.123 349.01 201.425 350.052 201.299Z" fill="#89C5CC"/>
<path fill-rule="evenodd" clip-rule="evenodd" d="M376.367 230.396C376.418 224.263 376.637 218.089 377.108 211.975C377.3 209.483 377.53 206.994 377.721 204.502C377.811 203.328 378.227 201.683 377.538 200.653C376.828 199.592 375.269 199.371 374.33 200.312C373.206 201.769 373.533 204.213 373.393 205.975C373.178 208.684 372.918 211.391 372.789 214.106C372.54 219.36 372.481 224.706 372.903 229.953C373.102 232.429 373.534 234.845 374.109 237.26C374.371 238.359 376.452 243.256 376.015 243.931C375.336 244.978 370.324 244.582 369.237 244.612C366.446 244.687 363.655 244.735 360.864 244.789C358.475 244.834 356.086 244.867 353.696 244.888C352.747 244.897 347.172 244.728 348.409 246.136C334.579 247.1 320.486 245.49 306.741 244.938C306.047 244.91 304.911 244.712 303.862 244.656C303.736 244.149 303.633 243.696 303.608 243.381C303.427 241.17 303.38 238.952 303.184 236.741C302.826 232.697 302.131 228.694 301.717 224.657C301.305 220.623 301.346 216.578 301.106 212.535C301.065 211.843 300.968 206.168 299.537 204.79C300.215 205.047 301.309 205.08 301.939 205.03C307.038 204.618 312.099 203.731 317.154 202.97C318.601 202.752 321.883 202.907 323.082 202.183C324.12 201.557 324.531 199.361 322.725 199.538C317.684 200.079 312.671 200.917 307.67 201.743C306.333 201.964 304.998 202.2 303.664 202.441C302.773 202.603 300.422 202.59 299.731 203.128C298.892 203.78 298.803 204.224 299.087 204.52C298.692 204.411 298.218 204.582 297.649 205.152C296.572 206.554 297.584 210.006 297.712 211.65C297.867 213.621 297.942 215.596 298.032 217.572C298.205 221.394 298.605 225.164 299.22 228.94C299.908 233.17 300.494 237.418 301.184 241.648C301.364 242.749 301.598 243.823 301.897 244.886C300.037 245.839 301.302 247.353 302.777 247.621C302.788 247.623 302.799 247.625 302.809 247.626C303.269 248.749 303.912 249.789 304.414 248.285C304.453 248.169 304.471 248.027 304.475 247.868C308.285 248.299 312.472 248.031 316.223 248.185C324.347 248.517 332.522 249.016 340.655 248.763C343.874 248.663 347.104 248.377 350.296 247.947C352.167 247.695 354.044 247.394 355.885 246.977C356.017 246.947 356.217 246.916 356.449 246.877C356.487 246.876 356.525 246.875 356.561 246.875C359.379 246.832 362.195 246.757 365.011 246.639C367.375 246.541 369.749 246.491 372.105 246.268C373.569 246.129 376.662 246.155 377.56 244.682C378.377 243.342 377.011 239.892 376.817 238.388C376.476 235.739 376.345 233.065 376.367 230.396Z" fill="#C1DEE2"/>
<path fill-rule="evenodd" clip-rule="evenodd" d="M347.806 212.688C345.554 212.881 343.472 213.94 341.199 213.953C339.291 213.964 337.413 213.393 335.495 213.477C333.245 213.576 332.007 215.032 330.036 215.519C328.467 215.907 327.479 214.705 326.099 214.173C324.356 213.501 323.069 213.848 321.576 214.864C320.478 215.61 317.919 217.285 317.939 218.795C317.997 223.367 323.328 217.051 324.402 216.974C325.83 216.873 327.425 218.501 328.944 218.594C330.952 218.717 332.24 217.421 334.089 216.949C335.959 216.472 337.981 217.057 339.856 217.238C341.995 217.445 343.867 216.968 345.937 216.457C347.942 215.962 349.651 215.988 351.689 216.404C353.064 216.685 356.491 218.317 357.092 216.218C357.912 213.36 349.38 212.554 347.806 212.688Z" fill="#89C5CC"/>
<path fill-rule="evenodd" clip-rule="evenodd" d="M348.492 221.409C343.877 221.857 339.235 222.251 334.599 222.376C332.592 222.431 324.873 221.57 325.558 224.123C326.145 226.313 336.648 224.934 338.787 224.767C341.148 224.584 343.506 224.327 345.857 224.029C346.689 223.924 348.701 224.033 349.288 223.334C349.848 222.667 349.572 221.301 348.492 221.409Z" fill="#89C5CC"/>
<path fill-rule="evenodd" clip-rule="evenodd" d="M316.659 233.038C316.554 233.082 316.554 233.082 316.659 233.038V233.038ZM317.632 233.024C318.783 232.988 318.536 232.381 319.684 232.697C320.213 232.843 320.267 232.627 320.677 233.133C321.478 234.121 320.724 236.272 319.935 237.068C317.013 240.015 313.506 233.155 317.632 233.024ZM317.632 230.133C309.633 230.402 312.98 242.77 319.942 240.245C322.817 239.202 324.625 234.505 322.934 231.865C322.111 230.581 321.062 230.353 319.684 230.264C319.364 230.243 318.961 230.709 318.761 230.687C318.286 230.637 318.331 230.106 317.632 230.133Z" fill="#89C5CC"/>
<path fill-rule="evenodd" clip-rule="evenodd" d="M336.762 233.461C336.619 233.417 339.288 234.194 338.996 233.89C339.619 234.538 338.781 236.072 338.076 236.34C336.37 236.988 335.412 234.332 336.762 233.461ZM337.946 230.108C335.441 230.463 333.508 231.507 333.166 234.295C332.85 236.868 334.587 239.474 337.327 239.524C343.299 239.633 343.481 229.335 337.946 230.108Z" fill="#89C5CC"/>
<path fill-rule="evenodd" clip-rule="evenodd" d="M365.211 233.574C365.56 238.143 360.826 233.961 365.211 233.574V233.574ZM363.179 228.685C362.765 229.394 363.118 230.145 363.743 230.557C358.159 231.738 359.423 240.149 365.106 238.906C367.995 238.274 368.527 235.233 368.096 232.722C367.891 231.528 364.918 225.709 363.179 228.685Z" fill="#89C5CC"/>
</g>
<path opacity="0.5" fill-rule="evenodd" clip-rule="evenodd" d="M376.39 233.074C374.726 233.37 370.79 235.21 370.825 237.186C370.878 240.271 374.223 236.901 374.966 236.448C378.963 234.014 384.139 237.169 388.301 237.84C390.209 238.147 393.941 238.716 395.626 237.436C398.623 235.16 391.692 235.73 390.809 235.639C386.011 235.143 381.238 232.207 376.39 233.074Z" fill="#C1DEE2"/>
<g opacity="0.5">
<path fill-rule="evenodd" clip-rule="evenodd" d="M455.016 211.384C455.015 214.541 454.855 217.763 455.436 220.881C455.612 221.825 455.751 223.634 456.746 224.124C457.746 224.616 458.715 224.063 458.964 223.037C459.253 221.844 458.618 220.058 458.553 218.806C458.465 217.094 458.459 215.381 458.458 213.668C458.458 212.43 458.865 210.44 457.405 209.803C456.32 209.33 455.016 210.21 455.016 211.384Z" fill="#C1DEE2"/>
<path fill-rule="evenodd" clip-rule="evenodd" d="M504.873 206.392C494.425 207.442 483.826 207.66 473.339 208.207C468.492 208.46 462.634 208.137 458.067 210.015C457.219 210.364 454.182 212.305 456.647 213.096C457.416 213.342 458.197 212.513 458.828 212.236C459.879 211.774 461.096 211.631 462.216 211.451C471.745 209.919 481.712 210.186 491.339 209.47C493.805 209.287 496.273 209.098 498.735 208.855C500.493 208.682 504.19 207.414 505.813 208.063C508.586 209.171 508.521 216.375 508.576 218.853C508.604 220.134 507.362 224.734 509.832 224.268C511.809 223.894 511.093 219.116 510.939 217.809C510.535 214.383 509.845 205.888 504.873 206.392Z" fill="#C1DEE2"/>
<path fill-rule="evenodd" clip-rule="evenodd" d="M508.727 224.101C499.651 224.922 490.366 224.117 481.253 224.439C476.476 224.609 471.704 224.878 466.926 225.036C464.86 225.105 462.792 225.107 460.725 225.122C459.736 225.129 455.236 225.729 458.02 227.691C459.252 228.559 463.18 227.86 464.594 227.843C466.718 227.818 468.841 227.729 470.964 227.646C475.881 227.454 480.794 227.187 485.713 227.054C490.419 226.926 495.127 226.899 499.832 226.772C502.174 226.708 504.547 226.636 506.867 226.294C507.391 226.217 509.092 226.155 509.455 225.571C509.799 225.018 509.558 224.021 508.727 224.101Z" fill="#89C5CC"/>
<path fill-rule="evenodd" clip-rule="evenodd" d="M464.121 217.282C464.072 217.397 464.072 217.397 464.121 217.282V217.282ZM468.051 216.086C468.194 216.147 468.194 216.147 468.051 216.086V216.086ZM467.867 216.053C469.985 218.214 466.728 220.793 464.744 218.684C462.638 216.446 466.503 216.06 467.867 216.053ZM465.621 212.784C458.325 214.083 460.908 223.815 467.722 222.408C470.713 221.791 472.424 218.775 471.395 215.877C470.992 214.745 470.116 213.503 468.894 213.146C468.286 212.968 467.747 213.248 467.167 213.183C466.614 213.12 466.307 212.66 465.621 212.784Z" fill="#C1DEE2"/>
<path fill-rule="evenodd" clip-rule="evenodd" d="M493.542 215.523C489.142 215.537 484.742 215.724 480.343 215.807C478.994 215.833 475.526 215.228 475.521 217.357C475.515 219.632 479.378 218.792 480.663 218.761C485.026 218.657 489.401 218.465 493.747 218.05C494.844 217.945 498.644 218.126 498.64 216.632C498.636 215.049 494.428 215.523 493.542 215.523Z" fill="#C1DEE2"/>
<path fill-rule="evenodd" clip-rule="evenodd" d="M504.049 230.37C493.168 230.662 482.304 230.763 471.433 231.321C467.366 231.529 463.305 231.684 459.233 231.684C458.448 231.684 456.869 231.38 456.131 231.875C454.128 233.216 456.409 234.367 457.714 234.439C466.646 234.935 475.706 233.7 484.632 233.422C489.858 233.259 495.084 233.21 500.307 232.944C501.732 232.872 503.157 232.787 504.579 232.677C505.397 232.614 507.56 232.787 508.221 232.309C511.108 230.217 505.022 230.343 504.049 230.37Z" fill="#89C5CC"/>
<path fill-rule="evenodd" clip-rule="evenodd" d="M454.127 235.694C454.025 238.518 454.014 241.292 454.383 244.1C454.529 245.204 454.595 246.458 455.889 246.739C457.064 246.994 457.66 246.104 457.904 245.118C458.498 242.709 457.975 239.243 457.968 236.741C457.965 235.504 457.964 234.119 456.436 233.839C455.271 233.626 454.172 234.468 454.127 235.694Z" fill="#89C5CC"/>
<path fill-rule="evenodd" clip-rule="evenodd" d="M515.582 242.501C497.969 243.43 480.379 244.241 462.754 244.986C461.379 245.045 450.701 244.928 454.434 248.655C455.587 249.806 458.558 249.027 460.049 248.953C462.29 248.843 464.532 248.759 466.773 248.645C475.657 248.192 484.565 248.07 493.443 247.562C498.329 247.283 503.203 246.845 508.063 246.276C510.375 246.005 513.245 246.033 515.41 245.126C516.524 244.66 517.726 242.387 515.582 242.501Z" fill="#89C5CC"/>
<path fill-rule="evenodd" clip-rule="evenodd" d="M505.455 228.178C504.115 229.514 504.804 232.148 504.905 233.798C505.044 236.069 505.213 238.341 505.496 240.6C505.68 242.067 505.583 244.35 506.365 245.617C507.28 247.101 509.297 246.937 510.125 245.503C510.857 244.235 510.486 241.567 510.467 240.162C510.441 238.219 510.32 236.273 510.205 234.334C510.109 232.713 510.476 230.115 509.585 228.728C508.68 227.318 506.71 226.929 505.455 228.178Z" fill="#89C5CC"/>
<path fill-rule="evenodd" clip-rule="evenodd" d="M465.197 238.54C465.04 238.661 465.04 238.661 465.197 238.54V238.54ZM468.326 238.147C471.245 238.735 466.525 242.146 465.033 239.805C464.8 239.439 464.679 238.989 465.053 238.672C465.394 238.381 465.609 238.895 465.931 238.757C466.487 238.519 467.733 238.125 468.326 238.147ZM467.923 235.347C465.93 235.505 463.19 235.628 462.204 237.627C460.878 240.313 463.145 242.943 465.767 243.352C468.29 243.745 472.057 242.346 472.259 239.401C472.422 237.026 470.165 235.165 467.923 235.347Z" fill="#89C5CC"/>
<path fill-rule="evenodd" clip-rule="evenodd" d="M484.561 236.767C482.498 236.8 478.443 236.19 476.645 237.196C474.867 238.192 475.66 239.965 477.282 240.39C478.355 240.67 480.108 240.218 481.224 240.172C482.693 240.112 484.163 240.099 485.633 240.079C488.104 240.046 490.575 240.074 493.047 240.074C495.572 240.074 498.139 240.143 500.66 239.957C503.848 239.722 503.763 237.333 500.644 237.034C495.346 236.526 489.876 236.683 484.561 236.767Z" fill="#89C5CC"/>
<path fill-rule="evenodd" clip-rule="evenodd" d="M479.291 263.533C479.291 264.668 480.298 263.533 480.29 263.533C480.298 263.533 479.291 262.397 479.291 263.533Z" fill="#89C5CC"/>
<path fill-rule="evenodd" clip-rule="evenodd" d="M456.522 254.392C456.587 257.693 456.629 260.996 456.77 264.294C456.815 265.337 456.517 267.373 457.78 267.905C459.185 268.497 459.622 267.022 459.784 266.022C460.297 262.856 459.794 259.24 459.745 256.036C459.728 254.96 459.961 253.463 458.74 252.926C457.744 252.489 456.502 253.301 456.522 254.392Z" fill="#89C5CC"/>
<path fill-rule="evenodd" clip-rule="evenodd" d="M510.751 254.444C510.834 254.641 510.834 254.641 510.751 254.444V254.444ZM510.868 254.41C510.936 254.439 511.209 254.553 510.868 254.41V254.41ZM484.229 251.743C479.167 251.822 474.101 251.883 469.042 252.099C466.883 252.192 464.699 252.267 462.547 252.471C461.023 252.615 457.237 252.675 456.248 253.921C454.209 256.494 458.534 255.793 459.466 255.584C461.161 255.203 462.892 255.081 464.624 254.99C468.383 254.792 472.143 254.686 475.907 254.61C486.112 254.404 496.325 254.435 506.532 254.389C507.52 254.385 509.306 253.987 510.219 254.387C511.133 254.788 511.082 255.774 511.177 256.919C511.303 258.442 510.299 261.344 511.064 262.625C512.251 264.613 513.976 262.925 514.24 261.477C514.604 259.475 514.026 257.071 513.461 255.157C512.663 252.458 511.556 252.35 508.947 252.139C505.899 251.893 502.861 251.743 499.803 251.715C494.613 251.667 489.419 251.662 484.229 251.743Z" fill="#89C5CC"/>
<path fill-rule="evenodd" clip-rule="evenodd" d="M504.252 265.386C493.272 266.662 481.979 265.91 470.94 265.955C468.256 265.966 465.569 265.988 462.888 266.118C461.471 266.187 458.114 265.796 457.143 266.889C455.098 269.195 458.782 269.53 460.128 269.435C462.847 269.241 465.573 269.153 468.3 269.132C477.905 269.058 487.563 269.506 497.16 269.032C501.18 268.833 505.111 268.145 509.057 267.376C509.932 267.205 515.916 266.067 512.503 264.702C510.487 263.895 506.37 265.138 504.252 265.386Z" fill="#89C5CC"/>
<path fill-rule="evenodd" clip-rule="evenodd" d="M472.193 261.166C472.116 261.264 472.116 261.264 472.193 261.166V261.166ZM472.119 261.149C472.093 261.219 472.012 261.394 472.119 261.149V261.149ZM471.426 260.255C471.442 260.275 471.508 260.359 471.426 260.255V260.255ZM471.4 260.248C471.664 260.564 471.842 260.916 471.934 261.305C469.659 261.922 468.782 260.08 471.4 260.248ZM471.256 260.162C471.257 260.162 471.577 260.297 471.256 260.162V260.162ZM467.519 257.417C466.046 259.253 464.831 261.391 466.667 263.487C468.308 265.361 471.61 265.603 473.693 264.352C475.839 263.063 475.654 260.349 474.157 258.577C473.193 257.436 472.412 257.468 471.013 257.282C470.061 257.155 468.327 256.414 467.519 257.417Z" fill="#89C5CC"/>
<path fill-rule="evenodd" clip-rule="evenodd" d="M482.739 260.814C482.739 263.257 493.281 262.206 495.157 262.203C496.728 262.201 506.227 263.068 505.545 260.553C504.985 258.487 495.628 259.514 493.635 259.511C491.913 259.509 482.739 258.325 482.739 260.814Z" fill="#89C5CC"/>
</g>
<g opacity="0.5">
<path fill-rule="evenodd" clip-rule="evenodd" d="M345.109 283.709C350.389 284.476 355.881 286.961 355.834 293.112C355.796 298.284 351.462 303.788 345.897 303.479C340.889 303.201 336.174 297.72 335.547 293.022C335.222 290.589 335.83 287.969 337.26 285.967C339.134 283.344 342.108 283.348 345.109 283.709ZM342.615 280.366C338.797 280.387 336.003 281.769 333.639 284.687C332.792 285.734 331.806 286.86 331.161 288.045C330.558 289.153 330.664 291.968 332.732 290.648C332.222 296.099 335.405 301.39 339.981 304.182C344.955 307.219 350.577 306.627 354.716 302.371C358.505 298.476 359.839 291.896 357.066 287.078C354.296 282.263 347.877 280.314 342.615 280.366Z" fill="#89C5CC"/>
<path fill-rule="evenodd" clip-rule="evenodd" d="M354.066 278.905C351.621 280.698 349.389 283.06 347.535 285.455C345.722 287.796 344.524 290.719 342.347 292.761C341.248 291.562 339.96 288.325 337.767 289.61C335.947 290.675 337.119 292.508 338.005 293.711C340.294 296.818 342.835 298.068 345.771 294.999C348.437 292.211 349.951 288.492 352.443 285.544C353.537 284.25 355.226 282.966 356.096 281.538C356.886 280.243 355.91 277.549 354.066 278.905Z" fill="#89C5CC"/>
</g>
<g opacity="0.5">
<path fill-rule="evenodd" clip-rule="evenodd" d="M421.269 100.627C421.352 100.615 421.432 100.606 421.509 100.601C423.548 100.471 425.613 100.525 427.655 100.478C431.838 100.381 436.185 100.609 440.343 100.119C441.188 100.01 441.483 101.095 441.104 101.657C440.679 102.289 439.317 102.256 438.687 102.35C436.841 102.623 434.971 102.719 433.109 102.801C431.153 102.888 429.195 102.953 427.238 103.007C425.543 103.054 421.782 103.764 420.214 103.054C418.992 102.5 419.02 101.886 419.519 101.41C419.216 100.745 419.266 99.6553 419.201 99.1324C418.93 96.9415 418.767 94.7786 418.763 92.5689C418.755 88.2406 418.764 83.7453 419.96 79.5556C419.481 79.3456 419.192 79.0361 419.193 78.5899C419.2 75.9403 428.912 76.573 430.881 76.5205C433.301 76.4572 435.722 76.4489 438.143 76.4621C439.743 76.4706 441.907 76.125 443.5 76.4955C446.602 77.2162 446.406 82.5385 446.469 85.112C446.583 89.7283 446.517 94.5813 446.142 99.1867C446.013 100.777 444.857 102.792 443.539 100.6C442.804 99.3781 443.131 96.5231 443.13 95.1728C443.127 90.3723 443.878 85.4267 443.159 80.6509C442.924 79.0853 442.976 78.9795 441.384 79.0124C440.122 79.0387 438.86 79.0806 437.597 79.1071C435.026 79.1612 432.455 79.1964 429.885 79.2906C428.909 79.3266 425.402 79.9398 422.667 79.9374C422.668 79.9593 422.671 79.9812 422.671 80.0036C422.709 81.8543 421.802 84.1006 421.679 86.0478C421.382 90.7313 421.736 95.5243 421.298 100.184C421.285 100.325 421.277 100.476 421.269 100.627Z" fill="#89C5CC"/>
<path fill-rule="evenodd" clip-rule="evenodd" d="M458.09 101.981C457.771 101.656 457.485 101.179 457.301 100.584C456.642 98.4476 456.579 96.1419 456.53 93.9263C456.426 89.1909 456.478 84.4472 456.449 79.7101C456.02 79.1332 456.275 78.4734 456.811 78.013C458.258 76.77 462.426 77.0855 464.263 76.9882C466.906 76.8482 469.551 76.8161 472.197 76.8063C475 76.7921 477.806 76.8426 480.607 76.9288C481.645 76.9607 488.871 77.1426 485.641 78.8958C485.456 78.9962 485.248 79.0801 485.021 79.1497C485.155 79.9463 485.172 80.7689 485.15 81.1651C485.013 83.6861 484.954 86.2118 484.842 88.7341C484.717 91.5495 484.599 94.3647 484.502 97.1814C484.45 98.6704 484.959 102.133 483.782 103.208C482.989 103.932 482.446 103.787 482.081 103.295C479.263 104.114 472.762 103.586 471.577 103.587C469.456 103.587 457.932 104.953 457.913 102.496C457.911 102.305 457.973 102.134 458.09 101.981ZM459.962 101.112C463.177 100.425 469.17 100.884 470.432 100.88C472.781 100.87 475.13 100.903 477.477 100.997C478.209 101.026 479.998 100.885 481.411 101.042C481.399 100.914 481.39 100.797 481.385 100.696C481.257 98.1604 481.397 95.5984 481.478 93.063C481.561 90.5075 481.686 87.954 481.785 85.399C481.835 84.0848 481.504 81.3416 481.863 79.4503C480.157 79.4178 478.367 79.2114 477.217 79.2113C474.515 79.211 471.815 79.1804 469.114 79.2339C466.196 79.2918 463.248 79.326 460.351 79.7112C460.192 79.7324 460.001 79.7731 459.79 79.8226C460.231 81.6689 459.696 84.6382 459.694 86.3487C459.688 91.1418 459.865 95.9088 459.972 100.677C459.976 100.833 459.972 100.978 459.962 101.112Z" fill="#89C5CC"/>
<path fill-rule="evenodd" clip-rule="evenodd" d="M430.966 102.907C429.229 103.922 430.166 107.985 430.767 109.39C431.757 111.7 433.764 113.508 435.93 114.707C440.308 117.131 446.618 116.487 449.929 120.69C449.963 120.733 451.108 121.867 451.368 120.399C451.582 119.194 449.446 117.353 448.618 116.749C446.263 115.031 443.244 114.477 440.521 113.619C437.617 112.704 434.43 111.017 433.212 108.02C432.781 106.959 433.603 101.358 430.966 102.907Z" fill="#C1DEE2"/>
<path fill-rule="evenodd" clip-rule="evenodd" d="M470.675 104.86C469.083 105.299 470.136 107.491 470.133 108.589C470.13 109.958 469.693 111.392 468.849 112.484C466.711 115.256 462.524 115.671 459.385 116.466C457.105 117.043 451.652 118.281 451.438 121.366C451.2 124.812 456.015 120.619 456.422 120.447C460.922 118.795 466.744 118.476 470.217 114.839C471.651 113.338 472.498 111.334 472.633 109.266C472.709 108.102 472.721 104.3 470.675 104.86Z" fill="#C1DEE2"/>
<path fill-rule="evenodd" clip-rule="evenodd" d="M449.355 123.74C455.98 121.993 462.152 126.639 462.933 133.323C463.757 140.376 458.445 146.055 451.441 146.366C445.279 146.64 437.824 142.224 437.785 135.422C437.748 129.047 443.843 125.191 449.355 123.74ZM452.544 128.495C451.411 129.156 451.203 127.441 450.401 127.214C449.595 126.987 448.301 127.835 447.63 128.329C446.491 129.169 443.336 134.056 441.806 131.402C437.166 139.423 448.736 145.425 455.315 142.39C462.541 139.056 461.134 126.869 452.584 126.805C452.942 127.293 453.266 128.071 452.544 128.495Z" fill="#89C5CC"/>
<path fill-rule="evenodd" clip-rule="evenodd" d="M446.52 133.288C446.52 134.751 448.829 134.751 448.829 133.288C448.829 131.841 446.52 131.779 446.52 133.288Z" fill="#89C5CC"/>
<path fill-rule="evenodd" clip-rule="evenodd" d="M450.582 133.013C450.582 134.805 453.412 134.805 453.412 133.013C453.412 131.241 450.582 131.165 450.582 133.013Z" fill="#89C5CC"/>
<path fill-rule="evenodd" clip-rule="evenodd" d="M447.675 137.19C445.361 138.552 451.978 141.258 452.24 138.493C452.352 137.299 451.198 137.621 450.428 137.533C449.691 137.449 448.374 136.783 447.675 137.19Z" fill="#89C5CC"/>
<path fill-rule="evenodd" clip-rule="evenodd" d="M446.672 146.854C446.772 150.333 446.724 153.81 447.383 157.241C447.508 157.892 447.595 160.256 448.11 160.74C449.376 161.931 449.397 159.649 449.446 158.774C449.621 155.641 449.293 152.411 449.22 149.272C449.205 148.596 449.383 147.197 449.065 146.543C448.559 145.505 446.622 145.196 446.672 146.854Z" fill="#C1DEE2"/>
<path fill-rule="evenodd" clip-rule="evenodd" d="M444.197 144.033C439.124 149.731 432.139 149.311 425.102 149.81C421.384 150.074 417.624 150.615 414.632 153.022C413.241 154.142 412.041 155.545 411.235 157.143C410.882 157.842 409.211 161.874 411.721 160.917C412.612 160.578 413.488 157.912 414.064 157.123C415.161 155.621 416.564 154.381 418.248 153.575C421.495 152.02 425.373 152.046 428.894 151.849C432.575 151.643 436.526 151.45 439.909 149.848C441.501 149.095 442.994 148.155 444.275 146.944C444.732 146.511 445.714 145.775 445.787 145.113C445.871 144.356 445.144 142.971 444.197 144.033Z" fill="#C1DEE2"/>
<path fill-rule="evenodd" clip-rule="evenodd" d="M418.589 161.522C413.824 161.682 409.065 161.875 404.307 162.176C403.332 162.238 400.081 162.041 400.909 164.041C401.573 165.644 405.538 164.583 406.849 164.506C411.807 164.211 416.786 164.109 421.734 163.662C422.845 163.562 427.869 163.602 425.795 161.631C424.808 160.692 419.953 161.476 418.589 161.522Z" fill="#89C5CC"/>
<path fill-rule="evenodd" clip-rule="evenodd" d="M397.883 163.823C396.381 165.797 397.072 170.595 397.185 172.969C397.295 175.269 396.849 179.474 399.848 179.831C398.896 179.706 400.571 179.889 400.844 179.903C401.453 179.936 402.065 179.946 402.675 179.953C404.084 179.969 405.493 179.95 406.902 179.921C410.093 179.858 413.292 179.765 416.479 179.588C417.818 179.514 425.085 179.576 425.373 178.183C425.741 176.403 418.773 177.41 417.526 177.467C414.488 177.607 411.446 177.636 408.405 177.676C406.898 177.696 405.39 177.71 403.883 177.681C403.261 177.669 400.797 177.925 400.418 177.509C400.096 177.155 400.348 173.903 400.341 173.406C400.319 171.785 400.32 170.159 400.378 168.538C400.417 167.447 401.006 165.371 400.526 164.346C400.059 163.349 398.697 163.009 397.883 163.823Z" fill="#89C5CC"/>
<path fill-rule="evenodd" clip-rule="evenodd" d="M422.419 163.915C422.506 167.527 422.533 171.211 423.385 174.744C423.669 175.919 424.066 178.343 425.246 178.952C426.485 179.591 427.554 178.679 427.635 177.451C427.737 175.907 426.911 173.88 426.741 172.295C426.543 170.447 426.428 168.597 426.361 166.739C426.309 165.342 426.734 163.248 425.403 162.347C424.208 161.538 422.38 162.353 422.419 163.915Z" fill="#89C5CC"/>
<path fill-rule="evenodd" clip-rule="evenodd" d="M431.901 163.033C430.419 164.51 431.082 169.188 431.267 171.086C431.403 172.477 432.923 179.317 435.201 175.75C436.209 174.172 434.929 170 434.938 168.161C434.944 166.989 435.358 165.507 435.158 164.382C434.894 162.894 433.245 161.689 431.901 163.033Z" fill="#89C5CC"/>
<path fill-rule="evenodd" clip-rule="evenodd" d="M466.76 175.241C467.087 175.595 467.232 176.099 467.019 176.592C466.51 177.775 464.635 177.52 463.617 177.605C460.219 177.888 456.805 178.077 453.394 178.107C450.099 178.136 446.803 178.052 443.508 178.084C440.763 178.111 437.903 178.668 435.184 178.556C434.048 178.509 432.836 178.137 433.124 176.669C433.379 175.366 434.689 175.355 435.757 175.247C438.974 174.919 442.193 174.803 445.427 174.814C452.22 174.838 459.007 174.803 465.8 174.767C466.08 174.79 466.343 174.897 466.559 175.06C466.204 174.628 466.375 173.989 466.308 173.365C466.13 171.683 466.015 170.03 465.696 168.348C465.441 167.003 465.249 164.718 464.004 163.872C462.644 162.948 459.626 163.254 458.003 163.212C453.637 163.099 449.246 163.409 444.899 163.805C442.917 163.985 440.911 164.122 438.951 164.479C437.86 164.677 434.658 166.28 433.786 165.294C431.688 162.918 440.91 161.943 442.162 161.813C446.613 161.354 451.07 161.009 455.546 160.966C458.568 160.943 463.741 160.685 465.963 163.167C467.298 164.657 467.766 167.112 468.287 168.972C468.687 170.4 469.772 172.975 469.001 174.451C468.652 175.118 468.09 175.687 467.238 175.451C467.039 175.395 466.883 175.325 466.76 175.241Z" fill="#89C5CC"/>
<path fill-rule="evenodd" clip-rule="evenodd" d="M489.519 156.405C489.712 156.654 489.712 156.654 489.519 156.405V156.405ZM459.396 141.687C456.693 143.278 461.697 147.944 462.971 148.666C465.84 150.29 469.781 150.535 472.984 150.992C477.037 151.57 481.448 151.783 485.343 153.112C487.003 153.679 488.058 154.563 489.145 155.921C489.695 156.61 491.021 159.577 492.229 158.874C494.66 157.46 488.109 151.524 486.665 150.886C483.384 149.435 479.505 149.029 475.996 148.466C472.734 147.941 469.401 147.552 466.219 146.628C464.47 146.12 463.226 145.301 462.217 143.733C461.589 142.756 461.073 140.705 459.396 141.687Z" fill="#C1DEE2"/>
<path fill-rule="evenodd" clip-rule="evenodd" d="M473.9 176.046C473.091 174.494 472.72 171.514 472.648 170.925C472.337 168.389 472.313 165.883 472.356 163.332C472.381 161.931 473.983 161.263 475.021 162.049C476.409 161.467 478.758 161.379 480.02 161.252C482.095 161.042 484.186 160.964 486.267 160.84C491.123 160.549 495.974 160.025 500.84 159.917C502.296 159.887 504.246 159.755 505.41 160.831C506.736 162.055 507 165.094 507.397 166.731C507.828 168.508 508.344 170.317 508.524 172.141C508.566 172.568 508.681 173.302 508.629 173.962C509.235 174.045 509.598 174.633 509.536 175.275C509.423 176.468 507.772 176.63 506.806 176.819C503.594 177.447 500.161 177.304 496.905 177.396C490.093 177.588 482.808 178.689 476.022 178.034C474.86 177.921 473.612 177.511 473.9 176.046ZM476.352 174.642C476.622 174.64 476.888 174.645 477.137 174.641C480.563 174.581 483.987 174.477 487.411 174.345C490.902 174.211 494.394 174.062 497.889 174.021C500.666 173.99 503.527 174.23 506.324 174.122C505.723 172.546 505.814 170.065 505.493 168.433C505.175 166.813 505.054 164.891 504.403 163.37C503.67 161.658 503.033 162.054 501.126 162.184C499.164 162.317 497.205 162.504 495.245 162.666C490.937 163.02 486.626 163.244 482.315 163.545C480.079 163.701 477.939 164.34 475.753 164.59C475.72 165.371 475.61 166.16 475.622 166.73C475.659 168.411 475.824 170.081 475.97 171.755C476.029 172.436 476.31 173.612 476.352 174.642Z" fill="#89C5CC"/>
</g>
<g clip-path="url(#clip1_389_3220)">
<path fill-rule="evenodd" clip-rule="evenodd" d="M431.016 88.1934C428.721 96.6615 425.731 115.696 428.782 118.682H448.09C448.092 118.647 448.094 118.613 448.096 118.579C455.252 117.786 460.818 111.711 460.818 104.333V90.3333C460.818 82.4173 454.41 76 446.504 76H445.172C437.993 76 432.048 81.2924 431.016 88.1934Z" fill="#020204"/>
<path fill-rule="evenodd" clip-rule="evenodd" d="M453.32 101.66C456.388 98.0542 458.464 93.6352 458.117 88.6836C457.118 74.4166 437.284 77.5552 433.426 84.756C429.567 91.9567 430.026 110.222 435.012 111.509C437.001 112.022 441.237 110.765 445.548 108.163L442.842 127.333H458.821L453.32 101.66Z" fill="#D4A181"/>
<path fill-rule="evenodd" clip-rule="evenodd" d="M449.001 99.2499C448.264 107.169 448.559 116.212 450.753 118.358H470.061C471.137 99.6423 460.74 106.89 460.74 89.2685C460.092 88.6344 459.48 88.0067 458.874 87.4654L458.895 86.9471C455.552 80.0935 451.31 76.6667 446.17 76.6667C438.46 76.6667 436.027 80.2589 433.955 83.3087C435.504 88.6321 441.517 89.4215 446.86 92.7397C447.489 92.2273 448.292 91.9203 449.167 91.9203C451.189 91.9203 452.829 93.5619 452.829 95.5869C452.829 97.612 451.189 99.2536 449.167 99.2536C449.111 99.2536 449.056 99.2524 449.001 99.2499Z" fill="#020204"/>
<path fill-rule="evenodd" clip-rule="evenodd" d="M484.515 248.059C468.543 252.532 454.763 254.769 443.175 254.769C431.587 254.769 420.823 251.324 410.884 244.436C426.514 239.844 439.386 237.548 449.5 237.548C459.614 237.548 471.286 241.052 484.515 248.059Z" fill="#1F28CF"/>
<path fill-rule="evenodd" clip-rule="evenodd" d="M429.349 261.216C429.503 260.984 429.633 260.732 429.736 260.459C431.871 254.806 466.067 193.817 469.474 182.667H430.974C428.383 191.144 416.725 244.347 415.084 254.961C409.908 271.704 399.249 325.93 397.889 329.687C396.457 333.639 404.511 337.755 406.657 332.897C410.072 325.167 418.209 303.777 421.832 290.716C425.228 278.472 427.994 267.456 429.349 261.216Z" fill="#D4A181"/>
<path fill-rule="evenodd" clip-rule="evenodd" d="M429.349 261.216C429.503 260.984 429.633 260.732 429.736 260.459C431.871 254.806 466.067 193.817 469.474 182.667H430.974C428.383 191.144 416.725 244.347 415.084 254.961C409.908 271.704 399.249 325.93 397.889 329.687C396.457 333.639 404.511 337.755 406.657 332.897C410.072 325.167 418.209 303.777 421.832 290.716C425.228 278.472 427.994 267.456 429.349 261.216Z" fill="#D4A181"/>
<path fill-rule="evenodd" clip-rule="evenodd" d="M464.515 258.984C464.595 258.717 464.646 258.438 464.666 258.147C465.074 252.116 480.156 183.815 480.19 172.154L443.344 183.33C443.318 192.196 447.553 246.502 449.053 257.137C448.943 274.666 454.431 329.661 454.216 333.651C453.99 337.849 462.888 339.452 463.537 334.179C464.568 325.789 466.167 302.954 465.856 289.401C465.564 276.696 465.023 265.35 464.515 258.984Z" fill="#BA8B72"/>
<path fill-rule="evenodd" clip-rule="evenodd" d="M409.101 332.268C409.846 334.259 410.218 335.749 410.218 336.737C410.218 337.939 410.018 339.694 409.618 342C408.225 342 395.708 342 372.066 342C371.091 338.77 371.654 337.026 373.756 336.768C375.859 336.511 377.605 336.278 378.996 336.07L396.45 328.279C396.786 328.129 397.179 328.28 397.329 328.617C397.331 328.622 397.334 328.628 397.336 328.634L398.458 331.359C400.405 332.268 401.986 332.723 403.203 332.723C404.192 332.723 405.557 332.323 407.299 331.524L407.299 331.524C407.968 331.217 408.758 331.511 409.064 332.18C409.078 332.209 409.09 332.238 409.101 332.268Z" fill="#E4E4E4"/>
<path fill-rule="evenodd" clip-rule="evenodd" d="M465.498 332.047C466.243 334.038 466.616 335.527 466.616 336.516C466.616 337.718 466.416 339.472 466.016 341.779C464.623 341.779 452.106 341.779 428.464 341.779C427.488 338.548 428.051 336.804 430.154 336.547C432.256 336.289 434.003 336.057 435.394 335.849L452.847 328.058C453.183 327.908 453.577 328.059 453.726 328.395C453.729 328.401 453.731 328.407 453.734 328.413L454.856 331.138C456.802 332.047 458.384 332.502 459.601 332.502C460.589 332.502 461.955 332.102 463.697 331.302L463.697 331.302C464.365 330.995 465.155 331.289 465.462 331.959C465.475 331.988 465.487 332.017 465.498 332.047Z" fill="#E4E4E4"/>
<path fill-rule="evenodd" clip-rule="evenodd" d="M471.471 182.667C456.459 178.366 442.256 178.366 428.86 182.667C424.2 203.958 412.876 212.409 410.884 245.053C433.521 256.315 461.484 237.02 484.787 248.004C491.445 232.641 482.124 195.643 471.471 182.667Z" fill="#2B44FF"/>
<path fill-rule="evenodd" clip-rule="evenodd" d="M406.889 156.207L380.602 152.617C375.344 149.688 370.506 147.705 366.089 146.669C364.846 146.632 362.869 147.085 365.815 149.543C368.76 152.002 371.749 154.722 371.224 156.034C370.699 157.347 367.96 156.858 367.506 158.877C367.204 160.222 371.649 160.441 380.843 159.532L402.173 168L406.889 156.207ZM489.467 162.3L474.888 162.355C490.875 198.377 499.21 217.238 499.895 218.937C501.436 222.76 498.175 228.582 496.781 231.711C501.322 233.746 500.838 226.211 506.566 228.88C511.794 231.315 515.771 235.728 521.812 231.996C522.555 231.537 523.368 229.81 521.402 228.46C516.503 225.096 509.444 219.21 508.49 217.272C507.19 214.63 500.849 196.306 489.467 162.3Z" fill="#D4A181"/>
<path fill-rule="evenodd" clip-rule="evenodd" d="M449.534 116L438.119 116.761C435.307 142.229 419.995 158.315 385.71 152.869L381.155 185.666C413.199 189.813 441.302 176.967 447.062 142.186C448.553 133.182 449.73 123.812 449.534 116Z" fill="#AFB9C5"/>
<path fill-rule="evenodd" clip-rule="evenodd" d="M455.165 112.677L437.87 116.644C437.87 146.43 428.394 165.434 423.534 187.333H470.244C470.902 194.901 471.306 202.678 471.516 210.667H506.49C498.565 168.443 481.837 135.776 456.307 112.667H455.174L455.165 112.677Z" fill="#C5CFD6"/>
<path fill-rule="evenodd" clip-rule="evenodd" d="M462.874 144.839C464.078 163.4 463.37 177.565 460.75 187.333H470.243C468.94 172.343 466.64 158.178 462.874 144.839V144.839Z" fill="black" fill-opacity="0.1"/>
</g>
</g>
<path fill-rule="evenodd" clip-rule="evenodd" d="M122.754 93.5329C119.554 89.7724 117.389 85.1638 117.75 79.9998C118.793 65.1209 139.478 68.394 143.501 75.9037C147.525 83.4133 147.047 102.462 141.847 103.804C139.773 104.34 135.355 103.028 130.859 100.315L133.681 120.307H117.017L122.754 93.5329Z" fill="#B28B67"/>
<path fill-rule="evenodd" clip-rule="evenodd" d="M147.104 83.049C147.043 82.0333 146.763 80.8922 146.541 79.9212C146.255 78.6693 145.748 77.5253 145.173 76.4411C144.089 74.3998 142.731 72.5332 141.184 70.9581C138.357 68.081 134.573 66.2889 130.649 66.5539C128.668 66.6877 126.691 67.365 124.943 68.5873C123.364 69.6916 121.785 71.3632 119.882 71.3732C117.811 71.384 116.118 69.3354 114.587 68.0403C112.861 66.5803 110.98 65.4781 108.844 64.9632C105.266 64.1009 101.715 65.2002 98.8878 68.2263C95.8798 71.4465 93.4438 76.2904 94.7509 80.8827C94.9939 81.7364 95.3433 82.465 95.8872 83.0845C96.386 83.6526 97.1726 84.2727 97.3114 85.1399C97.4587 86.0617 96.6319 87.1883 96.275 87.99C95.7636 89.1384 95.317 90.3495 95.3052 91.6313C95.2858 93.7364 96.3226 95.8108 97.4905 97.2671C98.6791 98.7489 100.234 99.6524 101.942 100.13C103.084 100.449 104.261 100.658 105.455 100.638C106.048 100.629 106.584 100.487 107.168 100.383C107.736 100.283 108.03 100.459 108.468 100.811C110.502 102.448 112.792 103.174 115.336 103.106C117.484 103.048 119.991 102.65 121.882 101.205C123.982 99.5992 124.181 97.2195 123.98 94.6516C124.436 94.9348 125.75 95.1736 125.056 94.1139C124.781 93.6942 124.202 93.4947 123.822 93.2343C123.379 92.9312 122.937 92.5475 122.616 92.0778C121.321 90.1813 123.177 86.598 125.091 86.1065C127.934 85.3762 128.138 89.5599 129.997 90.7533C131.066 91.4394 132.332 90.6694 133.265 89.8609C134.514 88.7779 135.439 87.2983 136.262 85.7852C136.939 84.5392 137.58 83.2728 138.268 82.0338C138.588 81.4552 139.662 79.8297 139.274 79.1293C141.288 78.832 143.398 79.8396 144.983 81.0884C145.638 81.6046 146.122 82.1591 146.413 83.0172C146.475 83.2011 146.597 83.7438 146.814 83.779C147.218 83.8448 147.119 83.3042 147.104 83.049Z" fill="#020204"/>
<path fill-rule="evenodd" clip-rule="evenodd" d="M111.514 177.842L144.899 266.299L168.3 331.496H181.643L149.476 177.842L111.514 177.842Z" fill="#1F28CF"/>
<path fill-rule="evenodd" clip-rule="evenodd" d="M103.262 177.842C102.899 208.194 103.162 249.056 102.316 250.948C101.753 252.21 84.2194 266.58 49.7166 294.061L56.5941 305.771C97.5568 279.32 119.085 264.333 121.18 260.809C124.321 255.522 140.103 206.879 148.314 177.842H103.262Z" fill="#2B44FF"/>
<path fill-rule="evenodd" clip-rule="evenodd" d="M37.617 301.943L49.2351 293.088L58.6072 304.272C59.3273 312.705 62.1145 322.161 66.9688 332.642L64.8408 334.43L47.8817 314.192L43.1439 306.374L42.0799 307.268L37.617 301.943Z" fill="#F2F2F2"/>
<path fill-rule="evenodd" clip-rule="evenodd" d="M167.062 344.01L167.756 329.41H182.337C189.251 334.277 198.278 338.217 209.417 341.229V344.01H183.032L174.005 342.62V344.01H167.062Z" fill="#F2F2F2"/>
<path fill-rule="evenodd" clip-rule="evenodd" d="M170.367 169.048L192.516 185.333C198.523 186.956 203.542 188.976 207.572 191.391C208.524 192.26 209.675 194.019 205.727 193.715C201.778 193.411 197.611 193.269 197.067 194.618C196.522 195.966 198.911 197.579 197.81 199.398C197.076 200.611 193.607 197.57 187.404 190.274L165.471 181.167L170.367 169.048ZM85.3283 169.61L99.8384 169.667C90.8791 198.627 86.0424 213.993 85.3283 215.765C83.7216 219.752 87.1216 225.824 88.5755 229.087C83.84 231.209 84.3446 223.351 78.3709 226.134C72.9184 228.674 68.7707 233.277 62.4711 229.385C61.6966 228.906 60.8479 227.104 62.8985 225.696C68.0073 222.189 75.3695 216.05 76.3642 214.029C77.7208 211.273 80.7088 196.467 85.3283 169.61Z" fill="#B28B67"/>
<path fill-rule="evenodd" clip-rule="evenodd" d="M126.564 108.643L132.568 107.612C154.845 126.882 163.995 163.901 191.301 183.511L184.729 191.669C137.357 185.796 125.616 140.641 126.564 108.643Z" fill="#E87613"/>
<path fill-rule="evenodd" clip-rule="evenodd" d="M100.39 184.196C124.464 184.196 142.173 184.196 153.516 184.196C155.943 184.196 155.486 180.686 155.135 178.915C151.085 158.474 135.275 136.44 135.275 107.342L119.951 104.936C107.276 125.348 102.893 150.479 100.39 184.196Z" fill="#DDE3E9"/>
<path fill-rule="evenodd" clip-rule="evenodd" d="M100.817 125C98.5914 124.36 96.829 122.865 95.5297 120.518C89.9288 110.398 91.9515 104.827 97.9371 102.995C103.923 101.164 109.261 104.936 118.797 104.936C119.316 104.936 119.791 104.969 120.223 105.034L125.02 105.308C138.783 152.016 142.579 183.179 136.408 198.797H94.5936C92.1162 204.581 89.7455 209.448 87.4815 213.397H76.0879C75.0156 178.681 83.2587 149.215 100.817 125Z" fill="#FF9B21"/>
<path fill-rule="evenodd" clip-rule="evenodd" d="M103.699 174.809C105.014 185.826 107.151 193.822 110.111 198.797H94.5935C97.4834 192.049 100.518 184.053 103.699 174.809H103.699Z" fill="black" fill-opacity="0.1"/>
<defs>
<clipPath id="clip0_389_3220">
<rect width="411" height="378" fill="white" transform="translate(132)"/>
</clipPath>
<clipPath id="clip1_389_3220">
<rect width="380" height="480" fill="white" transform="translate(182 -24)"/>
</clipPath>
</defs>
</svg>
