<svg width="671" height="322" viewBox="0 0 671 322" fill="none" xmlns="http://www.w3.org/2000/svg">
<g opacity="0.504511">
<path fill-rule="evenodd" clip-rule="evenodd" d="M670.037 212.484C678.423 243.664 475.039 264.002 299.982 249.808C124.925 235.615 44.6166 180.189 128.151 150.656C211.685 121.122 661.651 181.303 670.037 212.484Z" fill="#D9D9D9"/>
</g>
<path fill-rule="evenodd" clip-rule="evenodd" d="M168.995 20.2891C166.773 19.1852 163.81 20.4655 165.046 23.384C166.37 26.5093 171.264 26.5479 174.028 26.4859C173.751 26.4714 172.86 23.6055 172.555 23.1724C171.656 21.8949 170.361 20.9691 168.995 20.2891ZM194.597 76.3218C195.158 76.8021 194.643 76.3668 194.597 76.3218V76.3218ZM166.854 34.4248C165.554 35.4207 165.492 37.1791 166.554 38.3694C167.819 39.7863 170.129 39.7347 171.853 39.5966C172.632 39.5341 176.797 39.2 175.81 38.5173C175.885 38.546 176.044 38.6157 176.214 38.7105C176.305 39.0448 176.401 39.378 176.501 39.7096C176.476 39.724 176.455 39.7394 176.429 39.7537C176.458 39.7412 176.478 39.7278 176.503 39.7151C177.504 43.0301 178.929 46.1864 180.796 49.1393C180.097 48.8638 179.374 48.6552 178.641 48.5624C176.468 48.2871 171.898 49.9786 174.328 52.8766C176.658 55.6549 180.286 52.6743 182.93 52.2632C185.495 55.8499 188.323 59.2872 191.286 62.6096C191.105 62.6666 190.946 62.7853 190.854 62.9702C189.665 62.3658 188.426 61.5012 187.326 61.2672C185.738 60.9299 182.482 60.7254 181.282 62.1494C179.806 63.9004 181.388 65.3226 183.132 65.6584C185.661 66.1455 188.971 64.9076 191.404 64.0712C191.682 64.1205 191.986 64.039 192.168 63.8159C192.222 63.7983 192.275 63.7809 192.328 63.764C195.329 67.0702 198.445 70.2673 201.542 73.3943C201.509 73.3926 201.476 73.3906 201.442 73.3888C200.634 72.8579 199.767 72.4223 198.828 72.1941C196.655 71.6635 194.099 71.6609 192.335 73.2361C190.579 74.8046 189.957 77.5478 191.774 79.3091C195.411 82.8347 200.77 74.7961 202.605 74.4606C205.752 77.605 209.08 80.5428 212.46 83.4214C212.076 83.3043 211.683 83.2182 211.276 83.1795C207.961 82.8616 200.181 86.9332 204.249 90.9391C207.794 94.4299 211.897 87.711 214.754 85.3612C217.939 88.0442 221.142 90.7087 224.254 93.4771C222.557 93.0255 220.916 92.9589 219.096 93.5099C217.213 94.0809 214.174 95.5056 215.365 98.0531C216.575 100.644 220.224 99.4649 222.125 98.6424C223.162 98.1938 225.24 96.6798 227.065 96.042C232.032 100.741 236.334 105.916 239.591 112.012C241.625 115.819 243.168 119.885 244.254 124.065C244.947 126.733 246.313 131.214 246.04 134.686C247.343 127.735 244.986 119.388 242.448 113.175C240.113 107.463 236.619 102.448 232.527 97.9336C233.554 94.8389 242.198 90.3754 237.03 87.5002C234.286 85.98 231.476 88.5025 230.876 91.1741C230.464 93.0099 231.092 95.3167 231.758 97.0985C230.471 95.7225 229.132 94.3906 227.753 93.103C225.848 91.3235 223.896 89.5955 221.926 87.8893C225.172 84.8336 228.245 76.0978 223.892 74.6691C217.464 72.5654 220.559 84.4813 221.008 86.7146C221.135 86.7221 221.234 86.6836 221.307 86.601C221.271 86.8055 221.229 87.0242 221.178 87.2447C217.408 83.9962 213.581 80.8116 209.881 77.4854C210.214 77.2385 210.744 76.2951 211.161 75.793C212.101 74.661 213 73.4785 213.657 72.1542C214.696 70.0615 215.697 66.7235 212.945 65.4926C209.951 64.1515 208.529 67.9268 208.508 70.179C208.494 71.7366 208.917 73.2163 209.137 74.7431C209.206 75.2192 208.941 77.3656 209.588 76.4423C209.558 76.7827 209.553 77.0293 209.569 77.2041C208.904 76.6039 208.245 75.9973 207.59 75.3863C207.62 75.3091 207.643 75.225 207.648 75.1274C207.683 74.456 207.009 74.1974 206.536 74.3941C205.671 73.5711 204.815 72.7377 203.975 71.8878C202.193 70.0871 200.385 68.2351 198.59 66.3436C198.98 66.0084 198.825 65.5442 199.189 65.1883C199.553 64.8332 200.269 64.6368 200.697 64.307C201.772 63.4769 202.664 62.2676 203.309 61.0775C204.374 59.111 205.75 54.9857 202.639 54.0485C199.433 53.0809 197.805 57.0519 197.599 59.5346C197.559 60.0155 197.918 64.3493 198.194 65.923C194.872 62.4078 191.605 58.7607 188.645 55.05C189.543 55.0417 192.087 53.1995 192.601 52.6969C193.856 51.4708 195.851 48.7616 193.651 47.3279C191.695 46.0563 189.283 47.8981 188.447 49.6881C188.309 49.9828 187.824 52.7261 187.787 53.9569C186.562 52.3834 185.393 50.8006 184.306 49.2127C183.581 48.1571 182.903 47.0735 182.269 45.9669C182.422 45.8802 182.565 45.7291 182.701 45.5412C185.964 44.9863 190.124 39.8856 186.291 38.1109C184.467 37.267 182.488 39.009 181.594 40.4351C181.411 40.7269 181.114 42.1938 180.873 43.3508C179.049 39.6848 177.655 35.8037 176.595 31.8243C176.879 31.7536 177.119 31.5362 177.151 31.1623C178.735 30.2574 179.986 29.504 181.092 27.764C181.779 26.6832 183.016 24.214 180.997 23.6142C178.37 22.8336 176.72 26.8538 176.505 28.8339C176.48 29.0637 176.481 29.7322 176.49 30.3448C176.399 30.3324 176.307 30.3338 176.216 30.3498C175.613 27.8857 175.131 25.3899 174.748 22.89C176.182 22.4276 176.43 14.883 175.475 13.8087C173.341 11.4033 171.836 14.878 171.95 16.7145C172.084 18.8799 173.064 20.8496 174.23 22.5977C174.355 22.7829 174.319 22.7739 174.352 22.516C174.37 22.6435 174.412 22.7375 174.475 22.8057C174.415 23.9455 174.298 25.1125 174.354 26.1211C174.516 29.0095 174.851 31.9147 175.339 34.7659C175.458 35.4594 175.593 36.1472 175.746 36.829C174.593 35.8453 173.039 34.9713 172.432 34.698C170.853 33.9893 168.422 33.2242 166.854 34.4248ZM246.225 134.696C246.152 135.703 245.97 136.625 245.632 137.386C245.886 136.52 246.08 135.62 246.225 134.696Z" fill="#F2F2F2"/>
<path opacity="0.2" fill-rule="evenodd" clip-rule="evenodd" d="M174.859 7.92012C176.446 7.13156 178.562 8.04611 177.679 10.1307C176.734 12.3631 173.238 12.3907 171.264 12.3464C171.461 12.336 172.098 10.2889 172.316 9.97962C172.958 9.0671 173.883 8.40578 174.859 7.92012ZM156.583 48.5948C156.023 49.075 156.538 48.6398 156.583 48.5948V48.5948ZM176.704 18.2845C177.653 19.0042 177.697 20.2757 176.921 21.1367C175.997 22.1618 174.311 22.1253 173.052 22.0261C172.483 21.9812 169.443 21.7412 170.163 21.2471C170.108 21.2679 169.992 21.3184 169.868 21.387C169.801 21.6288 169.731 21.8697 169.658 22.1096C169.676 22.1199 169.691 22.1311 169.71 22.1414C169.69 22.1324 169.675 22.1227 169.657 22.1135C168.925 24.5109 167.883 26.7938 166.519 28.9297C167.029 28.7303 167.557 28.5792 168.093 28.5118C169.679 28.3119 173.015 29.5333 171.24 31.6298C169.537 33.6396 166.89 31.4857 164.959 31.1894C163.085 33.7839 161.019 36.2704 158.854 38.6739C158.987 38.7151 159.103 38.8009 159.17 38.9345C160.038 38.4971 160.943 37.8714 161.746 37.7018C162.906 37.4573 165.283 37.3082 166.159 38.3375C167.236 39.603 166.08 40.632 164.807 40.8755C162.96 41.2286 160.544 40.3348 158.768 39.7309C158.564 39.7666 158.343 39.7078 158.21 39.5466C158.171 39.5338 158.132 39.5213 158.094 39.5091C155.901 41.9009 153.625 44.2139 151.362 46.4761C151.386 46.4749 151.41 46.4734 151.435 46.4721C152.025 46.0879 152.658 45.7726 153.344 45.6073C154.931 45.2228 156.798 45.2199 158.084 46.3583C159.366 47.4919 159.82 49.4752 158.492 50.7495C155.835 53.3001 151.925 47.4895 150.586 47.2475C148.287 49.5224 145.856 51.648 143.387 53.7307C143.667 53.6459 143.954 53.5835 144.252 53.5554C146.672 53.3243 152.351 56.2655 149.379 59.1637C146.79 61.6892 143.797 56.8323 141.712 55.1343C139.385 57.0755 137.045 59.0034 134.772 61.0064C136.011 60.6792 137.209 60.6304 138.538 61.0282C139.913 61.4404 142.131 62.4694 141.261 64.312C140.376 66.1857 137.712 65.3346 136.325 64.7406C135.568 64.4166 134.051 63.3226 132.719 62.8621C129.09 66.2614 125.947 70.0052 123.567 74.4146C122.081 77.1678 120.952 80.1089 120.158 83.1317C119.651 85.0611 118.652 88.3016 118.85 90.8123C117.901 85.787 119.625 79.75 121.481 75.2569C123.187 71.1252 125.74 67.4976 128.73 64.2319C127.981 61.9945 121.672 58.7702 125.446 56.6892C127.45 55.5889 129.501 57.4119 129.938 59.3435C130.238 60.6708 129.779 62.3391 129.292 63.6278C130.232 62.6323 131.21 61.6687 132.217 60.7372C133.609 59.4496 135.035 58.1994 136.474 56.965C134.104 54.7566 131.864 48.4409 135.043 47.4062C139.737 45.8826 137.473 54.5001 137.145 56.1152C137.052 56.1207 136.979 56.0928 136.926 56.0331C136.952 56.181 136.983 56.3392 137.02 56.4986C139.774 54.1482 142.569 51.844 145.272 49.4375C145.029 49.2591 144.642 48.5771 144.338 48.2142C143.653 47.396 142.996 46.5412 142.517 45.5839C141.759 44.0711 141.029 41.6578 143.04 40.7667C145.226 39.7958 146.263 42.5252 146.277 44.1537C146.287 45.28 145.978 46.3502 145.816 47.4542C145.765 47.7986 145.959 49.3505 145.486 48.6831C145.508 48.9292 145.511 49.1075 145.5 49.2339C145.986 48.7997 146.467 48.3608 146.946 47.9187C146.924 47.863 146.907 47.8021 146.903 47.7316C146.878 47.2461 147.371 47.0589 147.716 47.2009C148.347 46.6055 148.972 46.0025 149.587 45.3876C150.888 44.0849 152.209 42.7451 153.52 41.3767C153.236 41.1344 153.349 40.7987 153.083 40.5415C152.818 40.2849 152.295 40.1431 151.983 39.9048C151.198 39.305 150.547 38.4309 150.077 37.5705C149.3 36.1489 148.297 33.1665 150.568 32.4876C152.91 31.7868 154.097 34.6576 154.246 36.4527C154.275 36.8005 154.011 39.9344 153.81 41.0724C156.236 38.5293 158.623 35.8909 160.785 33.2067C160.13 33.201 158.273 31.8699 157.898 31.5066C156.982 30.6205 155.526 28.6622 157.133 27.6247C158.562 26.7045 160.322 28.0354 160.932 29.3294C161.033 29.5424 161.386 31.5259 161.413 32.4159C162.308 31.2777 163.162 30.1327 163.956 28.9841C164.486 28.2205 164.981 27.4367 165.444 26.6363C165.333 26.5737 165.228 26.4645 165.129 26.3286C162.747 25.9286 159.711 22.2419 162.51 20.9572C163.843 20.3463 165.287 21.6051 165.939 22.6361C166.073 22.847 166.289 23.9076 166.465 24.7441C167.798 22.0926 168.817 19.2856 169.593 16.4077C169.385 16.3567 169.21 16.1996 169.187 15.9293C168.03 15.2756 167.117 14.7312 166.311 13.4734C165.809 12.6922 164.907 10.9072 166.381 10.4727C168.299 9.9073 169.503 12.8136 169.659 14.2454C169.677 14.4116 169.676 14.8949 169.67 15.3379C169.736 15.3289 169.804 15.3299 169.87 15.3414C170.311 13.5594 170.664 11.7545 170.944 9.94667C169.897 9.61286 169.719 4.15748 170.417 3.38032C171.976 1.64019 173.073 4.15219 172.99 5.48017C172.891 7.046 172.175 8.47069 171.323 9.73519C171.231 9.8691 171.257 9.86259 171.234 9.67612C171.221 9.7683 171.189 9.83634 171.143 9.88563C171.187 10.7098 171.272 11.5536 171.231 12.2829C171.112 14.3716 170.865 16.4725 170.508 18.5344C170.421 19.0358 170.322 19.5332 170.211 20.0263C171.052 19.3146 172.187 18.682 172.631 18.4842C173.784 17.9711 175.56 17.417 176.704 18.2845ZM118.661 90.614C118.717 91.2852 118.882 91.8977 119.207 92.3995C118.969 91.8258 118.79 91.2285 118.661 90.614Z" fill="#C1DEE2"/>
<g opacity="0.5">
<path fill-rule="evenodd" clip-rule="evenodd" d="M170.397 76.3091C172.297 73.5952 175.822 66.703 178.496 65.7332C180.218 65.1086 179.716 71.5696 179.737 72.8016C179.82 77.5679 179.357 82.304 178.785 87.0303C177.754 95.5542 174.385 103.145 169.764 110.4C167.386 114.133 164.597 117.911 160.734 120.24C158.956 121.313 156.816 121.493 155.06 122.417C153.015 123.493 154.129 122.623 153.207 124.758C151.927 127.723 151.518 131.548 150.925 134.711C148.206 149.232 141.623 225.996 142.764 240.767C142.866 242.076 141.044 242.389 140.953 240.791C140.469 232.316 144.653 173.63 146.763 154.437C148.874 135.245 151.01 118.289 153.151 111.649C155.749 103.594 160.442 93.9062 164.348 86.394C166.162 82.9039 168.14 79.5341 170.397 76.3091Z" fill="#69A1AC"/>
<path fill-rule="evenodd" clip-rule="evenodd" d="M184.496 170.439C189.44 166.803 194.79 173.665 190.317 177.302C187.844 179.312 185.259 178.597 183.804 176.922C182.859 178.076 181.975 179.282 181.125 180.301C178.536 183.406 176.09 186.585 173.751 189.839C168.894 196.598 164.731 203.738 160.379 210.748C156.083 217.667 151.822 224.621 147.929 231.715C144.631 237.725 140.235 244.795 139.105 251.384C140.819 237.41 147.32 223.979 155.062 211.66C162.74 199.442 171.552 186.098 183.442 176.456C182.232 174.673 182.198 172.128 184.496 170.439Z" fill="#C1DEE2"/>
<path fill-rule="evenodd" clip-rule="evenodd" d="M90.6983 136.359C93.4645 136.901 97.9843 143.17 100.264 145.559C102.974 148.398 105.433 151.423 107.75 154.593C112.739 161.417 117.2 168.672 120.994 176.237C127.179 188.57 132.134 201.231 135.73 214.661C137.932 222.882 139.357 231.403 140.202 239.865C140.361 241.46 142.031 253.763 139.625 254.095C137.461 254.393 138.129 244.753 138.025 243.442C136.845 228.647 133.309 214.252 128.392 200.308C127.321 197.27 126.325 193.549 124.612 190.816C123.379 188.847 124.604 189.533 122.436 188.788C120.574 188.148 118.453 188.304 116.547 187.521C112.406 185.819 109.091 182.516 106.184 179.194C100.536 172.737 96.0599 165.751 93.7267 157.478C92.4325 152.89 91.2431 148.276 90.5831 143.547C90.4124 142.325 88.9167 136.01 90.6983 136.359Z" fill="#69A1AC"/>
<path fill-rule="evenodd" clip-rule="evenodd" d="M101.614 32.0468C112.034 50.1516 120.596 70.0393 126.125 90.1825C129.474 102.387 131.817 114.911 134.144 127.344C137.748 146.595 141.157 165.845 142.127 185.438C143.102 205.145 145.031 227.874 138.591 246.855C141.808 227.585 138.745 207.072 138.202 187.682C137.943 178.426 137.192 169.26 136.207 160.057C135.251 151.13 133.689 142.246 132.235 133.389C131.526 129.076 130.782 124.769 130.025 120.464C129.799 119.18 129.703 115.369 128.89 114.492C128.072 113.609 123.896 113.249 122.585 112.601C119.946 111.296 117.463 109.442 115.265 107.483C111.053 103.728 107.388 98.8218 104.496 93.9853C97.8031 82.7944 95.1274 69.1375 95.2627 56.177C95.2887 53.6607 99.3277 26.5638 97.7056 26.1907C97.8032 26.0761 97.8956 25.9577 97.9827 25.8346C99.2108 27.8948 100.416 29.969 101.614 32.0468Z" fill="#89C5CC"/>
<path fill-rule="evenodd" clip-rule="evenodd" d="M214.074 97.3435C214.235 97.1112 215.281 95.4953 214.755 95.5986C215.827 95.3883 213.279 97.3807 215.952 96.1582C214.683 97.3592 215.415 98.9193 215.432 100.536C215.46 103.16 215.022 105.763 214.528 108.331C213.749 112.39 212.588 116.337 210.902 120.112C207.228 128.34 200.99 136.261 193.584 141.405C189.928 143.944 186.345 144.809 182.176 145.978C179.542 146.717 179.333 148.082 177.935 150.643C175.024 155.976 172.166 161.29 169.599 166.804C166.534 173.387 163.558 179.978 160.752 186.678C151.297 209.244 143.601 232.624 139.56 256.819C139.461 242.561 142.753 227.876 146.906 214.285C149.93 204.384 153.868 194.839 158.069 185.39C159.086 183.101 160.629 180.157 161.061 177.63C161.364 175.859 160.438 174.156 160.015 172.291C158.363 165.028 158.481 156.89 159.932 149.588C161.531 141.536 166.155 137.798 173.978 136.658C176.839 136.24 180.476 136.393 183.099 135.171C185.957 133.84 187.136 129.465 188.761 126.657C193.127 119.113 198.313 111.878 204.269 105.522C205.918 103.762 207.692 102.138 209.573 100.633C210.759 99.6833 213.266 98.5133 214.074 97.3435Z" fill="#89C5CC"/>
<path fill-rule="evenodd" clip-rule="evenodd" d="M126.354 241.42H154.117C155.365 241.42 156.377 242.434 156.377 243.685C156.377 243.795 156.369 243.906 156.353 244.015L154.207 258.594C153.553 263.038 149.747 266.33 145.263 266.33H135.208C130.724 266.33 126.918 263.038 126.264 258.594L124.118 244.015C123.936 242.778 124.79 241.627 126.024 241.444C126.134 241.428 126.244 241.42 126.354 241.42Z" fill="#C1DEE2"/>
</g>
<path fill-rule="evenodd" clip-rule="evenodd" d="M99.3232 248.873C99.3232 258.515 100.083 266.33 110.275 266.33C120.468 266.33 121.227 258.515 121.227 248.873" fill="#F2F2F2"/>
<path fill-rule="evenodd" clip-rule="evenodd" d="M113.308 242.858C112.934 243.505 112.601 244.165 112.307 244.835C112.296 243.455 112.372 242.065 112.58 240.656C112.936 238.242 113.479 235.841 113.989 233.444C114.356 231.721 114.332 228.626 115.724 227.253C116.106 226.957 116.198 227.539 116.198 227.791C116.202 227.845 116.197 226.76 115.826 226.949C113.624 228.089 112.911 231.671 112.206 233.465C111.178 236.083 110.303 238.759 109.942 241.483C109.851 242.171 109.802 242.859 109.79 243.545C109.715 243.362 109.645 243.177 109.567 242.994C108.297 240.007 106.582 237.094 104.443 234.406C103.916 233.745 97.2967 227.221 96.7785 228.22C96.8296 228.365 96.9366 228.485 97.0999 228.581C97.1095 228.592 97.1097 228.586 97.1041 228.569C97.4929 229.199 98.5983 230.171 98.9426 230.722C99.8091 232.109 100.483 233.582 101.167 235.026C102.613 238.078 103.954 241.161 105.255 244.251C105.557 244.971 105.873 245.686 106.195 246.4C102.876 241.603 98.4486 237.249 92.354 234.757C94.4356 235.818 95.8004 237.814 97.2061 239.342C98.9016 241.186 100.687 242.98 102.386 244.822C104.39 246.994 106.747 249.282 108.674 251.686C110.541 255.612 112.355 259.543 113.475 263.671C113.016 262.245 113.439 260.274 113.36 258.777C113.298 257.586 113.159 256.404 112.969 255.225C113.204 255.757 113.407 256.289 113.499 256.785C113.415 255.954 113.318 255.129 113.214 254.308C113.481 253.539 113.743 252.822 113.919 252.231C114.826 249.201 115.905 246.222 117.374 243.319C118.734 240.634 120.293 237.983 121.993 235.412C122.786 234.214 123.589 233.02 124.388 231.824C124.911 231.041 125.408 229.787 126.136 229.037C121.432 233.347 116.292 237.687 113.308 242.858Z" fill="#F2F2F2"/>
<path fill-rule="evenodd" clip-rule="evenodd" d="M604.827 47.8109C603.219 43.39 599.853 40.0525 596.384 37.017C589.63 31.1076 585.968 27.4238 583.156 18.3677C581.503 13.0415 579.806 7.39418 575.331 3.7208C572.073 1.04574 566.612 -1.0431 562.596 1.24234C556.456 5.41727 555.202 13.3239 556.251 20.2774C557.551 28.8957 561.902 34.003 569.848 36.7423C574.325 38.2849 577.37 40.4872 579.985 44.4815C582.076 47.6754 583.424 51.7489 585.984 54.6056C589.812 58.8759 594.392 60.6065 599.851 59.5421C594.144 50.3421 587.564 41.1035 579.836 33.5278C579.109 32.7632 574.92 29.9189 575.649 28.5013C576.452 26.9404 580.898 32.3691 580.867 32.3365C583.119 34.6409 585.222 37.1065 587.292 39.599C587.287 39.6018 587.282 39.6035 587.276 39.6065C589.407 42.1637 591.523 44.7612 593.605 47.3949C594.45 48.511 595.274 49.6432 596.069 50.8067C597.234 52.514 599.213 57.4372 601.015 58.4238C601.401 58.6348 601.752 58.7447 602.077 58.7797C603.377 60.6567 604.645 62.5513 605.859 64.4723C609.028 69.4896 611.807 74.8201 613.278 80.6074C613.707 82.2965 613.846 88.7004 615.082 89.8658C617.341 91.9976 616.465 87.69 616.261 86.3863C614.572 75.5903 610.142 66.5669 603.962 57.768C605.565 55.3962 605.479 49.6022 604.827 47.8109Z" fill="#F2F2F2"/>
<path fill-rule="evenodd" clip-rule="evenodd" d="M546.017 61.1753C548.264 58.5225 553.666 58.0724 556.97 58.25C561.058 58.4697 565.257 59.4668 569.146 60.6725C575.553 62.6583 581.779 66.2824 587.422 69.79C588.102 70.2127 596.479 75.2606 595.738 76.1465C595.003 77.0241 586.779 71.028 584.946 69.9946C581.035 67.7886 577.448 65.1798 573.136 63.7231C568.672 62.2145 563.951 61.6171 559.257 61.6583C558.654 61.6637 556.689 61.2428 556.647 62.1359C556.605 63.0093 559.857 62.5536 560.43 62.5588C562.798 62.5806 565.181 62.804 567.516 63.2152C571.89 63.9855 576.002 65.5375 579.749 67.9178C578.704 70.3531 576.198 71.4759 573.569 70.8665C571.297 70.3395 569.082 69.0404 566.857 68.6647C565.325 68.406 563.791 68.5599 562.305 68.9924C558.386 70.1336 556.126 72.4714 551.817 70.8452C548.439 69.5704 542.789 64.9903 546.017 61.1753Z" fill="#F2F2F2"/>
<path fill-rule="evenodd" clip-rule="evenodd" d="M548.558 36.111H549.622C549.547 34.7592 549.45 33.4097 549.222 32.073C548.368 27.0629 545.695 19.7042 539.835 18.891C539.619 18.8607 538.824 18.8556 537.86 18.9116C537.404 18.6588 536.892 18.5058 536.353 18.4707C531.364 18.1061 525.791 22.096 523.385 26.248C521.444 29.5957 521.771 33.9916 522.97 37.5482C523.772 39.9293 525.524 43.3242 528.444 43.3573C532.099 43.3987 532.275 38.922 532.346 36.3049C532.439 32.8256 532.883 29.7947 535.649 27.4231C536.294 26.8706 536.998 26.3845 537.65 25.8397C538.669 24.9869 539.796 24.1138 539.927 22.703C540.109 20.7567 539 20.4064 537.308 20.768C537.019 20.8295 534.113 22.1221 534.543 21.1004C534.675 20.7884 535.155 20.541 535.76 20.3557C537.327 20.1868 539.196 19.9909 539.734 20.1079C545.532 21.3688 547.79 29.3299 548.389 34.388C548.457 34.9607 548.511 35.5354 548.558 36.111H548.558Z" fill="#F2F2F2"/>
<path fill-rule="evenodd" clip-rule="evenodd" d="M586.936 150.978C588.326 150.808 589.81 150.868 591.103 151.416C593.852 152.583 594.633 155.831 594.595 158.47C594.555 161.311 593.951 164.415 596.111 166.704C597.104 167.756 598.339 168.561 599.314 169.633C600.356 170.778 601.173 172.089 601.779 173.496C602.89 176.081 603.435 179.12 602.419 181.832C601.524 184.219 599.273 186.374 599.76 189.088C600.267 191.92 603.122 194.085 604.907 196.194C606.927 198.581 608.787 201.632 609.093 204.762C609.386 207.762 608.08 210.796 606.076 213.063C602.072 217.595 596.053 219.816 589.985 219.802C587.408 219.796 584.491 219.68 582.267 218.295C581.58 217.867 581.218 217.387 580.809 216.72C580.443 216.121 579.959 215.732 579.399 215.308C578.168 214.378 577.28 213.124 576.713 211.721C574.511 206.27 576.271 199.526 579.353 194.686C580.083 193.539 580.681 192.436 580.327 191.069C579.956 189.642 579.046 188.355 578.241 187.128C577.446 185.916 576.538 184.759 575.916 183.449C575.265 182.076 575.082 180.638 575.197 179.135C575.413 176.313 576.631 173.708 578.357 171.438C580.018 169.251 581.969 167.159 581.973 164.294C581.978 161.258 579.948 158.556 580.813 155.469C581.171 154.191 581.89 152.879 583.05 152.113C584.161 151.378 585.629 151.137 586.936 150.978Z" fill="#DDE3E9"/>
<path fill-rule="evenodd" clip-rule="evenodd" d="M586.028 155.832C586.054 155.424 586.538 155.18 586.919 155.286C587.42 155.426 587.41 155.895 587.397 156.312C587.357 157.594 587.542 158.841 587.851 160.085C588.491 162.673 589.676 165.057 590.614 167.542C591.551 170.026 591.991 172.59 591.442 175.218C590.923 177.695 590.109 180.109 589.578 182.589C589.11 184.776 588.613 187.082 589.325 189.263C590.01 191.362 591.525 193.071 592.616 194.969C594.875 198.896 595.877 203.253 596.011 207.736C596.073 209.818 596.017 211.919 595.534 213.961C595.256 215.137 594.882 216.726 593.875 217.538C593.41 217.912 592.616 218.041 592.225 217.487C591.857 216.967 592.18 216.162 592.296 215.608C592.801 213.209 592.902 210.757 592.782 208.322C592.665 205.962 592.386 203.607 591.643 201.353C590.954 199.262 589.907 197.384 588.675 195.554C587.419 193.69 586.113 191.822 585.595 189.613C585.067 187.37 585.496 185.087 586.068 182.886C586.674 180.559 587.467 178.298 588.287 176.033C589.087 173.827 589.37 171.739 588.929 169.429C588.057 164.866 585.724 160.584 586.028 155.832Z" fill="#C5CFD6"/>
<path fill-rule="evenodd" clip-rule="evenodd" d="M623.639 156.514C625.359 157.036 627.068 157.879 628.294 159.201C630.902 162.011 630.102 166.258 628.662 169.36C627.113 172.699 624.765 176.055 626.089 179.885C626.697 181.646 627.72 183.241 628.297 185.016C628.913 186.912 629.179 188.887 629.146 190.866C629.083 194.501 628.116 198.38 625.491 201.058C623.18 203.415 619.4 204.793 618.536 208.256C617.635 211.869 619.839 215.914 620.818 219.337C621.925 223.211 622.494 227.786 621.198 231.647C619.956 235.347 616.821 238.256 613.272 239.895C606.181 243.171 597.947 242.667 590.837 239.494C587.818 238.146 584.458 236.491 582.581 233.697C582.002 232.833 581.83 232.077 581.704 231.075C581.591 230.176 581.229 229.464 580.796 228.672C579.844 226.932 579.465 224.987 579.541 223.032C579.84 215.44 585.468 208.381 591.642 204.26C593.105 203.284 594.39 202.289 594.696 200.488C595.016 198.608 594.629 196.613 594.333 194.743C594.041 192.896 593.587 191.056 593.551 189.183C593.513 187.22 594.058 185.424 594.987 183.707C596.732 180.481 599.538 178.035 602.761 176.248C605.866 174.526 609.26 173.067 610.78 169.681C612.39 166.092 611.437 161.842 614.083 158.641C615.179 157.315 616.716 156.138 618.48 155.835C620.173 155.544 622.021 156.023 623.639 156.514Z" fill="#DDE3E9"/>
<path fill-rule="evenodd" clip-rule="evenodd" d="M620.125 162.448C620.369 161.979 621.063 161.943 621.453 162.269C621.966 162.697 621.709 163.247 621.475 163.734C620.756 165.232 620.32 166.805 620.029 168.441C619.423 171.841 619.559 175.285 619.355 178.72C619.15 182.152 618.322 185.419 616.303 188.243C614.399 190.905 612.182 193.336 610.263 195.996C608.571 198.34 606.781 200.81 606.472 203.766C606.174 206.611 607.05 209.43 607.332 212.248C607.916 218.083 606.806 223.767 604.615 229.147C603.597 231.645 602.431 234.104 600.797 236.269C599.856 237.516 598.587 239.202 596.984 239.635C596.245 239.835 595.248 239.572 595.081 238.71C594.924 237.902 595.722 237.118 596.148 236.522C597.995 233.946 599.398 231.096 600.532 228.148C601.631 225.293 602.539 222.357 602.851 219.299C603.14 216.462 602.899 213.688 602.416 210.876C601.924 208.01 601.376 205.114 601.926 202.226C602.485 199.293 604.181 196.814 606.003 194.508C607.931 192.069 610.042 189.807 612.187 187.555C614.277 185.361 615.702 183.037 616.396 180.071C617.766 174.211 617.281 167.916 620.125 162.448Z" fill="#C5CFD6"/>
<path fill-rule="evenodd" clip-rule="evenodd" d="M570.46 178.069C573.321 178.069 575.835 179.585 577.568 181.736C579.597 184.255 580.006 187.331 580.83 190.333C581.24 191.826 581.945 193.309 583.18 194.324C584.304 195.247 585.73 195.432 587.075 195.883C589.763 196.784 591.933 198.955 592.79 201.604C593.836 204.835 592.728 208.094 592.919 211.369C593.094 214.376 596.059 216.253 598.445 217.694C600.797 219.116 602.917 220.447 603.625 223.216C604.377 226.153 604.629 229.432 603.588 232.333C601.855 237.165 596.785 239.292 591.885 239.622C587.439 239.921 581.848 239.451 578.509 236.224C576.51 234.292 575.787 231.591 575.876 228.903C575.932 227.232 576.263 225.577 576.691 223.962C576.995 222.817 577.405 221.677 577.521 220.494C577.832 217.348 574.923 216.743 572.448 215.879C569.302 214.781 567.099 212.707 565.568 209.818C564.142 207.128 563.543 204.108 564.398 201.146C564.835 199.633 565.627 198.261 566.701 197.094C567.174 196.58 567.84 196.152 568.267 195.612C568.665 195.108 568.579 194.455 568.441 193.864C567.807 191.137 565.829 188.879 565.122 186.158C564.483 183.701 564.861 180.643 567.107 179.058C568.077 178.373 569.274 178.076 570.46 178.069Z" fill="#C5CFD6"/>
<path fill-rule="evenodd" clip-rule="evenodd" d="M574.358 185.174C577.39 188.403 578.214 192.785 578.455 197.031C578.591 199.413 578.45 201.924 579.15 204.234C579.748 206.211 581.152 207.722 582.598 209.151C585.51 212.026 588.757 214.949 589.609 219.11C590.109 221.552 589.772 224.074 590.462 226.489C591.09 228.685 592.196 230.841 593.54 232.695C594.623 234.188 596.033 235.331 597.217 236.722C597.578 237.147 598.095 237.772 597.946 238.372C597.772 239.074 596.877 239.297 596.243 239.186C594.763 238.929 593.517 237.516 592.55 236.489C591.135 234.987 589.933 233.371 588.955 231.559C587.871 229.546 586.997 227.411 586.624 225.153C586.237 222.81 586.429 220.369 585.545 218.121C584.057 214.338 580.447 212.106 577.838 209.157C574.586 205.484 575.071 200.911 575.404 196.392C575.587 193.909 575.769 191.104 574.514 188.837C574.035 187.971 572.967 187.164 572.761 186.18C572.572 185.279 573.602 184.368 574.358 185.174Z" fill="#AFB9C5"/>
<path fill-rule="evenodd" clip-rule="evenodd" d="M577.591 238.242C577.591 256.711 580.605 266.388 596.517 266.388C612.428 266.388 615.442 256.711 615.442 238.242H577.591Z" fill="#89C5CC"/>
<path d="M217.547 136.049V68.5208C217.547 65.7594 219.786 63.5208 222.547 63.5208H291.888C294.65 63.5208 296.888 65.7594 296.888 68.5208V94.2022C296.888 94.2022 293.582 96.5115 291.929 94.2022C290.277 91.8928 287.962 90.2433 283.004 90.2433C278.375 90.2433 271.103 93.5423 271.103 101.79C271.103 109.708 277.714 113.007 283.004 113.667C289.615 113.667 288.624 111.357 291.929 109.708C293.634 108.506 294.751 108.679 296.888 109.708V136.049C296.888 138.81 294.65 141.049 291.888 141.049H265.152C262.507 144.348 263.499 145.673 265.152 147.647C267.638 150.616 268.793 152.436 269.119 156.884C268.458 165.792 264.16 168.761 256.226 168.431C250.606 168.198 246.639 165.462 245.978 156.884C246.308 152.266 247.631 151.276 250.276 147.647C251.478 145.998 252.59 144.678 250.276 141.049H222.547C219.786 141.049 217.547 138.81 217.547 136.049Z" fill="#59A0E9"/>
<path d="M292.742 266.565H225.107C222.346 266.565 220.107 264.327 220.107 261.565V192.224C220.107 189.463 222.346 187.224 225.107 187.224H250.83C250.83 187.224 253.143 190.53 250.83 192.183C248.518 193.836 246.866 196.15 246.866 201.109C246.866 205.737 250.17 213.01 258.429 213.01C266.357 213.01 269.661 206.399 270.322 201.109C270.322 194.497 268.009 195.489 266.357 192.183C265.154 190.479 265.327 189.362 266.357 187.224H292.742C295.503 187.224 297.742 189.463 297.742 192.224V218.961C296.262 220.046 295.386 220.029 293.777 218.961C291.247 216.602 289.893 215.947 287.5 214.994C284.89 214.024 283.536 214.406 281.554 214.994C279.572 215.581 277.004 217.044 274.947 218.961C272.927 222.108 272.451 223.994 272.634 227.556C273.162 229.924 273.643 231.166 274.947 233.176C276.843 235.286 278.285 236.162 281.554 237.143C283.739 237.639 285.056 237.601 287.5 237.143C289.887 236.239 291.244 235.617 293.777 233.837C295.497 232.837 296.426 232.492 297.742 233.837V261.565C297.742 264.327 295.503 266.565 292.742 266.565Z" fill="#9027B5"/>
<path fill-rule="evenodd" clip-rule="evenodd" d="M176.978 137.606C181.186 137.606 182.716 132.548 185.107 129.772C186.818 127.786 189.737 128.378 190.601 125.598C192.774 118.606 186.958 113.685 179.371 113.685C171.784 113.685 166.669 118.001 165.564 124.488C164.459 130.976 169.391 137.606 176.978 137.606Z" fill="#191847"/>
<path fill-rule="evenodd" clip-rule="evenodd" d="M177.442 133.09C175.746 131.09 174.598 128.64 174.789 125.894C175.342 117.982 186.311 119.723 188.444 123.716C190.578 127.709 190.325 137.838 187.567 138.551C186.467 138.836 184.125 138.139 181.74 136.696L183.237 147.326H174.4L177.442 133.09Z" fill="#B28B67"/>
<path fill-rule="evenodd" clip-rule="evenodd" d="M181.168 128C180.847 127.83 180.479 127.733 180.088 127.733C178.836 127.733 177.821 128.726 177.821 129.951C177.821 130.451 177.99 130.912 178.275 131.283C177.738 132.172 177.372 133.106 177.252 134.066C175.39 134.066 168.596 126.994 175.364 120.339C182.133 113.685 191.914 123.184 188.975 123.738C187.285 124.057 183.882 125.677 181.168 128Z" fill="#191847"/>
<path fill-rule="evenodd" clip-rule="evenodd" d="M171.455 178.011L185.31 223.491L192.022 262.17H197.284L190.192 178.011H171.455Z" fill="#997659"/>
<path fill-rule="evenodd" clip-rule="evenodd" d="M166.498 178.011C167.439 202.982 166.332 215.863 166.121 218.131C165.91 220.4 163.026 235.111 156.198 262.931L161.806 260.998C172.597 235.482 176.274 222.221 177.512 218.871C178.749 215.52 182.036 201.9 187.373 178.011H166.498Z" fill="#B28B67"/>
<path fill-rule="evenodd" clip-rule="evenodd" d="M156.24 260.97C155.829 262.074 155.623 262.9 155.623 263.448C155.623 264.115 155.733 265.087 155.954 266.366C156.725 266.366 163.647 266.366 176.721 266.366C177.261 264.575 176.949 263.608 175.787 263.465C174.624 263.322 173.658 263.193 172.889 263.078L163.237 258.758C163.051 258.675 162.833 258.758 162.751 258.945C162.749 258.948 162.748 258.951 162.746 258.954L162.126 260.466C161.05 260.97 160.175 261.222 159.502 261.222C158.955 261.222 158.2 261 157.237 260.557L157.237 260.557C156.867 260.387 156.43 260.55 156.261 260.921C156.253 260.937 156.247 260.953 156.24 260.97Z" fill="#E4E4E4"/>
<path fill-rule="evenodd" clip-rule="evenodd" d="M190.85 260.97C190.438 262.074 190.232 262.9 190.232 263.448C190.232 264.115 190.343 265.087 190.564 266.366C191.334 266.366 198.257 266.366 211.331 266.366C211.871 264.575 211.559 263.608 210.396 263.465C209.234 263.322 208.268 263.193 207.499 263.078L197.847 258.758C197.661 258.675 197.443 258.758 197.36 258.945C197.359 258.948 197.358 258.951 197.356 258.954L196.736 260.466C195.66 260.97 194.785 261.222 194.112 261.222C193.565 261.222 192.81 261 191.847 260.557L191.847 260.557C191.477 260.387 191.04 260.55 190.87 260.921C190.863 260.937 190.856 260.953 190.85 260.97Z" fill="#E4E4E4"/>
<path fill-rule="evenodd" clip-rule="evenodd" d="M169.614 178.011L175.505 201.183H193.499L190.816 178.011H169.614Z" fill="#69A1AC"/>
<path fill-rule="evenodd" clip-rule="evenodd" d="M166.3 178.011C164.362 183.845 163.993 191.569 165.195 201.183H183.557L188.606 178.011H166.3Z" fill="#89C5CC"/>
<path fill-rule="evenodd" clip-rule="evenodd" d="M209.192 162.822L203.155 158.055C216.397 148.863 223.457 144.013 224.337 143.505C226.316 142.361 226.889 138.708 227.353 136.867C230.025 137.527 227.236 140.651 230.643 141.44C233.752 142.159 236.993 141.589 238.346 145.277C238.512 145.731 238.275 146.762 236.957 146.681C233.674 146.479 228.587 146.641 227.508 147.162C226.038 147.872 219.933 153.092 209.192 162.822Z" fill="#B28B67"/>
<path d="M213.826 124.016L203.471 134.308L209.447 137.849L216.01 127.092C220.349 124.429 222.228 122.857 221.65 122.375C220.783 121.651 219.741 122.773 219.076 122.379C218.411 121.985 218.823 119.814 219.303 117.77C219.782 115.726 218.764 116.187 218.23 116.616C216.634 118.533 215.166 121 213.826 124.016Z" fill="#B28B67"/>
<path fill-rule="evenodd" clip-rule="evenodd" d="M172.167 158.324L171.659 155.134C185.484 149.834 198.105 140.431 209.523 126.925L221.984 137.404C205.802 150.846 189.181 159.046 172.167 158.324Z" fill="#191847"/>
<path fill-rule="evenodd" clip-rule="evenodd" d="M165.563 181.338H193.914C187.346 165.303 184.062 151.681 184.062 140.473L175.51 139.193C168.789 150.047 166.891 163.41 165.563 181.338Z" fill="#DDE3E9"/>
<path fill-rule="evenodd" clip-rule="evenodd" d="M175.329 139.199C175.33 139.197 175.331 139.195 175.332 139.193H175.891C176.559 139.216 177.576 139.258 178.943 139.318L181.009 145.248C181.228 152.477 182.505 167.046 184.839 188.956H166.254C164.591 188.956 165.581 188.956 164.591 188.956V187.634C166.658 164.219 162.292 152.008 175.322 139.193L175.329 139.199Z" fill="#2F3676"/>
<path fill-rule="evenodd" clip-rule="evenodd" d="M170.479 170.292C170.477 170.292 170.474 170.293 170.472 170.293L170.126 169.856C169.729 169.318 169.13 168.495 168.329 167.386L171.698 162.086C177.233 157.428 199.404 161.949 215.141 146.521C216.298 145.543 217.446 144.532 218.586 143.488L227.163 154.317C207.513 167.231 188.618 172.559 170.479 170.301L170.479 170.292Z" fill="#2F3676"/>
<path fill-rule="evenodd" clip-rule="evenodd" d="M167.482 169.594C168.011 179.027 169.335 185.529 171.455 189.101H166.259C166.032 182.315 166.439 175.812 167.482 169.594V169.594Z" fill="black" fill-opacity="0.1"/>
<path fill-rule="evenodd" clip-rule="evenodd" d="M170.391 177.641L179.555 173.363V177.641H170.391Z" fill="white" fill-opacity="0.2"/>
<path d="M534.219 54.6041L472.141 23.1746C469.697 21.937 466.711 22.8973 465.447 25.3281L453.871 47.5825C453.124 49.0496 452.397 49.5521 450.025 49.3341C447.369 47.3416 447.01 46.0953 446.511 43.8561C445.543 41.3994 444.535 40.3366 441.961 38.9633C438.016 37.1194 435.633 37.2864 431.187 39.0568C429.006 40.2126 428.026 41.2919 426.589 43.7562C425.065 46.3321 424.839 48.0594 424.927 51.4218C425.945 56.6372 427.585 58.2253 431.229 60.1603C433.938 61.2911 435.406 61.5622 437.866 60.9315C440.872 60.0351 442.134 60.2277 444.063 61.1102C445.947 62.4 445.812 63.2029 445.226 64.6578L433.622 87.5765C432.375 90.0401 433.361 93.0485 435.825 94.2958L459.627 106.346C460.706 107.907 460.812 108.707 460.346 110.039C458.564 112.288 456.947 112.986 454.126 114.288C452.283 115.544 451.477 116.43 450.564 118.402C449.353 122.556 448.943 124.792 450.072 128.14C451.772 131.46 453.062 132.882 456.091 134.516C459.156 135.558 460.867 135.864 463.909 135.145C467.582 133.152 469.357 131.874 471.172 128.836C472.118 126.659 472.345 125.502 472.379 123.529C471.755 120.634 471.505 119.002 472.122 116.001C472.868 114.944 473.632 114.596 475.819 114.544L498.149 125.85C500.612 127.097 503.621 126.111 504.868 123.647L536.422 61.3234C537.669 58.8597 536.683 55.8514 534.219 54.6041Z" fill="#1ECDAE"/>
<path fill-rule="evenodd" clip-rule="evenodd" d="M514.871 129.889L513.246 116.012C514.038 112.949 514.407 110.223 514.353 107.835C514.209 107.196 513.722 106.246 512.864 108.069C512.007 109.892 511.024 111.771 510.292 111.674C509.56 111.578 509.448 110.117 508.369 110.148C507.65 110.169 508.121 112.465 509.783 117.037L508.294 129.02L514.871 129.889Z" fill="#B28B67"/>
<path fill-rule="evenodd" clip-rule="evenodd" d="M525.585 156.091C518.677 145.116 515.439 133.077 513.87 117.398L506.696 118.926C504.244 134.046 503.299 142.225 510.85 150.79C512.745 152.94 519.934 157.771 523.609 160.501L525.585 156.091Z" fill="#2026A2"/>
<path fill-rule="evenodd" clip-rule="evenodd" d="M523.845 136.94C525.473 135.033 526.574 132.694 526.39 130.074C525.86 122.526 515.338 124.186 513.292 127.996C511.245 131.806 511.488 141.471 514.133 142.152C515.188 142.423 517.435 141.758 519.723 140.381L518.287 150.525H526.764L523.845 136.94Z" fill="#B28B67"/>
<path d="M514.414 126.694C514.225 126.758 514.414 125.946 514.866 125.65C516.25 124.74 520.373 123.393 523.191 123.977C525.08 124.369 527.435 125.352 528.943 126.604C530.303 127.734 531.54 129.725 532.022 131.474C532.527 133.31 532.718 135.866 532.022 137.468C531.192 139.376 528.254 141.433 528.176 141.706C528.088 142.018 528.435 143.235 528.689 144.518C528.943 145.802 528.828 149.068 528.689 149.601C528.468 150.453 527.281 150.871 526.764 150.933C523.903 151.273 521.829 154.821 520.966 155.728C517.124 159.58 514.442 161.256 512.922 160.754C512.521 160.622 513.121 155.835 513.522 153.784C513.922 151.732 517.847 148.071 518.099 146.865C518.247 146.154 518.271 144.916 518.287 144.86C518.657 142.311 518.593 142.104 519.133 141.065C519.673 140.026 520.092 139.965 519.962 139.663C519.328 138.185 517.289 133.661 516.826 132.182C516.274 130.419 516.535 130.998 515.967 129.241C515.715 128.463 515.394 126.365 514.414 126.694Z" fill="#89C5CC"/>
<mask id="mask0_1033_3264" style="mask-type:alpha" maskUnits="userSpaceOnUse" x="512" y="123" width="21" height="38">
<path d="M514.414 126.694C514.225 126.758 514.414 125.946 514.866 125.65C516.25 124.74 520.373 123.393 523.191 123.977C525.08 124.369 527.435 125.352 528.943 126.604C530.303 127.734 531.54 129.725 532.022 131.474C532.527 133.31 532.718 135.866 532.022 137.468C531.192 139.376 528.254 141.433 528.176 141.706C528.088 142.018 528.435 143.235 528.689 144.518C528.943 145.802 528.828 149.068 528.689 149.601C528.468 150.453 527.281 150.871 526.764 150.933C523.903 151.273 521.829 154.821 520.966 155.728C517.124 159.58 514.442 161.256 512.922 160.754C512.521 160.622 513.121 155.835 513.522 153.784C513.922 151.732 517.847 148.071 518.099 146.865C518.247 146.154 518.271 144.916 518.287 144.86C518.657 142.311 518.593 142.104 519.133 141.065C519.673 140.026 520.092 139.965 519.962 139.663C519.328 138.185 517.289 133.661 516.826 132.182C516.274 130.419 516.535 130.998 515.967 129.241C515.715 128.463 515.394 126.365 514.414 126.694Z" fill="black" fill-opacity="0.2"/>
</mask>
<g mask="url(#mask0_1033_3264)">
<path fill-rule="evenodd" clip-rule="evenodd" d="M521.707 126.891C522.327 128.854 522.46 129.902 522.327 132.585H522.631C523.199 130.053 522.693 127.67 522.089 126.891H521.707ZM530.019 131.958C528.865 134.756 528.338 136.408 525.114 138.672L525.363 138.846C528.564 137.035 529.496 134.874 530.262 132.074L530.019 131.958ZM525.275 129.11C524.751 133.082 524.598 135.35 521.866 139.695L522.157 139.783C524.968 136.001 525.414 132.914 525.547 129.132L525.275 129.11ZM528.293 140.908L528.044 140.606C524.651 141.667 525.029 143.859 520.755 146.078L521.112 146.294C524.855 144.752 525.73 141.443 528.293 140.908Z" fill="black" fill-opacity="0.2"/>
</g>
<path fill-rule="evenodd" clip-rule="evenodd" d="M533.926 179.807C533.289 188.488 506.858 214.706 506.618 215.423C506.512 215.742 505.605 240.05 514.225 259.881L509.507 259.881C496.285 238.879 496.309 214.417 496.989 212.179C497.961 208.975 493.976 197.775 514.225 179.9L533.926 179.807Z" fill="#B28B67"/>
<path fill-rule="evenodd" clip-rule="evenodd" d="M514.127 253.849L502.248 253.849C495.978 238.339 494.238 217.482 495.121 211.633C495.709 207.733 495.121 197.751 511.817 179.736L533.994 179.736C533.28 199.84 509.686 215.044 509.177 215.9C508.669 216.757 509.871 238.284 514.127 253.849Z" fill="#2F3676"/>
<path fill-rule="evenodd" clip-rule="evenodd" d="M514.578 259.265C514.974 260.319 515.172 261.108 515.173 261.631C515.173 262.268 515.068 263.197 514.858 264.418C514.119 264.418 507.481 264.418 494.943 264.418C494.423 262.707 494.721 261.784 495.836 261.648C496.951 261.511 497.877 261.388 498.614 261.278L507.866 257.153C508.044 257.074 508.253 257.154 508.333 257.332C508.334 257.335 508.335 257.338 508.337 257.341L508.933 258.784C509.966 259.265 510.805 259.506 511.45 259.506C511.974 259.506 512.698 259.294 513.622 258.871L513.622 258.871C513.976 258.708 514.395 258.864 514.558 259.218C514.565 259.234 514.572 259.249 514.578 259.265Z" fill="#E4E4E4"/>
<path fill-rule="evenodd" clip-rule="evenodd" d="M531.882 178.141L542.069 224.514L552.405 261.768L548.983 263.411L517.745 175.584L531.882 178.141Z" fill="#997659"/>
<path fill-rule="evenodd" clip-rule="evenodd" d="M552.499 258.63C552.894 259.683 553.092 260.471 553.092 260.994C553.092 261.631 552.986 262.559 552.773 263.779C552.035 263.779 545.394 263.779 532.853 263.779C532.335 262.07 532.634 261.147 533.749 261.011C534.864 260.875 535.791 260.752 536.529 260.642L545.788 256.519C545.966 256.44 546.175 256.52 546.254 256.698C546.255 256.701 546.257 256.704 546.258 256.707L546.853 258.149C547.886 258.63 548.725 258.871 549.37 258.871C549.895 258.871 550.619 258.659 551.543 258.236L551.543 258.236C551.898 258.074 552.317 258.229 552.48 258.583C552.487 258.599 552.493 258.614 552.499 258.63Z" fill="#E4E4E4"/>
<path fill-rule="evenodd" clip-rule="evenodd" d="M551.415 253.849L542.505 253.849C537.243 242.033 515.898 195.988 516.242 175.312L536.871 179.043C545.225 195.545 546.519 241.919 551.415 253.849Z" fill="#5C63AB"/>
<path d="M491.32 126.88L499.277 138.354L503.258 134.021L494.67 125.535C493.141 120.913 492.088 118.818 491.511 119.248C490.646 119.893 491.463 121.11 490.949 121.64C490.435 122.17 488.501 121.305 486.7 120.406C484.899 119.507 485.105 120.555 485.388 121.146C486.824 123.055 488.802 124.966 491.32 126.88Z" fill="#B28B67"/>
<path fill-rule="evenodd" clip-rule="evenodd" d="M535.222 182.939H505.547C511.708 164.175 517.333 151.296 517.466 144.303C517.473 143.947 518.133 143.319 518.424 143.401C520.557 144.002 522.84 143.777 525.272 142.726C531.719 153.082 533.948 165.832 535.222 182.939Z" fill="#F2F2F2"/>
<path fill-rule="evenodd" clip-rule="evenodd" d="M522.951 142.743C515.155 142.806 510.167 135.384 496.638 126.475L491.688 130.104C502.712 137.186 507.975 164.212 517.757 163.433C513.509 181.63 514.398 191.618 523.775 191.618C528.254 191.618 533.087 191.618 538.276 191.618C540.579 176.16 534.526 154.728 528.915 143.917C528.701 143.504 528.244 142.726 527.17 142.726C526.233 142.726 524.829 142.726 522.956 142.726C522.954 142.732 522.952 142.737 522.951 142.743Z" fill="#1F28CF"/>
<path fill-rule="evenodd" clip-rule="evenodd" d="M346.715 135.74C348.804 134.315 350.49 132.334 350.991 129.743C352.437 122.279 341.714 121.136 338.721 124.297C335.728 127.458 333.45 136.901 335.86 138.254C336.821 138.794 339.192 138.737 341.787 137.999L337.743 147.467L346.034 149.686L346.715 135.74Z" fill="#B28B67"/>
<path fill-rule="evenodd" clip-rule="evenodd" d="M343.838 128.696C342.346 132.992 340.919 134.957 339.557 134.593C337.514 134.046 336.126 132.297 335.23 132.057C334.576 131.882 334.505 132.731 334.777 133.448C335.001 134.039 336.613 134.982 336.407 135.751C336.201 136.519 334.986 135.556 334.864 136.012C334.661 136.766 334.04 138.118 335.36 138.472C336.696 138.829 340.657 139.373 341.84 137.584C342.604 136.429 343.582 133.875 344.776 129.921C344.859 129.933 344.943 129.95 345.027 129.972C346.172 130.279 346.853 131.447 346.549 132.581C346.395 133.157 346.016 133.613 345.531 133.883C345.83 134.682 346.18 135.527 346.602 136.415C349.285 135.659 352.082 132.092 350.857 127.618C350.74 125.555 349.596 124.164 348.05 123.247C346.846 122.323 345.457 121.883 344.18 121.902C341.8 121.477 339.535 121.623 338.834 121.883C338.249 124.065 338.502 124.827 342.162 125.746C342.932 126.454 343.404 127.446 343.838 128.696Z" fill="#191847"/>
<path fill-rule="evenodd" clip-rule="evenodd" d="M343.013 176.615L333.618 223.285L328.693 262.192L324.118 263.022L327.289 179.471L343.013 176.615Z" fill="#997659"/>
<path fill-rule="evenodd" clip-rule="evenodd" d="M348.855 185.254C341.99 199.198 334.952 219.095 334.902 220.157C334.869 220.865 340.09 232.738 350.565 255.778L346.167 257.366C331.504 234.721 324.1 222.349 323.955 220.25C323.737 217.102 330.31 192.498 333.267 177.319L348.855 185.254Z" fill="#B28B67"/>
<path fill-rule="evenodd" clip-rule="evenodd" d="M351.487 254.298C352.273 255.124 352.771 255.781 352.978 256.268C353.231 256.861 353.501 257.769 353.788 258.991C353.1 259.284 346.916 261.914 335.236 266.882C334.074 265.493 333.986 264.514 334.971 263.945C335.955 263.376 336.769 262.895 337.413 262.5L344.398 254.988C344.532 254.844 344.758 254.836 344.903 254.97C344.905 254.972 344.908 254.975 344.91 254.977L346.038 256.086C347.19 256.126 348.067 256.018 348.669 255.762C349.157 255.554 349.748 255.07 350.44 254.309L350.44 254.309C350.706 254.018 351.158 253.996 351.45 254.262C351.463 254.274 351.475 254.286 351.487 254.298Z" fill="#E4E4E4"/>
<path fill-rule="evenodd" clip-rule="evenodd" d="M329.752 261.144C330.152 262.212 330.353 263.011 330.353 263.541C330.353 264.185 330.245 265.126 330.03 266.363C329.282 266.363 322.557 266.363 309.855 266.363C309.331 264.631 309.633 263.695 310.763 263.557C311.892 263.419 312.831 263.294 313.578 263.183L322.955 259.005C323.136 258.924 323.347 259.006 323.428 259.186C323.429 259.189 323.43 259.192 323.432 259.195L324.034 260.657C325.08 261.144 325.93 261.388 326.584 261.388C327.115 261.388 327.848 261.174 328.784 260.745L328.784 260.745C329.143 260.58 329.568 260.738 329.733 261.097C329.74 261.112 329.746 261.128 329.752 261.144Z" fill="#E4E4E4"/>
<path fill-rule="evenodd" clip-rule="evenodd" d="M341.885 255.269L319.706 256.869L322.398 179.747L341.881 176.209L341.885 255.269Z" fill="#69A1AC"/>
<path fill-rule="evenodd" clip-rule="evenodd" d="M348.979 248.795L331.737 254.88C325.633 233.142 326.43 222.864 326.461 217.197C326.492 211.531 328.702 197.74 337.021 176.87L354.129 191.745C346.208 209.799 341.33 214.223 341.258 215.214C341.187 216.205 342.67 227.405 348.979 248.795Z" fill="#89C5CC"/>
<path fill-rule="evenodd" clip-rule="evenodd" d="M313.772 160.53L319.216 155.405C305.756 147.698 298.582 143.637 297.696 143.224C295.703 142.294 294.868 138.821 294.279 137.086C291.757 137.956 294.684 140.725 291.465 141.783C288.527 142.748 285.362 142.481 284.346 146.156C284.221 146.608 284.529 147.582 285.791 147.389C288.937 146.907 293.847 146.62 294.925 147.028C296.396 147.584 302.678 152.085 313.772 160.53Z" fill="#B28B67"/>
<path d="M302.194 130.579L312.051 140.723L306.276 144.094L300.068 133.544C295.923 130.899 294.131 129.346 294.691 128.884C295.531 128.191 296.522 129.295 297.164 128.92C297.807 128.545 297.431 126.427 296.989 124.432C296.547 122.437 297.521 122.899 298.03 123.323C299.547 125.208 300.935 127.627 302.194 130.579Z" fill="#B28B67"/>
<path fill-rule="evenodd" clip-rule="evenodd" d="M345.655 158.25L345.738 155.11C334.364 145.115 314.967 143.097 303.053 130.559L299.405 134.5C305.833 158.27 329.535 161.028 345.655 158.25Z" fill="#E87613"/>
<path fill-rule="evenodd" clip-rule="evenodd" d="M348.77 184.234C336.558 182.082 327.574 180.5 321.82 179.486C320.589 179.269 321.133 177.541 321.468 176.68C325.341 166.741 335.321 157.05 337.909 142.386L345.896 142.543C350.511 153.962 350.499 167.019 348.77 184.234Z" fill="#DDE3E9"/>
<path fill-rule="evenodd" clip-rule="evenodd" d="M357.598 153.967C358.784 153.843 359.811 153.248 360.679 152.181C364.42 147.582 363.89 144.593 361.016 143.135C358.142 141.677 355.099 143.101 350.261 142.249C349.998 142.203 349.754 142.177 349.529 142.171L347.071 141.88C335.935 164.188 331.237 179.554 332.979 187.976L354.192 191.713C354.934 194.849 353.395 189.52 354.192 191.713L356.589 176.143C360.221 158.744 356.588 168.872 357.598 153.967Z" fill="#FF9B21"/>
<path fill-rule="evenodd" clip-rule="evenodd" d="M334.301 167.047C333.778 168.12 338.056 167.065 338.499 168.368C346.507 169.596 343.752 171.262 346.507 169.596C349.262 167.93 344.823 170.689 348.105 167.034C348.284 166.835 348.435 166.642 348.559 166.454L350.106 164.521C337.114 143.234 312.789 147.492 304.736 144.504L304.147 144.135C301.098 143.101 298.435 142.342 296.157 141.856L292.235 146.223C305.044 158.535 319.066 165.476 334.301 167.047Z" fill="#FF9B21"/>
<path fill-rule="evenodd" clip-rule="evenodd" d="M351.705 178.809C350.058 184.243 348.262 188.082 346.319 190.324L354.19 191.711C353.324 188.053 352.496 183.752 351.705 178.809Z" fill="black" fill-opacity="0.1"/>
<path d="M385.168 219.953V192.224C385.168 189.463 387.406 187.224 390.168 187.224H416.154C419.124 191.853 415.165 192.514 413.845 194.497C412.196 196.481 412.196 201.109 412.196 201.109C412.526 204.084 412.251 203.241 413.185 205.737C414.505 208.713 414.835 209.043 417.144 211.027C420.113 213.01 423.742 213.01 423.742 213.01C423.742 213.01 427.701 213.01 430.34 211.027C432.389 209.534 434.873 205.737 435.289 203.093C436.094 197.975 435.029 195.636 432.65 193.836C430.215 191.067 430.004 189.623 431.66 187.224H457.696C460.457 187.224 462.696 189.463 462.696 192.224V261.565C462.696 264.327 460.457 266.565 457.696 266.565H390.168C387.406 266.565 385.168 264.327 385.168 261.565V234.829C381.869 232.184 380.543 233.176 378.57 234.829C375.6 237.316 373.781 238.47 369.332 238.796C360.425 238.135 357.456 233.837 357.785 225.903C358.019 220.283 360.755 216.316 369.332 215.655C373.951 215.986 374.941 217.308 378.57 219.953C380.219 221.155 381.539 222.267 385.168 219.953Z" fill="#E959A7"/>
<path fill-rule="evenodd" clip-rule="evenodd" d="M391.833 103.296L398.862 148.747L400.052 182.248H408.271L405.118 103.296H391.833Z" fill="#191847"/>
<path fill-rule="evenodd" clip-rule="evenodd" d="M399.066 103.296V148.317L394.463 182.248H387.888L391.041 103.296H399.066Z" fill="#2F3676"/>
<path fill-rule="evenodd" clip-rule="evenodd" d="M387.23 187.599L387.585 180.097H395.034C398.567 182.598 403.178 184.622 408.868 186.17V187.599H395.389L390.778 186.885V187.599H387.23Z" fill="#191847"/>
<path fill-rule="evenodd" clip-rule="evenodd" d="M399.724 187.599L400.078 180.097H407.528C411.06 182.598 415.671 184.622 421.362 186.17V187.599H407.882L403.271 186.885V187.599H399.724Z" fill="#191847"/>
<path fill-rule="evenodd" clip-rule="evenodd" d="M414.501 63.5804C413.856 61.1242 413.875 58.5079 415.183 56.2015C418.952 49.5561 427.77 55.7082 427.967 60.0826C428.163 64.457 423.734 73.1569 421.039 72.6112C419.964 72.3936 418.216 70.7966 416.741 68.5336L413.625 78.4101L405.938 74.6729L414.501 63.5804Z" fill="#B28B67"/>
<path fill-rule="evenodd" clip-rule="evenodd" d="M421.256 60.0832C419.584 64.3394 419.379 66.774 420.64 67.3872C422.533 68.307 424.715 67.881 425.545 68.2845C426.15 68.5788 425.652 69.2738 424.981 69.6428C424.427 69.9472 422.601 69.6122 422.256 70.3336C421.911 71.055 423.452 71.1159 423.247 71.5438C422.909 72.2515 422.497 73.6909 421.274 73.0964C420.036 72.4948 416.703 70.3167 416.977 68.1761C417.154 66.7946 418.079 64.2039 419.754 60.404C419.683 60.3586 419.609 60.3168 419.531 60.2792C418.471 59.7637 417.198 60.2092 416.689 61.2743C416.431 61.815 416.419 62.4114 416.608 62.9351C415.863 63.3489 415.051 63.7649 414.155 64.1664C412.629 61.8329 412.846 57.2786 416.678 54.665C418.108 53.1672 419.873 52.8542 421.633 53.1657C423.14 53.2485 424.47 53.8221 425.419 54.6725C427.485 55.9057 429.094 57.5011 429.452 58.1581C428.473 60.2072 427.787 60.623 424.436 58.9281C423.395 58.9649 422.395 59.4126 421.256 60.0832Z" fill="#191847"/>
<path d="M409.835 69.659L406.883 72.6338C413.073 78.8583 406.031 102.483 417.254 107.983C417.383 108.046 417.531 108.079 417.674 108.078C429.027 108.067 434.887 105.663 443.718 98.5212L437.143 95.1991L420.955 99.2523C420.453 99.3779 419.936 99.0963 419.787 98.5976C416.694 88.2566 421.028 77.4053 409.835 69.659Z" fill="#171414"/>
<path fill-rule="evenodd" clip-rule="evenodd" d="M380.267 117.638C391.08 123.274 400.123 123.733 407.196 124.522C408.072 124.619 408.815 122.918 408.859 121.598C409.532 101.037 410.823 87.3991 415.346 74.5744C414.239 74.8368 412.987 71.7169 411.129 69.8529C410.519 69.2412 409.565 69.3423 408.939 69.9321C397.616 80.5983 389.112 96.9583 380.267 117.638Z" fill="#323337"/>
<path fill-rule="evenodd" clip-rule="evenodd" d="M431.533 100.155L446.478 105.159C449.654 105.23 452.402 104.963 454.722 104.356C455.313 104.065 456.127 103.364 454.148 102.94C452.168 102.516 450.105 101.981 450.03 101.235C449.954 100.49 451.355 100.041 451.074 98.9829C450.887 98.2772 448.736 98.2205 444.657 100.922L433.762 95.442L431.533 100.155Z" fill="#B28B67"/>
<path fill-rule="evenodd" clip-rule="evenodd" d="M408.672 72.4647C408.44 70.7913 410.316 68.7931 411.887 69.3972C412.177 69.509 412.582 69.772 412.776 70.0161C421.574 81.0538 429.098 92.0203 444.654 98.469L444.009 105.093C430.968 101.929 419.434 97.4047 412.183 88.858C410.333 86.6767 409.463 78.1701 408.672 72.4647Z" fill="#606269"/>
</svg>
