<svg xmlns="http://www.w3.org/2000/svg" xmlns:xlink="http://www.w3.org/1999/xlink" width="50" zoomAndPan="magnify" viewBox="0 0 37.5 37.499999" height="50" preserveAspectRatio="xMidYMid meet" version="1.0"><defs><g/><clipPath id="1a48d922c7"><path d="M 0 6.375 L 37 6.375 L 37 33.019531 L 0 33.019531 Z M 0 6.375 " clip-rule="nonzero"/></clipPath><clipPath id="c36efc6860"><path d="M 10 6.375 L 27 6.375 L 27 33.019531 L 10 33.019531 Z M 10 6.375 " clip-rule="nonzero"/></clipPath></defs><g clip-path="url(#1a48d922c7)"><path fill="#d52b1e" d="M 4.125 6.375 C 1.855469 6.375 0.015625 8.210938 0.015625 10.476562 L 0.015625 28.921875 C 0.015625 31.183594 1.855469 33.019531 4.125 33.019531 L 10.289062 33.019531 L 10.289062 6.375 Z M 32.882812 6.375 L 26.71875 6.375 L 26.71875 33.019531 L 32.882812 33.019531 C 35.148438 33.019531 36.988281 31.183594 36.988281 28.921875 L 36.988281 10.476562 C 36.988281 8.210938 35.148438 6.375 32.882812 6.375 Z M 32.882812 6.375 " fill-opacity="1" fill-rule="nonzero"/></g><g clip-path="url(#c36efc6860)"><path fill="#eeeeee" d="M 10.289062 6.375 L 26.71875 6.375 L 26.71875 33.019531 L 10.289062 33.019531 Z M 10.289062 6.375 " fill-opacity="1" fill-rule="nonzero"/></g><path fill="#d52b1e" d="M 19.136719 23.914062 C 20.367188 24.054688 21.46875 24.183594 22.699219 24.324219 L 22.382812 23.296875 C 22.335938 23.117188 22.40625 22.921875 22.546875 22.808594 L 26.121094 19.90625 L 25.382812 19.558594 C 25.054688 19.441406 25.144531 19.257812 25.261719 18.816406 L 25.808594 16.835938 L 23.734375 17.273438 C 23.53125 17.300781 23.394531 17.175781 23.363281 17.050781 L 23.097656 16.117188 L 21.457031 17.957031 C 21.222656 18.25 20.75 18.25 20.898438 17.570312 L 21.597656 13.847656 L 20.65625 14.332031 C 20.394531 14.480469 20.128906 14.503906 19.980469 14.242188 L 18.683594 11.816406 L 18.683594 11.878906 L 18.683594 11.816406 L 17.382812 14.242188 C 17.234375 14.503906 16.972656 14.480469 16.707031 14.332031 L 15.765625 13.847656 L 16.46875 17.570312 C 16.617188 18.25 16.144531 18.25 15.910156 17.957031 L 14.269531 16.117188 L 14 17.050781 C 13.972656 17.175781 13.835938 17.304688 13.632812 17.273438 L 11.558594 16.835938 L 12.101562 18.820312 C 12.21875 19.261719 12.308594 19.441406 11.984375 19.558594 L 11.246094 19.90625 L 14.816406 22.8125 C 14.960938 22.921875 15.03125 23.117188 14.980469 23.296875 L 14.667969 24.324219 L 18.230469 23.914062 C 18.339844 23.914062 18.410156 23.976562 18.410156 24.101562 L 18.191406 27.894531 L 19.171875 27.894531 L 18.953125 24.101562 C 18.957031 23.972656 19.027344 23.914062 19.136719 23.914062 Z M 19.136719 23.914062 " fill-opacity="1" fill-rule="nonzero"/><g fill="#d52b1e" fill-opacity="1"><g transform="translate(13.753858, 20.66447)"><g><path d="M 0.140625 0 L 0.140625 -1.1875 L 0.28125 -1.1875 L 0.28125 -0.734375 L 0.296875 -0.71875 C 0.347656 -0.8125 0.429688 -0.859375 0.546875 -0.859375 C 0.648438 -0.859375 0.722656 -0.832031 0.765625 -0.78125 C 0.816406 -0.726562 0.84375 -0.648438 0.84375 -0.546875 L 0.84375 0 L 0.71875 0 L 0.71875 -0.546875 C 0.71875 -0.597656 0.707031 -0.640625 0.6875 -0.671875 C 0.675781 -0.703125 0.65625 -0.722656 0.625 -0.734375 C 0.601562 -0.742188 0.570312 -0.75 0.53125 -0.75 C 0.445312 -0.75 0.382812 -0.722656 0.34375 -0.671875 C 0.300781 -0.628906 0.28125 -0.550781 0.28125 -0.4375 L 0.28125 0 Z M 0.140625 0 "/></g></g><g transform="translate(14.732989, 20.66447)"><g><path d="M 0.8125 -0.390625 L 0.21875 -0.390625 C 0.226562 -0.285156 0.253906 -0.207031 0.296875 -0.15625 C 0.347656 -0.113281 0.410156 -0.09375 0.484375 -0.09375 C 0.546875 -0.09375 0.59375 -0.101562 0.625 -0.125 C 0.664062 -0.144531 0.695312 -0.179688 0.71875 -0.234375 L 0.734375 -0.234375 L 0.828125 -0.1875 C 0.796875 -0.125 0.753906 -0.0703125 0.703125 -0.03125 C 0.648438 0 0.578125 0.015625 0.484375 0.015625 C 0.398438 0.015625 0.328125 0 0.265625 -0.03125 C 0.210938 -0.0625 0.171875 -0.109375 0.140625 -0.171875 C 0.109375 -0.242188 0.09375 -0.328125 0.09375 -0.421875 C 0.09375 -0.515625 0.109375 -0.59375 0.140625 -0.65625 C 0.171875 -0.726562 0.21875 -0.78125 0.28125 -0.8125 C 0.34375 -0.84375 0.410156 -0.859375 0.484375 -0.859375 C 0.585938 -0.859375 0.671875 -0.828125 0.734375 -0.765625 C 0.796875 -0.710938 0.828125 -0.625 0.828125 -0.5 C 0.828125 -0.457031 0.828125 -0.425781 0.828125 -0.40625 Z M 0.703125 -0.5 C 0.703125 -0.59375 0.679688 -0.660156 0.640625 -0.703125 C 0.609375 -0.742188 0.554688 -0.765625 0.484375 -0.765625 C 0.410156 -0.765625 0.351562 -0.742188 0.3125 -0.703125 C 0.269531 -0.660156 0.242188 -0.59375 0.234375 -0.5 Z M 0.703125 -0.5 "/></g></g><g transform="translate(15.639648, 20.66447)"><g><path d="M 0.34375 0.015625 C 0.28125 0.015625 0.226562 0 0.1875 -0.03125 C 0.15625 -0.0703125 0.140625 -0.125 0.140625 -0.1875 L 0.140625 -1.1875 L 0.265625 -1.1875 L 0.265625 -0.203125 C 0.265625 -0.160156 0.269531 -0.128906 0.28125 -0.109375 C 0.300781 -0.0976562 0.328125 -0.09375 0.359375 -0.09375 C 0.367188 -0.09375 0.382812 -0.0976562 0.40625 -0.109375 L 0.421875 -0.109375 L 0.4375 0 C 0.425781 0 0.410156 0 0.390625 0 C 0.378906 0.0078125 0.363281 0.015625 0.34375 0.015625 Z M 0.34375 0.015625 "/></g></g><g transform="translate(16.10223, 20.66447)"><g><path d="M 0.34375 0.015625 C 0.28125 0.015625 0.226562 0 0.1875 -0.03125 C 0.15625 -0.0703125 0.140625 -0.125 0.140625 -0.1875 L 0.140625 -1.1875 L 0.265625 -1.1875 L 0.265625 -0.203125 C 0.265625 -0.160156 0.269531 -0.128906 0.28125 -0.109375 C 0.300781 -0.0976562 0.328125 -0.09375 0.359375 -0.09375 C 0.367188 -0.09375 0.382812 -0.0976562 0.40625 -0.109375 L 0.421875 -0.109375 L 0.4375 0 C 0.425781 0 0.410156 0 0.390625 0 C 0.378906 0.0078125 0.363281 0.015625 0.34375 0.015625 Z M 0.34375 0.015625 "/></g></g><g transform="translate(16.564811, 20.66447)"><g><path d="M 0.484375 0.015625 C 0.410156 0.015625 0.34375 0 0.28125 -0.03125 C 0.21875 -0.0625 0.171875 -0.109375 0.140625 -0.171875 C 0.109375 -0.242188 0.09375 -0.328125 0.09375 -0.421875 C 0.09375 -0.515625 0.109375 -0.59375 0.140625 -0.65625 C 0.171875 -0.726562 0.21875 -0.78125 0.28125 -0.8125 C 0.34375 -0.84375 0.410156 -0.859375 0.484375 -0.859375 C 0.566406 -0.859375 0.632812 -0.84375 0.6875 -0.8125 C 0.75 -0.78125 0.796875 -0.726562 0.828125 -0.65625 C 0.859375 -0.59375 0.875 -0.515625 0.875 -0.421875 C 0.875 -0.328125 0.859375 -0.242188 0.828125 -0.171875 C 0.796875 -0.109375 0.75 -0.0625 0.6875 -0.03125 C 0.632812 0 0.566406 0.015625 0.484375 0.015625 Z M 0.484375 -0.09375 C 0.566406 -0.09375 0.628906 -0.117188 0.671875 -0.171875 C 0.722656 -0.222656 0.75 -0.304688 0.75 -0.421875 C 0.75 -0.535156 0.722656 -0.617188 0.671875 -0.671875 C 0.628906 -0.722656 0.566406 -0.75 0.484375 -0.75 C 0.398438 -0.75 0.332031 -0.722656 0.28125 -0.671875 C 0.238281 -0.617188 0.21875 -0.535156 0.21875 -0.421875 C 0.21875 -0.304688 0.238281 -0.222656 0.28125 -0.171875 C 0.332031 -0.117188 0.398438 -0.09375 0.484375 -0.09375 Z M 0.484375 -0.09375 "/></g></g></g></svg>