<svg xmlns="http://www.w3.org/2000/svg" xmlns:xlink="http://www.w3.org/1999/xlink" width="50" zoomAndPan="magnify" viewBox="0 0 37.5 37.499999" height="50" preserveAspectRatio="xMidYMid meet" version="1.0"><defs><g/><clipPath id="065883f60a"><path d="M 0 5.148438 L 37 5.148438 L 37 31.792969 L 0 31.792969 Z M 0 5.148438 " clip-rule="nonzero"/></clipPath><clipPath id="1f975b5ff9"><path d="M 0 5.148438 L 19 5.148438 L 19 20 L 0 20 Z M 0 5.148438 " clip-rule="nonzero"/></clipPath></defs><g clip-path="url(#065883f60a)"><path fill="#b22334" d="M 36.417969 7.195312 C 35.707031 5.976562 34.398438 5.148438 32.882812 5.148438 L 18.503906 5.148438 L 18.503906 7.195312 Z M 0.015625 25.644531 L 36.988281 25.644531 L 36.988281 27.691406 L 0.015625 27.691406 Z M 18.503906 17.445312 L 36.988281 17.445312 L 36.988281 19.496094 L 18.503906 19.496094 Z M 18.503906 13.34375 L 36.988281 13.34375 L 36.988281 15.394531 L 18.503906 15.394531 Z M 0.015625 21.542969 L 36.988281 21.542969 L 36.988281 23.59375 L 0.015625 23.59375 Z M 4.125 31.792969 L 32.882812 31.792969 C 34.398438 31.792969 35.707031 30.964844 36.417969 29.742188 L 0.585938 29.742188 C 1.296875 30.964844 2.609375 31.792969 4.125 31.792969 Z M 18.503906 9.246094 L 36.988281 9.246094 L 36.988281 11.296875 L 18.503906 11.296875 Z M 18.503906 9.246094 " fill-opacity="1" fill-rule="nonzero"/></g><path fill="#eeeeee" d="M 0.0859375 28.386719 C 0.105469 28.484375 0.125 28.578125 0.148438 28.671875 C 0.175781 28.777344 0.207031 28.875 0.242188 28.976562 C 0.332031 29.242188 0.445312 29.496094 0.582031 29.738281 L 0.585938 29.742188 L 36.417969 29.742188 L 36.421875 29.738281 C 36.558594 29.5 36.671875 29.242188 36.761719 28.980469 C 36.796875 28.878906 36.832031 28.777344 36.859375 28.671875 C 36.882812 28.578125 36.902344 28.484375 36.917969 28.386719 C 36.960938 28.164062 36.988281 27.929688 36.988281 27.691406 L 0.015625 27.691406 C 0.015625 27.929688 0.046875 28.164062 0.0859375 28.386719 Z M 0.015625 23.59375 L 36.988281 23.59375 L 36.988281 25.644531 L 0.015625 25.644531 Z M 0.015625 19.496094 L 0.015625 21.542969 L 36.988281 21.542969 L 36.988281 19.496094 Z M 18.503906 15.394531 L 36.988281 15.394531 L 36.988281 17.445312 L 18.503906 17.445312 Z M 18.503906 11.296875 L 36.988281 11.296875 L 36.988281 13.34375 L 18.503906 13.34375 Z M 0.015625 9.246094 C 0.015625 9.007812 0.046875 8.777344 0.0859375 8.550781 C 0.046875 8.777344 0.015625 9.007812 0.015625 9.246094 Z M 0.585938 7.195312 L 0.582031 7.203125 Z M 0.148438 8.265625 C 0.175781 8.164062 0.210938 8.0625 0.242188 7.960938 C 0.207031 8.0625 0.175781 8.164062 0.148438 8.265625 Z M 18.503906 9.246094 L 36.988281 9.246094 C 36.988281 9.007812 36.960938 8.777344 36.917969 8.550781 C 36.902344 8.457031 36.882812 8.359375 36.859375 8.269531 C 36.832031 8.164062 36.796875 8.0625 36.761719 7.960938 C 36.671875 7.695312 36.558594 7.441406 36.421875 7.199219 C 36.421875 7.199219 36.421875 7.199219 36.417969 7.195312 L 18.503906 7.195312 Z M 18.503906 9.246094 " fill-opacity="1" fill-rule="nonzero"/><g clip-path="url(#1f975b5ff9)"><path fill="#3c3b6e" d="M 18.503906 5.148438 L 4.125 5.148438 C 1.855469 5.148438 0.015625 6.984375 0.015625 9.246094 L 0.015625 19.496094 L 18.503906 19.496094 Z M 18.503906 5.148438 " fill-opacity="1" fill-rule="nonzero"/></g><path fill="#ffffff" d="M 2.070312 7.941406 L 2.707031 8.402344 L 2.464844 9.144531 L 3.097656 8.683594 L 3.734375 9.144531 L 3.492188 8.402344 L 4.125 7.941406 L 3.339844 7.941406 L 3.097656 7.195312 L 2.855469 7.941406 Z M 4.125 9.992188 L 4.761719 10.449219 L 4.519531 11.195312 L 5.152344 10.734375 L 5.785156 11.195312 L 5.542969 10.449219 L 6.179688 9.992188 L 5.394531 9.992188 L 5.152344 9.246094 L 4.910156 9.992188 Z M 8.234375 9.992188 L 8.867188 10.449219 L 8.625 11.195312 L 9.261719 10.734375 L 9.894531 11.195312 L 9.652344 10.449219 L 10.289062 9.992188 L 9.503906 9.992188 L 9.261719 9.246094 L 9.019531 9.992188 Z M 12.34375 9.992188 L 12.976562 10.449219 L 12.734375 11.195312 L 13.367188 10.734375 L 14.003906 11.195312 L 13.761719 10.449219 L 14.394531 9.992188 L 13.609375 9.992188 L 13.367188 9.246094 L 13.125 9.992188 Z M 4.125 14.089844 L 4.761719 14.550781 L 4.519531 15.292969 L 5.152344 14.832031 L 5.785156 15.292969 L 5.542969 14.550781 L 6.179688 14.089844 L 5.394531 14.089844 L 5.152344 13.34375 L 4.910156 14.089844 Z M 8.234375 14.089844 L 8.867188 14.550781 L 8.625 15.292969 L 9.261719 14.832031 L 9.894531 15.292969 L 9.652344 14.550781 L 10.289062 14.089844 L 9.503906 14.089844 L 9.261719 13.34375 L 9.019531 14.089844 Z M 12.34375 14.089844 L 12.976562 14.550781 L 12.734375 15.292969 L 13.367188 14.832031 L 14.003906 15.292969 L 13.761719 14.550781 L 14.394531 14.089844 L 13.609375 14.089844 L 13.367188 13.34375 L 13.125 14.089844 Z M 6.179688 7.941406 L 6.816406 8.402344 L 6.574219 9.144531 L 7.207031 8.683594 L 7.839844 9.144531 L 7.597656 8.402344 L 8.234375 7.941406 L 7.449219 7.941406 L 7.207031 7.195312 L 6.964844 7.941406 Z M 10.289062 7.941406 L 10.921875 8.402344 L 10.679688 9.144531 L 11.3125 8.683594 L 11.949219 9.144531 L 11.707031 8.402344 L 12.339844 7.941406 L 11.554688 7.941406 L 11.3125 7.195312 L 11.074219 7.941406 Z M 14.394531 7.941406 L 15.03125 8.402344 L 14.789062 9.144531 L 15.421875 8.683594 L 16.058594 9.144531 L 15.816406 8.402344 L 16.449219 7.941406 L 15.664062 7.941406 L 15.421875 7.195312 L 15.179688 7.941406 Z M 2.070312 12.039062 L 2.707031 12.5 L 2.464844 13.242188 L 3.097656 12.785156 L 3.734375 13.242188 L 3.492188 12.5 L 4.125 12.039062 L 3.339844 12.039062 L 3.097656 11.296875 L 2.855469 12.039062 Z M 6.574219 13.242188 L 7.207031 12.785156 L 7.839844 13.242188 L 7.597656 12.5 L 8.234375 12.039062 L 7.449219 12.039062 L 7.207031 11.296875 L 6.964844 12.039062 L 6.179688 12.039062 L 6.816406 12.5 Z M 10.289062 12.039062 L 10.921875 12.5 L 10.679688 13.242188 L 11.3125 12.785156 L 11.949219 13.242188 L 11.707031 12.5 L 12.339844 12.039062 L 11.554688 12.039062 L 11.3125 11.296875 L 11.074219 12.039062 Z M 14.394531 12.039062 L 15.03125 12.5 L 14.789062 13.242188 L 15.421875 12.785156 L 16.058594 13.242188 L 15.816406 12.5 L 16.449219 12.039062 L 15.664062 12.039062 L 15.421875 11.296875 L 15.179688 12.039062 Z M 2.070312 16.140625 L 2.707031 16.597656 L 2.464844 17.34375 L 3.097656 16.882812 L 3.734375 17.34375 L 3.492188 16.597656 L 4.125 16.140625 L 3.339844 16.140625 L 3.097656 15.394531 L 2.855469 16.140625 Z M 6.574219 17.34375 L 7.207031 16.882812 L 7.839844 17.34375 L 7.597656 16.597656 L 8.234375 16.140625 L 7.449219 16.140625 L 7.207031 15.394531 L 6.964844 16.140625 L 6.179688 16.140625 L 6.816406 16.597656 Z M 10.289062 16.140625 L 10.921875 16.597656 L 10.679688 17.34375 L 11.3125 16.882812 L 11.949219 17.34375 L 11.707031 16.597656 L 12.339844 16.140625 L 11.554688 16.140625 L 11.3125 15.394531 L 11.074219 16.140625 Z M 14.394531 16.140625 L 15.03125 16.597656 L 14.789062 17.34375 L 15.421875 16.882812 L 16.058594 17.34375 L 15.816406 16.597656 L 16.449219 16.140625 L 15.664062 16.140625 L 15.421875 15.394531 L 15.179688 16.140625 Z M 14.394531 16.140625 " fill-opacity="1" fill-rule="nonzero"/><g fill="#3c3b6e" fill-opacity="1"><g transform="translate(13.014288, 19.058387)"><g><path d="M 0.140625 0 L 0.140625 -1.1875 L 0.28125 -1.1875 L 0.28125 -0.734375 L 0.296875 -0.71875 C 0.347656 -0.8125 0.429688 -0.859375 0.546875 -0.859375 C 0.648438 -0.859375 0.722656 -0.832031 0.765625 -0.78125 C 0.816406 -0.726562 0.84375 -0.648438 0.84375 -0.546875 L 0.84375 0 L 0.71875 0 L 0.71875 -0.546875 C 0.71875 -0.597656 0.707031 -0.640625 0.6875 -0.671875 C 0.675781 -0.703125 0.65625 -0.722656 0.625 -0.734375 C 0.601562 -0.742188 0.570312 -0.75 0.53125 -0.75 C 0.445312 -0.75 0.382812 -0.722656 0.34375 -0.671875 C 0.300781 -0.628906 0.28125 -0.550781 0.28125 -0.4375 L 0.28125 0 Z M 0.140625 0 "/></g></g></g><g fill="#3c3b6e" fill-opacity="1"><g transform="translate(13.993182, 19.058387)"><g><path d="M 0.8125 -0.390625 L 0.21875 -0.390625 C 0.226562 -0.285156 0.253906 -0.207031 0.296875 -0.15625 C 0.347656 -0.113281 0.410156 -0.09375 0.484375 -0.09375 C 0.546875 -0.09375 0.59375 -0.101562 0.625 -0.125 C 0.664062 -0.144531 0.695312 -0.179688 0.71875 -0.234375 L 0.734375 -0.234375 L 0.828125 -0.1875 C 0.796875 -0.125 0.753906 -0.0703125 0.703125 -0.03125 C 0.648438 0 0.578125 0.015625 0.484375 0.015625 C 0.398438 0.015625 0.328125 0 0.265625 -0.03125 C 0.210938 -0.0625 0.171875 -0.109375 0.140625 -0.171875 C 0.109375 -0.242188 0.09375 -0.328125 0.09375 -0.421875 C 0.09375 -0.515625 0.109375 -0.59375 0.140625 -0.65625 C 0.171875 -0.726562 0.21875 -0.78125 0.28125 -0.8125 C 0.34375 -0.84375 0.410156 -0.859375 0.484375 -0.859375 C 0.585938 -0.859375 0.671875 -0.828125 0.734375 -0.765625 C 0.796875 -0.710938 0.828125 -0.625 0.828125 -0.5 C 0.828125 -0.457031 0.828125 -0.425781 0.828125 -0.40625 Z M 0.703125 -0.5 C 0.703125 -0.59375 0.679688 -0.660156 0.640625 -0.703125 C 0.609375 -0.742188 0.554688 -0.765625 0.484375 -0.765625 C 0.410156 -0.765625 0.351562 -0.742188 0.3125 -0.703125 C 0.269531 -0.660156 0.242188 -0.59375 0.234375 -0.5 Z M 0.703125 -0.5 "/></g></g></g><g fill="#3c3b6e" fill-opacity="1"><g transform="translate(14.899621, 19.058387)"><g><path d="M 0.34375 0.015625 C 0.28125 0.015625 0.226562 0 0.1875 -0.03125 C 0.15625 -0.0703125 0.140625 -0.125 0.140625 -0.1875 L 0.140625 -1.1875 L 0.265625 -1.1875 L 0.265625 -0.203125 C 0.265625 -0.160156 0.269531 -0.128906 0.28125 -0.109375 C 0.300781 -0.0976562 0.328125 -0.09375 0.359375 -0.09375 C 0.367188 -0.09375 0.382812 -0.0976562 0.40625 -0.109375 L 0.421875 -0.109375 L 0.4375 0 C 0.425781 0 0.410156 0 0.390625 0 C 0.378906 0.0078125 0.363281 0.015625 0.34375 0.015625 Z M 0.34375 0.015625 "/></g></g></g><g fill="#3c3b6e" fill-opacity="1"><g transform="translate(15.362091, 19.058387)"><g><path d="M 0.34375 0.015625 C 0.28125 0.015625 0.226562 0 0.1875 -0.03125 C 0.15625 -0.0703125 0.140625 -0.125 0.140625 -0.1875 L 0.140625 -1.1875 L 0.265625 -1.1875 L 0.265625 -0.203125 C 0.265625 -0.160156 0.269531 -0.128906 0.28125 -0.109375 C 0.300781 -0.0976562 0.328125 -0.09375 0.359375 -0.09375 C 0.367188 -0.09375 0.382812 -0.0976562 0.40625 -0.109375 L 0.421875 -0.109375 L 0.4375 0 C 0.425781 0 0.410156 0 0.390625 0 C 0.378906 0.0078125 0.363281 0.015625 0.34375 0.015625 Z M 0.34375 0.015625 "/></g></g></g><g fill="#3c3b6e" fill-opacity="1"><g transform="translate(15.82456, 19.058387)"><g><path d="M 0.484375 0.015625 C 0.410156 0.015625 0.34375 0 0.28125 -0.03125 C 0.21875 -0.0625 0.171875 -0.109375 0.140625 -0.171875 C 0.109375 -0.242188 0.09375 -0.328125 0.09375 -0.421875 C 0.09375 -0.515625 0.109375 -0.59375 0.140625 -0.65625 C 0.171875 -0.726562 0.21875 -0.78125 0.28125 -0.8125 C 0.34375 -0.84375 0.410156 -0.859375 0.484375 -0.859375 C 0.566406 -0.859375 0.632812 -0.84375 0.6875 -0.8125 C 0.75 -0.78125 0.796875 -0.726562 0.828125 -0.65625 C 0.859375 -0.59375 0.875 -0.515625 0.875 -0.421875 C 0.875 -0.328125 0.859375 -0.242188 0.828125 -0.171875 C 0.796875 -0.109375 0.75 -0.0625 0.6875 -0.03125 C 0.632812 0 0.566406 0.015625 0.484375 0.015625 Z M 0.484375 -0.09375 C 0.566406 -0.09375 0.628906 -0.117188 0.671875 -0.171875 C 0.722656 -0.222656 0.75 -0.304688 0.75 -0.421875 C 0.75 -0.535156 0.722656 -0.617188 0.671875 -0.671875 C 0.628906 -0.722656 0.566406 -0.75 0.484375 -0.75 C 0.398438 -0.75 0.332031 -0.722656 0.28125 -0.671875 C 0.238281 -0.617188 0.21875 -0.535156 0.21875 -0.421875 C 0.21875 -0.304688 0.238281 -0.222656 0.28125 -0.171875 C 0.332031 -0.117188 0.398438 -0.09375 0.484375 -0.09375 Z M 0.484375 -0.09375 "/></g></g></g></svg>