<svg width="411" height="378" viewBox="0 0 411 378" fill="none" xmlns="http://www.w3.org/2000/svg">
<path fill-rule="evenodd" clip-rule="evenodd" d="M383.355 108.583C383.059 108.367 382.356 108.291 382.029 108.226C380.67 107.958 379.269 107.841 377.884 107.841C373.611 107.848 369.269 108.267 365.067 108.994C362.399 109.455 359.174 111.007 356.52 110.164C351.896 108.696 347.224 108.768 342.837 110.865C338.827 112.782 335.782 116.423 334.006 120.358C333.738 120.952 332.65 123.138 332.342 124.612C332.211 124.913 332.084 125.217 331.97 125.525C331.647 126.399 331.357 127.288 331.087 128.18C330.972 128.56 330.682 129.4 331.026 129.562C330.477 130.577 329.989 131.624 329.583 132.704C328.403 135.845 327.113 139.292 326.698 142.621C326.544 143.854 326.539 145.095 326.681 146.33C326.752 146.941 326.723 148.168 327.136 148.633C328.014 149.618 328.465 148.239 328.366 147.582C327.61 142.575 329.069 137.874 330.798 133.168C331.917 130.125 333.754 127.341 335.812 124.819C337.478 122.778 339.265 121.171 341.548 119.818C344.341 118.163 347.326 116.826 350.284 115.484C352.229 114.601 354.177 113.742 356.177 112.981C356.621 112.812 357.321 112.378 357.814 112.376C358.857 112.373 360.334 113.143 361.341 113.429C364.654 114.372 368.009 115.578 371.432 116.06C373.628 116.369 375.685 116.021 377.739 115.289C377.949 115.214 378.3 115.022 378.731 114.747C380.256 114.16 381.698 113.422 382.954 112.356C383.678 111.742 384.334 110.948 384.933 110.222C385.112 110.004 385.191 109.756 385.194 109.519C385.33 109.448 385.42 109.365 385.44 109.268C385.589 108.553 384.227 108.54 383.355 108.583Z" fill="#89C5CC"/>
<path fill-rule="evenodd" clip-rule="evenodd" d="M36.2531 168.177C35.4149 168.856 34.5927 169.551 33.7906 170.272C33.1793 170.823 32.0974 171.482 31.878 172.315C31.6499 173.182 32.3701 173.993 32.939 174.517C35.9477 177.287 39.3355 179.16 43.5045 179.471C49.9237 179.951 55.5103 178.31 61.0799 175.082C64.9922 172.814 67.5837 169.46 68.1497 164.931C72.8089 166.869 77.3153 169.54 81.1446 172.819C83.0341 174.437 84.6615 176.229 86.1668 178.215C87.1308 179.488 88.0634 180.781 88.9288 182.124C89.305 182.708 89.6874 183.742 90.3085 184.078C91.0376 184.473 91.9187 183.854 91.8826 183.043C91.8526 182.368 91.124 181.585 90.7834 181.033C90.2175 180.116 89.6433 179.205 89.0385 178.314C88.06 176.87 87.0486 175.447 85.9455 174.097C83.4666 171.062 80.3123 168.555 77.0426 166.417C70.7699 162.316 63.8857 159.732 56.2532 159.513C51.56 159.379 47.612 160.983 43.5986 163.38C41.0999 164.872 38.5205 166.339 36.2531 168.177Z" fill="#DDE3E9"/>
<path fill-rule="evenodd" clip-rule="evenodd" d="M97.1311 148.34C92.2404 143.299 87.3327 138.321 81.8686 133.882C78.6484 131.267 75.2546 128.888 71.9309 126.408C72.3145 126.744 72.6906 127.09 73.0577 127.445C72.0202 126.74 70.662 126.342 69.5621 125.689C68.3352 124.961 67.1625 124.129 66.0121 123.29C63.7667 121.652 61.555 119.983 59.2469 118.431C56.6752 116.702 54.0102 115.104 51.3948 113.44C49.1752 112.028 46.9284 110.482 44.5538 109.328C43.2596 108.699 41.9624 107.953 40.6628 107.296C40.2279 107.077 35.8148 104.288 35.8259 104.279C36.0699 104.095 38.2907 105.14 38.6341 105.28C39.6373 105.69 40.5967 106.181 41.5612 106.67C41.0318 105.625 40.6127 104.527 40.3846 103.371C40.3142 103.014 39.7496 100.417 40.0385 100.199C40.1828 100.09 41.5907 104.737 41.6628 105.184C41.7214 105.547 41.7128 106.069 41.8315 106.413C42.0231 106.968 42.0134 106.8 42.4356 107.113C43.2093 107.686 44.2363 108.044 45.0737 108.523C45.5252 108.775 46.9233 109.776 47.7654 110.061C50.3133 111.3 52.8959 113.205 55.3167 114.787C54.6814 113.592 54.1979 112.342 53.8453 111.033C53.7614 110.722 52.8566 107.933 53.0761 107.767C53.3231 107.581 55.0472 111.841 55.1493 112.244C55.339 112.993 55.3784 113.827 55.6159 114.555C55.8767 115.355 56.6902 115.639 57.4235 116.105C60.1212 117.821 62.7264 119.644 65.2882 121.55C68.0833 116.575 64.8604 110.567 62.1441 106.392C60.1862 103.383 57.5503 100.804 54.7673 98.5518C51.053 95.5464 46.8035 93.1454 42.5591 90.9492C37.6136 88.3902 32.2683 86.8046 26.7113 86.0721C23.8049 85.689 20.8314 85.6997 17.8956 85.8225C16.4615 85.8824 15.0849 86.0726 13.7106 86.5407C13.0911 86.752 12.4925 87.0182 11.9091 87.3162C11.4658 87.5427 10.3935 87.7818 10.1387 88.1193C8.04073 90.8522 6.96744 93.5755 7.13134 97.0097C7.28633 100.261 8.31217 103.513 9.70433 106.413C11.2547 109.642 13.2488 112.573 15.8567 115.032C17.8463 116.909 20.0708 118.542 22.2806 120.154C30.1402 125.887 40.1048 130.873 50.2844 129.592C53.5795 129.177 56.7136 128.024 59.6424 126.457C60.3326 126.088 61.0185 125.714 61.67 125.278C62.1092 124.984 63.2834 123.659 63.7251 123.611C64.3307 123.545 65.6353 124.778 66.2034 125.153C70.5209 128.006 74.7254 131.013 78.8417 134.142C83.2212 137.47 87.3859 141.026 91.4279 144.748C93.1471 146.331 94.8553 147.918 96.5247 149.555C96.9132 149.935 97.8635 151.337 98.5683 151.401C99.0139 151.441 99.3143 151.06 99.2507 150.648C99.1402 149.93 97.6318 148.856 97.1311 148.34Z" fill="#C1DEE2"/>
<path fill-rule="evenodd" clip-rule="evenodd" d="M378.22 128.776C376.326 128.361 374.234 128.393 372.304 128.427C361.955 128.568 351.792 133.472 345.178 141.308C339.548 147.979 337.999 156.272 336.887 164.656C336.777 165.489 336.729 166.316 336.667 167.15C336.654 167.329 336.634 167.489 336.613 167.639C336.175 168.03 335.946 168.487 336.205 168.988C335.241 171.099 334.426 173.263 333.726 175.495C331.667 182.066 329.573 188.761 330.863 195.671C331.165 191.868 331.798 187.98 332.557 184.241C332.6 184.026 332.647 183.813 332.697 183.601C332.702 183.578 332.706 183.556 332.711 183.534C332.98 182.388 333.329 181.278 333.753 180.184C333.757 180.172 333.762 180.16 333.766 180.149C333.822 180.005 333.882 179.862 333.94 179.718C334.062 179.422 334.187 179.126 334.319 178.832C334.364 178.732 334.407 178.631 334.448 178.529C335.066 177.013 335.327 175.306 335.88 173.738C336.013 173.382 336.151 173.027 336.296 172.673C336.305 172.653 336.313 172.632 336.322 172.611C336.714 171.661 337.147 170.721 337.605 169.792C337.854 169.605 337.987 169.141 338.201 168.719C338.246 168.636 338.593 168.081 338.696 167.762C338.965 167.239 339.234 166.717 339.506 166.196C339.497 166.199 339.489 166.202 339.481 166.205C339.753 165.705 340.025 165.207 340.296 164.71C340.355 164.601 340.415 164.492 340.475 164.383C340.572 164.209 340.67 164.035 340.766 163.861C341.673 162.238 342.634 160.647 343.632 159.075C343.989 158.514 344.84 157.71 345.003 157.08C345.009 157.057 345.01 157.035 345.014 157.013C347.18 153.968 349.674 151.16 352.664 148.934C352.302 149.325 351.534 150.652 351.331 150.915C350.709 151.72 350.034 152.469 349.357 153.227C348.144 154.585 346.959 155.986 345.907 157.467C343.982 160.176 342.322 163.028 340.752 165.936C340.737 165.953 340.721 165.969 340.707 165.987C339.918 166.96 339.421 168.431 338.853 169.545C341.101 168.503 343.586 167.824 345.892 166.899C348.193 165.977 350.43 164.95 352.59 163.744C355.461 162.141 358.44 160.331 361.153 158.283C364.261 156.353 366.874 153.697 369.18 150.909C371.908 147.611 374.408 144.284 375.955 140.279C376.714 138.311 377.312 136.258 377.666 134.182C377.682 134.092 377.701 133.994 377.723 133.892C378.085 133.175 378.41 132.442 378.681 131.692C379.113 130.502 380.133 129.194 378.22 128.776Z" fill="#69A1AC"/>
<path fill-rule="evenodd" clip-rule="evenodd" d="M57.2114 142.711C56.618 142.068 55.9514 141.488 55.1688 141.074C54.9709 140.969 53.4971 140.268 53.4011 140.422C53.1775 140.78 57.0332 142.506 57.2114 142.711ZM64.1992 138.415C64.1943 138.442 64.7054 139.31 64.8445 139.577C65.1406 140.144 65.414 140.722 65.6712 141.302C65.2904 140.278 64.8992 139.329 64.1992 138.415ZM28.4618 145.479C27.9696 145.638 27.3779 145.013 28.0163 144.859C28.5328 144.735 28.5075 144.706 28.7394 144.29C28.9278 143.951 29.0438 143.539 29.2091 143.184C29.5597 142.431 29.9573 141.713 30.4455 141.041C31.4916 139.599 32.7663 138.356 34.1959 137.309C36.6908 135.482 39.4882 133.812 42.4556 132.973C47.1739 131.639 52.5439 131.557 57.2695 132.482C60.1963 133.055 62.871 134.05 64.8143 136.409C65.7857 137.587 66.5481 138.968 66.8814 140.489C66.9684 140.886 66.9521 141.328 67.061 141.717C67.2284 142.316 67.1545 142.156 67.8537 142.273C68.6171 142.4 69.3798 142.53 70.1424 142.661C72.139 143.007 74.1472 143.374 76.0926 143.935C76.733 144.12 77.3592 144.345 77.9709 144.607C78.4336 144.805 80.2759 145.427 80.4997 146.029C80.8724 147.03 79.6238 146.576 79.2359 146.358C78.896 146.167 78.5471 145.989 78.1931 145.825C77.3017 145.412 76.3731 145.093 75.4234 144.838C74.3972 144.564 73.35 144.359 72.3068 144.153C71.3339 143.962 70.3574 143.788 69.3797 143.621C68.8366 143.529 68.2929 143.439 67.7493 143.349C67.5636 143.318 67.2361 143.157 67.2608 143.399C66.1179 143.179 64.882 143.21 63.7178 143.15C62.2918 143.075 60.8606 143.014 59.43 143.059C58.3981 143.091 57.3653 143.159 56.3387 143.298C55.7388 143.379 55.1485 143.497 54.5599 143.647C54.2367 143.73 52.9618 143.905 52.7857 144.187C52.8613 144.066 54.2683 144.183 54.4474 144.177C55.1637 144.15 55.8745 144.079 56.5881 143.999C57.9125 143.851 59.2374 143.773 60.5659 143.785C60.5608 144.018 59.6534 144.434 59.4318 144.589C58.9352 144.936 58.4595 145.314 58.0157 145.729C57.2338 146.46 56.2977 147.366 55.7569 148.232C55.9163 147.977 56.7025 147.644 56.9815 147.449C57.4285 147.137 57.8664 146.804 58.2807 146.447C58.6632 146.118 59.0201 145.763 59.3711 145.399C59.7221 145.036 60.1984 144.281 60.6596 144.039C60.6874 144.024 60.8884 144.183 61.0026 144.129C61.1177 144.075 61.2612 143.803 61.2904 143.791C61.7197 143.626 62.535 143.832 62.9863 143.853C64.1567 143.907 65.326 143.977 66.4956 144.042C66.8579 144.062 67.1658 143.979 67.3027 144.247C67.4485 144.532 67.1813 145.282 67.1053 145.593C66.8233 146.747 66.3224 147.782 65.534 148.676C64.0574 150.35 62.2368 151.467 60.1799 152.214C52.3018 155.074 43.9205 156.22 36.0448 153.244C32.7843 152.012 27.8738 149.811 28.4618 145.479Z" fill="#89C5CC"/>
<g opacity="0.6">
<path fill-rule="evenodd" clip-rule="evenodd" d="M389.179 280.249C394.538 316.562 264.56 340.247 152.685 323.718C40.8101 307.188 -10.5128 242.639 42.8721 208.245C96.257 173.85 383.819 243.937 389.179 280.249Z" fill="#DDE3E9"/>
</g>
<path d="M160.512 42.2471H81.0892C78.6353 42.2471 76.646 44.2381 76.646 46.6941V205.676C76.646 208.133 78.6353 210.124 81.0892 210.124H160.512C162.966 210.124 164.955 208.133 164.955 205.676V46.6941C164.955 44.2381 162.966 42.2471 160.512 42.2471Z" fill="#F2F2F2"/>
<path d="M120.523 199.562C125.124 199.562 128.854 195.829 128.854 191.224C128.854 186.618 125.124 182.885 120.523 182.885C115.922 182.885 112.192 186.618 112.192 191.224C112.192 195.829 115.922 199.562 120.523 199.562Z" fill="white"/>
<path d="M113.303 53.3647C113.916 53.3647 114.414 52.8669 114.414 52.2529C114.414 51.6389 113.916 51.1412 113.303 51.1412C112.689 51.1412 112.192 51.6389 112.192 52.2529C112.192 52.8669 112.689 53.3647 113.303 53.3647Z" fill="white"/>
<path d="M127.743 51.1412H118.301C117.688 51.1412 117.191 51.6389 117.191 52.2529C117.191 52.8669 117.688 53.3647 118.301 53.3647H127.743C128.357 53.3647 128.854 52.8669 128.854 52.2529C128.854 51.6389 128.357 51.1412 127.743 51.1412Z" fill="white"/>
<path d="M154.958 57.8118H86.6433C85.4163 57.8118 84.4216 58.8073 84.4216 60.0353V85.6059C84.4216 86.8339 85.4163 87.8294 86.6433 87.8294H154.958C156.185 87.8294 157.18 86.8339 157.18 85.6059V60.0353C157.18 58.8073 156.185 57.8118 154.958 57.8118Z" fill="white"/>
<path d="M144.961 66.8171H107.749C106.828 66.8171 106.082 67.5637 106.082 68.4847V69.6521C106.082 70.5731 106.828 71.3197 107.749 71.3197H144.961C145.881 71.3197 146.627 70.5731 146.627 69.6521V68.4847C146.627 67.5637 145.881 66.8171 144.961 66.8171Z" fill="#DDE3E9"/>
<path d="M131.631 74.3215H107.749C106.828 74.3215 106.082 75.0681 106.082 75.9891V77.1565C106.082 78.0775 106.828 78.8241 107.749 78.8241H131.631C132.551 78.8241 133.297 78.0775 133.297 77.1565V75.9891C133.297 75.0681 132.551 74.3215 131.631 74.3215Z" fill="#DDE3E9"/>
<path d="M96.0852 79.4912C99.7661 79.4912 102.75 76.5046 102.75 72.8206C102.75 69.1365 99.7661 66.15 96.0852 66.15C92.4042 66.15 89.4203 69.1365 89.4203 72.8206C89.4203 76.5046 92.4042 79.4912 96.0852 79.4912Z" fill="#C5CFD6"/>
<path d="M154.958 92.2765H86.6433C85.4163 92.2765 84.4216 93.272 84.4216 94.5V113.4C84.4216 114.628 85.4163 115.624 86.6433 115.624H154.958C156.185 115.624 157.18 114.628 157.18 113.4V94.5C157.18 93.272 156.185 92.2765 154.958 92.2765Z" fill="white"/>
<path d="M144.961 99.2806H107.749C106.828 99.2806 106.082 100.027 106.082 100.948V101.115C106.082 102.036 106.828 102.783 107.749 102.783H144.961C145.881 102.783 146.627 102.036 146.627 101.115V100.948C146.627 100.027 145.881 99.2806 144.961 99.2806Z" fill="#DDE3E9"/>
<path d="M131.631 105.117H107.749C106.828 105.117 106.082 105.864 106.082 106.785V106.952C106.082 107.873 106.828 108.619 107.749 108.619H131.631C132.551 108.619 133.297 107.873 133.297 106.952V106.785C133.297 105.864 132.551 105.117 131.631 105.117Z" fill="#DDE3E9"/>
<path d="M96.0852 110.621C99.7661 110.621 102.75 107.634 102.75 103.95C102.75 100.266 99.7661 97.2794 96.0852 97.2794C92.4042 97.2794 89.4203 100.266 89.4203 103.95C89.4203 107.634 92.4042 110.621 96.0852 110.621Z" fill="#C5CFD6"/>
<path d="M154.958 120.071H86.6433C85.4163 120.071 84.4216 121.066 84.4216 122.294V141.194C84.4216 142.422 85.4163 143.418 86.6433 143.418H154.958C156.185 143.418 157.18 142.422 157.18 141.194V122.294C157.18 121.066 156.185 120.071 154.958 120.071Z" fill="white"/>
<path d="M144.961 127.075H107.749C106.828 127.075 106.082 127.821 106.082 128.742V128.909C106.082 129.83 106.828 130.577 107.749 130.577H144.961C145.881 130.577 146.627 129.83 146.627 128.909V128.742C146.627 127.821 145.881 127.075 144.961 127.075Z" fill="#DDE3E9"/>
<path d="M131.631 132.911H107.749C106.828 132.911 106.082 133.658 106.082 134.579V134.746C106.082 135.667 106.828 136.414 107.749 136.414H131.631C132.551 136.414 133.297 135.667 133.297 134.746V134.579C133.297 133.658 132.551 132.911 131.631 132.911Z" fill="#DDE3E9"/>
<path d="M96.0852 138.415C99.7661 138.415 102.75 135.428 102.75 131.744C102.75 128.06 99.7661 125.074 96.0852 125.074C92.4042 125.074 89.4203 128.06 89.4203 131.744C89.4203 135.428 92.4042 138.415 96.0852 138.415Z" fill="#AFB9C5"/>
<path d="M154.958 147.865H86.6433C85.4163 147.865 84.4216 148.86 84.4216 150.088V168.988C84.4216 170.216 85.4163 171.212 86.6433 171.212H154.958C156.185 171.212 157.18 170.216 157.18 168.988V150.088C157.18 148.86 156.185 147.865 154.958 147.865Z" fill="white"/>
<path d="M144.961 154.869H107.749C106.828 154.869 106.082 155.615 106.082 156.536V156.703C106.082 157.624 106.828 158.371 107.749 158.371H144.961C145.881 158.371 146.627 157.624 146.627 156.703V156.536C146.627 155.615 145.881 154.869 144.961 154.869Z" fill="#DDE3E9"/>
<path d="M131.631 160.706H107.749C106.828 160.706 106.082 161.452 106.082 162.373V162.54C106.082 163.461 106.828 164.208 107.749 164.208H131.631C132.551 164.208 133.297 163.461 133.297 162.54V162.373C133.297 161.452 132.551 160.706 131.631 160.706Z" fill="#DDE3E9"/>
<path d="M96.0852 166.209C99.7661 166.209 102.75 163.222 102.75 159.538C102.75 155.854 99.7661 152.868 96.0852 152.868C92.4042 152.868 89.4203 155.854 89.4203 159.538C89.4203 163.222 92.4042 166.209 96.0852 166.209Z" fill="#C5CFD6"/>
<path fill-rule="evenodd" clip-rule="evenodd" d="M93.3859 177.882C92.6501 177.882 91.9165 177.897 91.1816 177.935C90.6215 177.965 89.7654 177.848 89.2914 178.198C88.7989 178.561 88.8329 179.304 88.9098 179.829C89.3165 182.603 90.3091 185.064 92.3856 187.03C95.5829 190.057 99.2483 191.595 103.586 192.28C106.632 192.761 109.445 192.093 111.688 189.924C113.326 192.968 114.57 196.337 115.193 199.737C115.501 201.415 115.595 203.072 115.541 204.78C115.506 205.874 115.446 206.966 115.329 208.055C115.278 208.528 115.037 209.244 115.222 209.692C115.439 210.217 116.172 210.267 116.5 209.82C116.774 209.447 116.724 208.715 116.78 208.274C116.873 207.541 116.96 206.808 117.021 206.072C117.122 204.881 117.196 203.686 117.19 202.49C117.178 199.804 116.581 197.106 115.765 194.556C114.198 189.663 111.657 185.314 107.705 181.902C105.274 179.804 102.493 178.954 99.3375 178.498C97.3729 178.214 95.3762 177.882 93.3859 177.882Z" fill="#89C5CC"/>
<path fill-rule="evenodd" clip-rule="evenodd" d="M104.734 197.338C96.7919 197.338 91.4431 203.744 88.9142 210.402C87.9609 212.912 87.7374 215.668 87.37 218.303C87.2521 219.149 87.2958 220.437 86.9528 221.191C86.8283 221.464 86.543 221.562 86.6794 221.934C86.762 222.16 86.9241 222.298 87.1674 222.343C87.6669 222.435 88.3733 221.89 88.8016 221.675C92.3539 219.892 94.6879 217.135 96.592 213.762C97.7723 211.671 98.9698 209.5 99.671 207.205C100.099 205.803 100.349 204.326 100.495 202.871C100.553 202.299 100.608 201.712 100.605 201.136C100.602 200.564 100.336 200.262 100.145 199.764C102.795 198.76 105.786 198.486 108.47 199.527C110.953 200.489 113.015 202.348 114.17 204.685C114.47 205.292 114.701 205.932 114.87 206.586C114.98 207.014 114.985 207.569 115.19 207.956C115.686 208.894 116.729 208.267 116.628 207.394C116.349 204.958 114.957 202.513 113.178 200.819C110.934 198.684 107.892 197.338 104.734 197.338Z" fill="#89C5CC"/>
<path d="M197.169 56.7H117.746C115.292 56.7 113.303 58.691 113.303 61.1471V220.129C113.303 222.585 115.292 224.576 117.746 224.576H197.169C199.623 224.576 201.612 222.585 201.612 220.129V61.1471C201.612 58.691 199.623 56.7 197.169 56.7Z" fill="#DDE3E9"/>
<path d="M157.18 214.015C161.781 214.015 165.511 210.282 165.511 205.676C165.511 201.071 161.781 197.338 157.18 197.338C152.579 197.338 148.849 201.071 148.849 205.676C148.849 210.282 152.579 214.015 157.18 214.015Z" fill="white"/>
<path d="M149.96 67.8176C150.573 67.8176 151.07 67.3199 151.07 66.7059C151.07 66.0919 150.573 65.5941 149.96 65.5941C149.346 65.5941 148.849 66.0919 148.849 66.7059C148.849 67.3199 149.346 67.8176 149.96 67.8176Z" fill="white"/>
<path d="M164.4 65.5941H154.958C154.345 65.5941 153.847 66.0919 153.847 66.7059C153.847 67.3199 154.345 67.8176 154.958 67.8176H164.4C165.014 67.8176 165.511 67.3199 165.511 66.7059C165.511 66.0919 165.014 65.5941 164.4 65.5941Z" fill="white"/>
<path d="M191.615 72.2647H123.3C122.073 72.2647 121.078 73.2602 121.078 74.4882V100.059C121.078 101.287 122.073 102.282 123.3 102.282H191.615C192.842 102.282 193.837 101.287 193.837 100.059V74.4882C193.837 73.2602 192.842 72.2647 191.615 72.2647Z" fill="white"/>
<path d="M164.956 81.27H127.743C126.823 81.27 126.077 82.0166 126.077 82.9376V84.105C126.077 85.026 126.823 85.7726 127.743 85.7726H164.956C165.876 85.7726 166.622 85.026 166.622 84.105V82.9376C166.622 82.0166 165.876 81.27 164.956 81.27Z" fill="#DDE3E9"/>
<path d="M151.626 88.7744H127.743C126.823 88.7744 126.077 89.521 126.077 90.4421V91.6094C126.077 92.5304 126.823 93.2771 127.743 93.2771H151.626C152.546 93.2771 153.292 92.5304 153.292 91.6094V90.4421C153.292 89.521 152.546 88.7744 151.626 88.7744Z" fill="#DDE3E9"/>
<path d="M186.061 91.1647C188.208 91.1647 189.949 89.4226 189.949 87.2735C189.949 85.1245 188.208 83.3823 186.061 83.3823C183.914 83.3823 182.173 85.1245 182.173 87.2735C182.173 89.4226 183.914 91.1647 186.061 91.1647Z" fill="#DDE3E9"/>
<path d="M186.061 88.9412C186.981 88.9412 187.727 88.1945 187.727 87.2735C187.727 86.3525 186.981 85.6059 186.061 85.6059C185.141 85.6059 184.395 86.3525 184.395 87.2735C184.395 88.1945 185.141 88.9412 186.061 88.9412Z" fill="#F2F2F2"/>
<path d="M191.615 106.729H123.3C122.073 106.729 121.078 107.725 121.078 108.953V127.853C121.078 129.081 122.073 130.076 123.3 130.076H191.615C192.842 130.076 193.837 129.081 193.837 127.853V108.953C193.837 107.725 192.842 106.729 191.615 106.729Z" fill="white"/>
<path d="M181.618 113.734H144.405C143.485 113.734 142.739 114.48 142.739 115.401V115.568C142.739 116.489 143.485 117.236 144.405 117.236H181.618C182.538 117.236 183.284 116.489 183.284 115.568V115.401C183.284 114.48 182.538 113.734 181.618 113.734Z" fill="#DDE3E9"/>
<path d="M168.288 119.57H144.405C143.485 119.57 142.739 120.317 142.739 121.238V121.405C142.739 122.326 143.485 123.072 144.405 123.072H168.288C169.208 123.072 169.954 122.326 169.954 121.405V121.238C169.954 120.317 169.208 119.57 168.288 119.57Z" fill="#DDE3E9"/>
<path d="M132.742 125.074C136.423 125.074 139.407 122.087 139.407 118.403C139.407 114.719 136.423 111.732 132.742 111.732C129.061 111.732 126.077 114.719 126.077 118.403C126.077 122.087 129.061 125.074 132.742 125.074Z" fill="#C5CFD6"/>
<path d="M191.615 134.524H123.3C122.073 134.524 121.078 135.519 121.078 136.747V155.647C121.078 156.875 122.073 157.871 123.3 157.871H191.615C192.842 157.871 193.837 156.875 193.837 155.647V136.747C193.837 135.519 192.842 134.524 191.615 134.524Z" fill="white"/>
<path d="M164.956 141.528H127.743C126.823 141.528 126.077 142.274 126.077 143.195V143.362C126.077 144.283 126.823 145.03 127.743 145.03H164.956C165.876 145.03 166.622 144.283 166.622 143.362V143.195C166.622 142.274 165.876 141.528 164.956 141.528Z" fill="#DDE3E9"/>
<path d="M151.626 147.364H127.743C126.823 147.364 126.077 148.111 126.077 149.032V149.199C126.077 150.12 126.823 150.866 127.743 150.866H151.626C152.546 150.866 153.292 150.12 153.292 149.199V149.032C153.292 148.111 152.546 147.364 151.626 147.364Z" fill="#AFB9C5"/>
<path d="M186.061 150.088C188.208 150.088 189.949 148.346 189.949 146.197C189.949 144.048 188.208 142.306 186.061 142.306C183.914 142.306 182.173 144.048 182.173 146.197C182.173 148.346 183.914 150.088 186.061 150.088Z" fill="#DDE3E9"/>
<path d="M186.061 147.865C186.981 147.865 187.727 147.118 187.727 146.197C187.727 145.276 186.981 144.529 186.061 144.529C185.141 144.529 184.395 145.276 184.395 146.197C184.395 147.118 185.141 147.865 186.061 147.865Z" fill="#F2F2F2"/>
<path d="M191.615 162.318H123.3C122.073 162.318 121.078 163.313 121.078 164.541V183.441C121.078 184.669 122.073 185.665 123.3 185.665H191.615C192.842 185.665 193.837 184.669 193.837 183.441V164.541C193.837 163.313 192.842 162.318 191.615 162.318Z" fill="white"/>
<path d="M181.618 169.322H144.405C143.485 169.322 142.739 170.068 142.739 170.989V171.156C142.739 172.077 143.485 172.824 144.405 172.824H181.618C182.538 172.824 183.284 172.077 183.284 171.156V170.989C183.284 170.068 182.538 169.322 181.618 169.322Z" fill="#DDE3E9"/>
<path d="M168.288 175.159H144.405C143.485 175.159 142.739 175.905 142.739 176.826V176.993C142.739 177.914 143.485 178.661 144.405 178.661H168.288C169.208 178.661 169.954 177.914 169.954 176.993V176.826C169.954 175.905 169.208 175.159 168.288 175.159Z" fill="#DDE3E9"/>
<path d="M132.742 180.662C136.423 180.662 139.407 177.675 139.407 173.991C139.407 170.307 136.423 167.321 132.742 167.321C129.061 167.321 126.077 170.307 126.077 173.991C126.077 177.675 129.061 180.662 132.742 180.662Z" fill="#C5CFD6"/>
<path d="M331.577 70.5971H154.403C151.949 70.5971 149.959 72.5881 149.959 75.0441V258.485C149.959 260.941 151.949 262.932 154.403 262.932H331.577C334.031 262.932 336.02 260.941 336.02 258.485V75.0441C336.02 72.5881 334.031 70.5971 331.577 70.5971Z" fill="#F2F2F2"/>
<path d="M322.691 94.5H292.699C290.245 94.5 288.255 96.491 288.255 98.9471V135.079C288.255 137.535 290.245 139.526 292.699 139.526H322.691C325.144 139.526 327.134 137.535 327.134 135.079V98.9471C327.134 96.491 325.144 94.5 322.691 94.5Z" fill="white"/>
<path d="M307.695 120.626C312.602 120.626 316.581 116.644 316.581 111.732C316.581 106.82 312.602 102.838 307.695 102.838C302.787 102.838 298.808 106.82 298.808 111.732C298.808 116.644 302.787 120.626 307.695 120.626Z" fill="#DDE3E9"/>
<path d="M319.914 122.85H295.476C294.556 122.85 293.81 123.597 293.81 124.518C293.81 125.439 294.556 126.185 295.476 126.185H319.914C320.834 126.185 321.58 125.439 321.58 124.518C321.58 123.597 320.834 122.85 319.914 122.85Z" fill="#DDE3E9"/>
<path d="M315.47 128.409H299.919C298.999 128.409 298.253 129.155 298.253 130.076C298.253 130.997 298.999 131.744 299.919 131.744H315.47C316.391 131.744 317.137 130.997 317.137 130.076C317.137 129.155 316.391 128.409 315.47 128.409Z" fill="#DDE3E9"/>
<path fill-rule="evenodd" clip-rule="evenodd" d="M154.403 70.5971H331.577C334.031 70.5971 336.02 72.5881 336.02 75.0441V85.6059H149.959V75.0441C149.959 72.5881 151.949 70.5971 154.403 70.5971Z" fill="#C5CFD6"/>
<path d="M157.18 80.6029C158.407 80.6029 159.401 79.6074 159.401 78.3794C159.401 77.1514 158.407 76.1559 157.18 76.1559C155.953 76.1559 154.958 77.1514 154.958 78.3794C154.958 79.6074 155.953 80.6029 157.18 80.6029Z" fill="#F2F2F2"/>
<path d="M163.845 80.6029C165.072 80.6029 166.066 79.6074 166.066 78.3794C166.066 77.1514 165.072 76.1559 163.845 76.1559C162.618 76.1559 161.623 77.1514 161.623 78.3794C161.623 79.6074 162.618 80.6029 163.845 80.6029Z" fill="#F2F2F2"/>
<path d="M170.509 80.6029C171.736 80.6029 172.731 79.6074 172.731 78.3794C172.731 77.1514 171.736 76.1559 170.509 76.1559C169.282 76.1559 168.288 77.1514 168.288 78.3794C168.288 79.6074 169.282 80.6029 170.509 80.6029Z" fill="#F2F2F2"/>
<path d="M322.691 143.974H292.699C290.245 143.974 288.255 145.965 288.255 148.421V247.368C288.255 249.824 290.245 251.815 292.699 251.815H322.691C325.144 251.815 327.134 249.824 327.134 247.368V148.421C327.134 145.965 325.144 143.974 322.691 143.974Z" fill="white"/>
<path d="M314.915 153.979H300.474C299.247 153.979 298.253 154.975 298.253 156.203V166.209C298.253 167.437 299.247 168.432 300.474 168.432H314.915C316.142 168.432 317.136 167.437 317.136 166.209V156.203C317.136 154.975 316.142 153.979 314.915 153.979Z" fill="#DDE3E9"/>
<path d="M314.915 172.879H300.474C299.247 172.879 298.253 173.875 298.253 175.103V184.553C298.253 185.781 299.247 186.776 300.474 186.776H314.915C316.142 186.776 317.136 185.781 317.136 184.553V175.103C317.136 173.875 316.142 172.879 314.915 172.879Z" fill="#AFB9C5"/>
<path d="M314.915 191.224H300.474C299.247 191.224 298.253 192.219 298.253 193.447V202.897C298.253 204.125 299.247 205.121 300.474 205.121H314.915C316.142 205.121 317.136 204.125 317.136 202.897V193.447C317.136 192.219 316.142 191.224 314.915 191.224Z" fill="#DDE3E9"/>
<path d="M314.915 227.912H300.474C299.247 227.912 298.253 228.907 298.253 230.135V239.585C298.253 240.813 299.247 241.809 300.474 241.809H314.915C316.142 241.809 317.136 240.813 317.136 239.585V230.135C317.136 228.907 316.142 227.912 314.915 227.912Z" fill="#DDE3E9"/>
<path d="M314.915 209.568H300.474C299.247 209.568 298.253 210.563 298.253 211.791V221.241C298.253 222.469 299.247 223.465 300.474 223.465H314.915C316.142 223.465 317.136 222.469 317.136 221.241V211.791C317.136 210.563 316.142 209.568 314.915 209.568Z" fill="#C5CFD6"/>
<path d="M281.591 95.0559H161.068C159.841 95.0559 158.846 96.0514 158.846 97.2794V118.959C158.846 120.187 159.841 121.182 161.068 121.182H281.591C282.818 121.182 283.812 120.187 283.812 118.959V97.2794C283.812 96.0514 282.818 95.0559 281.591 95.0559Z" fill="white"/>
<path d="M254.931 102.894H165.511C164.591 102.894 163.845 103.64 163.845 104.561V105.145C163.845 106.066 164.591 106.813 165.511 106.813H254.931C255.851 106.813 256.597 106.066 256.597 105.145V104.561C256.597 103.64 255.851 102.894 254.931 102.894Z" fill="#DDE3E9"/>
<path d="M224.437 109.425H165.511C164.591 109.425 163.845 110.172 163.845 111.093V111.677C163.845 112.598 164.591 113.344 165.511 113.344H224.437C225.357 113.344 226.103 112.598 226.103 111.677V111.093C226.103 110.172 225.357 109.425 224.437 109.425Z" fill="#DDE3E9"/>
<path d="M270.457 112.01C272.604 112.01 274.345 110.268 274.345 108.119C274.345 105.97 272.604 104.228 270.457 104.228C268.31 104.228 266.569 105.97 266.569 108.119C266.569 110.268 268.31 112.01 270.457 112.01Z" fill="#DDE3E9"/>
<path d="M270.457 109.787C271.377 109.787 272.123 109.04 272.123 108.119C272.123 107.198 271.377 106.451 270.457 106.451C269.537 106.451 268.791 107.198 268.791 108.119C268.791 109.04 269.537 109.787 270.457 109.787Z" fill="#F2F2F2"/>
<path d="M281.591 125.629H161.068C159.841 125.629 158.846 126.625 158.846 127.853V145.085C158.846 146.313 159.841 147.309 161.068 147.309H281.591C282.818 147.309 283.812 146.313 283.812 145.085V127.853C283.812 126.625 282.818 125.629 281.591 125.629Z" fill="white"/>
<path d="M254.973 132.133H165.469C164.572 132.133 163.845 132.861 163.845 133.759C163.845 134.657 164.572 135.385 165.469 135.385H254.973C255.87 135.385 256.597 134.657 256.597 133.759C256.597 132.861 255.87 132.133 254.973 132.133Z" fill="#DDE3E9"/>
<path d="M224.479 137.553H165.469C164.572 137.553 163.845 138.281 163.845 139.179C163.845 140.077 164.572 140.805 165.469 140.805H224.479C225.376 140.805 226.103 140.077 226.103 139.179C226.103 138.281 225.376 137.553 224.479 137.553Z" fill="#DDE3E9"/>
<path d="M270.457 140.36C272.604 140.36 274.345 138.618 274.345 136.469C274.345 134.32 272.604 132.578 270.457 132.578C268.31 132.578 266.569 134.32 266.569 136.469C266.569 138.618 268.31 140.36 270.457 140.36Z" fill="#DDE3E9"/>
<path d="M270.457 138.137C271.377 138.137 272.123 137.39 272.123 136.469C272.123 135.548 271.377 134.801 270.457 134.801C269.537 134.801 268.791 135.548 268.791 136.469C268.791 137.39 269.537 138.137 270.457 138.137Z" fill="#F2F2F2"/>
<path d="M281.591 151.756H161.068C159.841 151.756 158.846 152.751 158.846 153.979V171.212C158.846 172.44 159.841 173.435 161.068 173.435H281.591C282.818 173.435 283.812 172.44 283.812 171.212V153.979C283.812 152.751 282.818 151.756 281.591 151.756Z" fill="white"/>
<path d="M254.973 158.26H165.469C164.572 158.26 163.845 158.988 163.845 159.886C163.845 160.784 164.572 161.512 165.469 161.512H254.973C255.87 161.512 256.597 160.784 256.597 159.886C256.597 158.988 255.87 158.26 254.973 158.26Z" fill="#DDE3E9"/>
<path d="M224.479 163.68H165.469C164.572 163.68 163.845 164.408 163.845 165.306C163.845 166.204 164.572 166.931 165.469 166.931H224.479C225.376 166.931 226.103 166.204 226.103 165.306C226.103 164.408 225.376 163.68 224.479 163.68Z" fill="#DDE3E9"/>
<path d="M270.457 166.487C272.604 166.487 274.345 164.745 274.345 162.596C274.345 160.447 272.604 158.704 270.457 158.704C268.31 158.704 266.569 160.447 266.569 162.596C266.569 164.745 268.31 166.487 270.457 166.487Z" fill="#DDE3E9"/>
<path d="M270.457 164.263C271.377 164.263 272.123 163.517 272.123 162.596C272.123 161.675 271.377 160.928 270.457 160.928C269.537 160.928 268.791 161.675 268.791 162.596C268.791 163.517 269.537 164.263 270.457 164.263Z" fill="#AFB9C5"/>
<path d="M281.591 230.135H161.068C159.841 230.135 158.846 231.131 158.846 232.359V249.591C158.846 250.819 159.841 251.815 161.068 251.815H281.591C282.818 251.815 283.812 250.819 283.812 249.591V232.359C283.812 231.131 282.818 230.135 281.591 230.135Z" fill="white"/>
<path d="M254.973 236.639H165.469C164.572 236.639 163.845 237.367 163.845 238.265C163.845 239.163 164.572 239.891 165.469 239.891H254.973C255.87 239.891 256.597 239.163 256.597 238.265C256.597 237.367 255.87 236.639 254.973 236.639Z" fill="#DDE3E9"/>
<path d="M224.479 242.059H165.469C164.572 242.059 163.845 242.787 163.845 243.685C163.845 244.583 164.572 245.311 165.469 245.311H224.479C225.376 245.311 226.103 244.583 226.103 243.685C226.103 242.787 225.376 242.059 224.479 242.059Z" fill="#DDE3E9"/>
<path d="M270.457 244.866C272.604 244.866 274.345 243.124 274.345 240.975C274.345 238.826 272.604 237.084 270.457 237.084C268.31 237.084 266.569 238.826 266.569 240.975C266.569 243.124 268.31 244.866 270.457 244.866Z" fill="#DDE3E9"/>
<path d="M270.457 242.643C271.377 242.643 272.123 241.896 272.123 240.975C272.123 240.054 271.377 239.307 270.457 239.307C269.537 239.307 268.791 240.054 268.791 240.975C268.791 241.896 269.537 242.643 270.457 242.643Z" fill="#F2F2F2"/>
<path d="M281.591 204.009H161.068C159.841 204.009 158.846 205.004 158.846 206.232V223.465C158.846 224.693 159.841 225.688 161.068 225.688H281.591C282.818 225.688 283.812 224.693 283.812 223.465V206.232C283.812 205.004 282.818 204.009 281.591 204.009Z" fill="white"/>
<path d="M254.973 210.513H165.469C164.572 210.513 163.845 211.241 163.845 212.139C163.845 213.037 164.572 213.765 165.469 213.765H254.973C255.87 213.765 256.597 213.037 256.597 212.139C256.597 211.241 255.87 210.513 254.973 210.513Z" fill="#DDE3E9"/>
<path d="M224.479 215.932H165.469C164.572 215.932 163.845 216.66 163.845 217.558C163.845 218.456 164.572 219.184 165.469 219.184H224.479C225.376 219.184 226.103 218.456 226.103 217.558C226.103 216.66 225.376 215.932 224.479 215.932Z" fill="#DDE3E9"/>
<path d="M270.457 218.74C272.604 218.74 274.345 216.998 274.345 214.849C274.345 212.699 272.604 210.957 270.457 210.957C268.31 210.957 266.569 212.699 266.569 214.849C266.569 216.998 268.31 218.74 270.457 218.74Z" fill="#DDE3E9"/>
<path d="M270.457 216.516C271.377 216.516 272.123 215.77 272.123 214.849C272.123 213.928 271.377 213.181 270.457 213.181C269.537 213.181 268.791 213.928 268.791 214.849C268.791 215.77 269.537 216.516 270.457 216.516Z" fill="#F2F2F2"/>
<path d="M281.591 177.882H161.068C159.841 177.882 158.846 178.878 158.846 180.106V197.338C158.846 198.566 159.841 199.562 161.068 199.562H281.591C282.818 199.562 283.812 198.566 283.812 197.338V180.106C283.812 178.878 282.818 177.882 281.591 177.882Z" fill="white"/>
<path d="M254.973 184.386H165.469C164.572 184.386 163.845 185.114 163.845 186.012C163.845 186.91 164.572 187.638 165.469 187.638H254.973C255.87 187.638 256.597 186.91 256.597 186.012C256.597 185.114 255.87 184.386 254.973 184.386Z" fill="#DDE3E9"/>
<path d="M224.479 189.806H165.469C164.572 189.806 163.845 190.534 163.845 191.432C163.845 192.33 164.572 193.058 165.469 193.058H224.479C225.376 193.058 226.103 192.33 226.103 191.432C226.103 190.534 225.376 189.806 224.479 189.806Z" fill="#DDE3E9"/>
<path d="M270.457 192.613C272.604 192.613 274.345 190.871 274.345 188.722C274.345 186.573 272.604 184.831 270.457 184.831C268.31 184.831 266.569 186.573 266.569 188.722C266.569 190.871 268.31 192.613 270.457 192.613Z" fill="#DDE3E9"/>
<path d="M270.457 190.39C271.377 190.39 272.123 189.643 272.123 188.722C272.123 187.801 271.377 187.054 270.457 187.054C269.537 187.054 268.791 187.801 268.791 188.722C268.791 189.643 269.537 190.39 270.457 190.39Z" fill="#F2F2F2"/>
<path fill-rule="evenodd" clip-rule="evenodd" d="M382.111 165.306C379.92 163.819 377.007 163.429 374.385 163.429C364.146 163.429 354.522 167.232 346.207 172.897C341.651 176.001 337.576 179.955 333.977 184.071C331.901 186.447 330.049 189.017 328.738 191.876C327.853 193.805 327.246 195.815 326.834 197.889C326.332 200.416 325.934 202.994 325.754 205.564C325.683 206.575 325.095 211.944 326.776 212.035C326.766 212.167 326.764 212.293 326.774 212.406C323.125 218.117 320.87 224.81 318.78 231.156C316.96 236.677 315.339 242.246 314.287 247.959C312.902 255.479 311.992 263.113 311.559 270.742C311.466 272.382 311.403 274.022 311.348 275.664C311.301 277.064 311.254 278.465 311.208 279.865C311.157 281.434 310.881 283.241 311.13 284.801C311.347 286.16 312.522 285.954 312.574 284.602C312.636 282.969 312.626 281.333 312.698 279.699C312.793 277.531 312.89 275.362 312.996 273.194C313.734 258.134 316.504 243.296 321.614 229.07C323.682 223.314 326.052 217.864 329.097 212.539C331.775 207.856 334.996 203.324 338.288 199.102C341.489 194.999 344.816 190.992 348.737 187.516C351.918 184.695 355.418 182.238 359.016 179.951C363.586 177.048 368.147 174.214 373.097 171.985C375.669 170.826 378.291 169.789 380.884 168.677C381.351 168.477 381.851 168.283 382.3 168.052C383.797 167.279 383.304 166.115 382.111 165.306Z" fill="#C1DEE2"/>
<path fill-rule="evenodd" clip-rule="evenodd" d="M340.918 217.906C345.071 217.906 348.766 218.446 352.593 220.098C355.896 221.523 358.906 223.411 361.828 225.465C365.939 228.355 369.177 231.719 371.444 236.175C372.798 238.837 373.791 242.604 372.882 245.508C371.81 248.928 368.869 251.781 364.995 251.178C362.6 250.806 360.404 249.219 358.583 247.725C356.406 245.938 354.662 243.789 353.223 241.403C350.874 237.51 349.494 233.11 347.499 229.042C346.553 227.112 345.638 225.167 344.504 223.332C343.943 222.424 343.346 221.524 342.494 220.849C342.039 220.488 340.118 219.863 340.852 219.051C330.083 219.193 320.542 227.471 318.475 237.718C318.282 238.673 318.132 239.636 317.973 240.597C317.872 241.204 317.913 243.441 317.371 243.829C316.176 244.684 316.678 242.086 316.729 241.712C316.862 240.746 317.003 239.78 317.152 238.816C317.959 233.571 320.292 228.696 324.182 224.956C328.63 220.68 334.632 217.906 340.918 217.906Z" fill="#89C5CC"/>
<path fill-rule="evenodd" clip-rule="evenodd" d="M41.6209 204.974C51.9883 222.382 64.0631 239.237 71.3145 258.27C71.0223 256.027 70.7124 253.786 70.3656 251.548C68.5257 239.685 66.239 227.908 63.836 216.146C62.6123 210.158 61.318 204.191 59.9906 198.224C59.2766 195.02 58.5714 191.813 57.8428 188.612C57.6663 187.836 57.5147 186.482 57.2937 185.109C64.3409 208.254 71.1367 231.416 76.1076 255.118C76.7597 258.229 77.3151 261.334 77.7699 264.433C77.9256 263.726 78.0786 263.019 78.2461 262.314C80.2575 253.86 83.2745 245.474 86.8668 237.57C88.5842 233.79 90.5568 230.093 92.8794 226.648C94.3277 224.5 97.7433 221.948 99.0645 219.748C91.8388 233.013 89.2297 249.609 85.0576 264.029C84.0393 267.548 83.0146 271.062 82.0106 274.581C88.3023 261.952 98.0641 251.576 111.636 247.08C95.2077 257.944 85.3535 276.971 78.7132 296.43C78.6913 296.66 78.6653 296.891 78.6428 297.122C80.5968 293.411 83.0582 290.054 86.3941 287.702C93.5339 282.669 101.454 284.135 108.38 288.453C102.944 284.995 93.1207 288.144 88.5471 291.659C85.2729 294.175 82.4748 297.55 80.0449 300.843C79.4627 301.633 78.6683 302.554 77.8291 303.536C76.6526 311.18 74.7353 318.772 72.0207 326.303C72.4687 324.141 72.1448 320.684 72.2691 319.073C72.2826 318.898 72.2935 318.724 72.3069 318.55C71.8943 320.199 71.4957 321.829 71.1118 323.433C71.8748 320.372 72.2895 317.177 72.6132 313.949C72.6966 312.562 72.7779 311.175 72.8639 309.787C72.8366 307.155 72.7283 304.512 72.545 301.864C71.8953 299.291 71.1678 296.864 70.5678 294.846C68.4029 287.564 65.2291 280.587 61.3227 274.078C57.7586 268.139 53.4924 262.759 48.5673 257.893C45.9122 255.271 43.1335 252.773 40.394 250.241C39.4033 249.326 37.6327 247.075 36.1013 245.902C47.2541 252.056 58.7334 258.713 66.8694 268.629C65.9156 264.963 64.8796 261.349 63.7836 257.807C58.2237 239.838 51.2035 221.215 41.6209 204.974Z" fill="#DDE3E9"/>
<path fill-rule="evenodd" clip-rule="evenodd" d="M52.7634 303.512C52.7634 323.467 54.3423 339.644 75.535 339.644C96.7278 339.644 98.3067 323.467 98.3067 303.512" fill="#C5CFD6"/>
<path d="M292.143 48.3618C292.143 47.4408 291.397 46.6941 290.477 46.6941C289.557 46.6941 288.811 47.4408 288.811 48.3618V58.9235C288.811 59.8445 289.557 60.5912 290.477 60.5912C291.397 60.5912 292.143 59.8445 292.143 58.9235V48.3618Z" fill="#DDE3E9"/>
<path d="M299.919 39.4677C299.919 38.5466 299.173 37.8 298.253 37.8C297.332 37.8 296.586 38.5466 296.586 39.4677V58.9235C296.586 59.8446 297.332 60.5912 298.253 60.5912C299.173 60.5912 299.919 59.8446 299.919 58.9235V39.4677Z" fill="#DDE3E9"/>
<path d="M307.694 35.0206C307.694 34.0996 306.949 33.3529 306.028 33.3529C305.108 33.3529 304.362 34.0996 304.362 35.0206V58.9235C304.362 59.8445 305.108 60.5912 306.028 60.5912C306.949 60.5912 307.694 59.8445 307.694 58.9235V35.0206Z" fill="#DDE3E9"/>
<path d="M315.47 39.4677C315.47 38.5466 314.724 37.8 313.804 37.8C312.884 37.8 312.138 38.5466 312.138 39.4677V58.9235C312.138 59.8446 312.884 60.5912 313.804 60.5912C314.724 60.5912 315.47 59.8446 315.47 58.9235V39.4677Z" fill="#DDE3E9"/>
<path d="M323.246 30.5735C323.246 29.6525 322.5 28.9059 321.58 28.9059C320.66 28.9059 319.914 29.6525 319.914 30.5735V58.9235C319.914 59.8445 320.66 60.5912 321.58 60.5912C322.5 60.5912 323.246 59.8445 323.246 58.9235V30.5735Z" fill="#C5CFD6"/>
<path fill-rule="evenodd" clip-rule="evenodd" d="M15.5513 199.148C15.5513 192.956 20.5511 187.888 26.6594 187.888V199.148L19.0681 207.344C16.9087 205.34 15.5513 202.401 15.5513 199.148Z" fill="#F2F2F2"/>
<path fill-rule="evenodd" clip-rule="evenodd" d="M26.3655 199.006H37.5831C37.5831 201.908 36.4002 204.628 34.5302 206.604C32.4735 208.765 29.5446 210.124 26.3655 210.124C23.4371 210.124 20.7567 208.951 18.6993 207.098L26.3655 199.006Z" fill="#AFB9C5"/>
<path fill-rule="evenodd" clip-rule="evenodd" d="M37.7676 199.006C37.7676 192.892 32.7678 187.888 26.6595 187.888V199.006H37.7676ZM21.1054 187.888L25.5487 197.894L15.5514 193.447C16.54 190.853 18.7599 188.878 21.1054 187.888Z" fill="#C5CFD6"/>
<path fill-rule="evenodd" clip-rule="evenodd" d="M376.991 204.108C375.923 205.242 374.411 205.954 372.73 205.954C369.499 205.954 366.88 203.341 366.88 200.118C366.88 196.894 369.499 194.281 372.73 194.281V183.441C363.538 183.441 356.015 190.947 356.015 200.118C356.015 209.288 363.538 216.794 372.73 216.794C377.558 216.794 381.922 214.756 384.896 211.514L376.991 204.108Z" fill="#F2F2F2"/>
<path fill-rule="evenodd" clip-rule="evenodd" d="M372.677 183.441V194.281C375.898 194.281 378.509 196.894 378.509 200.118H389.339C389.339 190.947 381.84 183.441 372.677 183.441Z" fill="#AFB9C5"/>
<path fill-rule="evenodd" clip-rule="evenodd" d="M378.285 200.118C378.285 202.012 377.394 203.695 376.01 204.782L382.82 213.459C386.784 210.352 389.339 205.537 389.339 200.118H378.285Z" fill="#C5CFD6"/>
<path fill-rule="evenodd" clip-rule="evenodd" d="M271.066 50.8654C270.245 51.7348 269.082 52.2807 267.789 52.2807C265.303 52.2807 263.289 50.2773 263.289 47.8059C263.289 45.3345 265.303 43.331 267.789 43.331V35.0206C260.718 35.0206 254.931 40.7752 254.931 47.8059C254.931 54.8365 260.718 60.5912 267.789 60.5912C271.503 60.5912 274.859 59.0288 277.147 56.5434L271.066 50.8654Z" fill="#F2F2F2"/>
<path fill-rule="evenodd" clip-rule="evenodd" d="M267.705 35.0206V43.331C270.175 43.331 272.176 45.3345 272.176 47.8059H280.48C280.48 40.7752 274.73 35.0206 267.705 35.0206Z" fill="#AFB9C5"/>
<path fill-rule="evenodd" clip-rule="evenodd" d="M272.189 47.8059C272.189 49.2263 271.521 50.4889 270.483 51.3041L275.59 57.8118C278.563 55.482 280.48 51.8705 280.48 47.8059H272.189Z" fill="#C5CFD6"/>
<path fill-rule="evenodd" clip-rule="evenodd" d="M68.8744 60.5837C68.8721 60.5894 68.8698 60.5952 68.8663 60.6021C68.8698 60.5963 68.8744 60.5733 68.8744 60.5837Z" fill="#C5CFD6"/>
<path fill-rule="evenodd" clip-rule="evenodd" d="M68.8692 60.5932C68.8692 60.5945 68.8679 60.5971 68.8679 60.5997C68.8679 60.5932 68.8796 60.5738 68.8692 60.5932Z" fill="#C5CFD6"/>
<path fill-rule="evenodd" clip-rule="evenodd" d="M68.9078 60.498C68.9 60.5203 68.89 60.5415 68.8811 60.5638C68.8855 60.5526 68.89 60.5437 68.8944 60.5325C68.7786 60.8226 68.8521 60.634 68.9078 60.498Z" fill="#C5CFD6"/>
<path fill-rule="evenodd" clip-rule="evenodd" d="M68.882 60.5649C68.8777 60.5747 68.8733 60.5855 68.869 60.5952C68.8376 60.6559 68.882 60.5649 68.882 60.5649Z" fill="#C5CFD6"/>
<path fill-rule="evenodd" clip-rule="evenodd" d="M68.8698 60.5917C68.8698 60.5909 68.8698 60.5909 68.8706 60.5901C68.8698 60.5909 68.8698 60.5909 68.8698 60.5917Z" fill="#C5CFD6"/>
<path fill-rule="evenodd" clip-rule="evenodd" d="M68.8644 60.6001C68.8578 60.6133 68.8952 60.5494 68.8644 60.6001V60.6001Z" fill="#C5CFD6"/>
<path fill-rule="evenodd" clip-rule="evenodd" d="M68.8691 60.5917L68.8708 60.5901C68.87 60.5909 68.87 60.5917 68.8691 60.5917Z" fill="#C5CFD6"/>
<path d="M92.7527 31.6853H44.4324C43.2055 31.6853 42.2108 32.6808 42.2108 33.9088V64.4824C42.2108 65.7104 43.2055 66.7059 44.4324 66.7059H92.7527C93.9797 66.7059 94.9743 65.7104 94.9743 64.4824V33.9088C94.9743 32.6808 93.9797 31.6853 92.7527 31.6853Z" fill="#DDE3E9"/>
<path fill-rule="evenodd" clip-rule="evenodd" d="M62.2054 41.6912L46.6541 66.7059H77.7568L62.2054 41.6912Z" fill="#AFB9C5"/>
<path fill-rule="evenodd" clip-rule="evenodd" d="M77.479 48.3618L63.8716 66.7059H91.0864L77.479 48.3618Z" fill="#C5CFD6"/>
<path d="M83.3108 48.3618C86.0715 48.3618 88.3094 46.1219 88.3094 43.3588C88.3094 40.5958 86.0715 38.3559 83.3108 38.3559C80.5501 38.3559 78.3121 40.5958 78.3121 43.3588C78.3121 46.1219 80.5501 48.3618 83.3108 48.3618Z" fill="white"/>
<path fill-rule="evenodd" clip-rule="evenodd" d="M333.794 297.945C333.797 297.951 333.799 297.957 333.802 297.964C333.799 297.958 333.794 297.935 333.794 297.945Z" fill="#C5CFD6"/>
<path fill-rule="evenodd" clip-rule="evenodd" d="M333.8 297.955C333.8 297.956 333.801 297.959 333.801 297.961C333.801 297.955 333.789 297.936 333.8 297.955Z" fill="#C5CFD6"/>
<path fill-rule="evenodd" clip-rule="evenodd" d="M333.761 297.86C333.769 297.882 333.779 297.903 333.788 297.926C333.783 297.914 333.779 297.905 333.774 297.894C333.89 298.184 333.817 297.996 333.761 297.86Z" fill="#C5CFD6"/>
<path fill-rule="evenodd" clip-rule="evenodd" d="M333.787 297.927C333.791 297.936 333.795 297.947 333.8 297.957C333.831 298.018 333.787 297.927 333.787 297.927Z" fill="#C5CFD6"/>
<path fill-rule="evenodd" clip-rule="evenodd" d="M333.799 297.953C333.799 297.953 333.799 297.953 333.798 297.952C333.799 297.953 333.799 297.953 333.799 297.953Z" fill="#C5CFD6"/>
<path fill-rule="evenodd" clip-rule="evenodd" d="M333.804 297.962C333.811 297.975 333.774 297.911 333.804 297.962V297.962Z" fill="#C5CFD6"/>
<path fill-rule="evenodd" clip-rule="evenodd" d="M333.8 297.953L333.798 297.952C333.799 297.953 333.799 297.953 333.8 297.953Z" fill="#C5CFD6"/>
<path d="M296.586 255.15H371.011C372.238 255.15 373.232 256.146 373.232 257.374V305.179C373.232 306.407 372.238 307.403 371.011 307.403H296.586C295.36 307.403 294.365 306.407 294.365 305.179V257.374C294.365 256.146 295.36 255.15 296.586 255.15Z" fill="#DDE3E9"/>
<path fill-rule="evenodd" clip-rule="evenodd" d="M343.948 270.159L366.75 307.403H321.146L343.948 270.159Z" fill="#AFB9C5"/>
<path fill-rule="evenodd" clip-rule="evenodd" d="M320.438 280.135L340.596 307.403H300.28L320.438 280.135Z" fill="#C5CFD6"/>
<path d="M311.86 280.165C307.719 280.165 304.362 276.805 304.362 272.66C304.362 268.516 307.719 265.156 311.86 265.156C316.001 265.156 319.358 268.516 319.358 272.66C319.358 276.805 316.001 280.165 311.86 280.165Z" fill="white"/>
<path fill-rule="evenodd" clip-rule="evenodd" d="M268.829 133.161C270.391 129.875 271.054 126.184 269.811 122.579C266.227 112.193 252.111 118.465 250.677 124.574C249.244 130.684 253.221 144.145 257.183 144.108C258.764 144.093 261.662 142.318 264.348 139.531L266.154 154.292L278.03 151.115L268.829 133.161Z" fill="#D4A181"/>
<path fill-rule="evenodd" clip-rule="evenodd" d="M264.523 133.516C266.754 135.948 269.363 137.531 271.398 136.986C275.264 135.952 276.627 130.051 275.136 124.497C275.084 124.301 275.028 124.109 274.969 123.918C279.811 125.629 284.446 130.314 289.857 128.866C297.219 126.896 296.161 111.274 285.875 114.026C278.88 115.897 275.713 117.837 273.152 120.138C272.125 118.647 270.862 117.5 269.512 116.824C269.17 116.599 268.692 116.424 268.103 116.302C267.739 116.213 267.373 116.16 267.007 116.143C265.043 115.965 262.328 116.195 259.408 116.868C258.862 116.994 258.33 117.13 257.815 117.276C257.075 114.553 254.27 112.939 251.542 113.669C248.808 114.401 247.187 117.208 247.92 119.94C248.629 122.582 251.28 124.186 253.926 123.627C255.542 123.688 257.55 123.513 259.715 123.086C259.717 123.918 259.841 124.829 260.109 125.825C260.345 126.705 260.692 127.612 261.125 128.511C261.439 127.84 261.96 127.317 262.586 127.15C264.337 126.681 265.942 127.795 266.352 129.323C266.873 131.263 266.129 132.966 264.523 133.516Z" fill="#191847"/>
<path fill-rule="evenodd" clip-rule="evenodd" d="M293.183 196.37L274.411 260.998L265.581 309.521H256.719L265.566 196.37H293.183Z" fill="#BA8B72"/>
<path fill-rule="evenodd" clip-rule="evenodd" d="M301.62 196.37C300.31 229.944 300.827 248.256 301.12 251.306C301.413 254.356 303.077 274.785 314.418 310.545H305.201C290.181 276.24 284.938 255.811 283.216 251.306C281.493 246.801 276.405 228.489 268.977 196.37H301.62Z" fill="#D4A181"/>
<path fill-rule="evenodd" clip-rule="evenodd" d="M293.586 196.37C288.703 218.609 280.258 254.107 268.25 302.865H255.288C254.33 252.82 258.403 219.881 265.456 196.37H293.586Z" fill="#69A1AC"/>
<path fill-rule="evenodd" clip-rule="evenodd" d="M301.685 196.37C300.402 229.944 303.727 263.02 314.025 303.388H300.196C285.148 269.595 274.364 236.681 266.993 196.37H301.685Z" fill="#89C5CC"/>
<path fill-rule="evenodd" clip-rule="evenodd" d="M315.732 317.201L315.224 309.009C312.246 309.879 308.516 309.538 304.035 307.985C299.216 311.395 293.149 313.724 285.836 314.971L285.836 314.971C285.278 315.066 284.903 315.595 284.998 316.152C285.004 316.188 285.012 316.224 285.022 316.259L285.725 318.737H304.035H314.715L315.732 317.201Z" fill="#191847"/>
<path fill-rule="evenodd" clip-rule="evenodd" d="M267.559 317.201L267.051 309.009C264.073 309.879 260.343 309.538 255.862 307.985C251.043 311.395 244.977 313.724 237.663 314.971L237.663 314.971C237.105 315.066 236.73 315.595 236.825 316.152C236.831 316.188 236.839 316.224 236.849 316.259L237.553 318.737H255.862H266.542L267.559 317.201Z" fill="#191847"/>
<path fill-rule="evenodd" clip-rule="evenodd" d="M256.513 167.591L237.304 161.088C233.78 158.144 230.436 155.964 227.272 154.55C226.344 154.341 224.795 154.389 226.65 156.646C228.505 158.903 230.355 161.361 229.772 162.26C229.189 163.158 227.203 162.396 226.571 163.83C226.15 164.786 229.455 165.597 236.485 166.263L251.27 175.668L256.513 167.591ZM230.508 180.51L222.068 177.64C220.263 173.725 218.608 171.887 217.102 172.126C215.854 171.792 218.779 176.626 216.513 176.561C214.247 176.496 208.21 173.469 207.432 174.436C206.282 175.867 208.142 179.312 209.892 180.881C213.164 183.812 215.581 184.585 221.316 185.146C224.315 185.439 227.687 186.492 231.432 188.303L230.508 180.51Z" fill="#D4A181"/>
<path fill-rule="evenodd" clip-rule="evenodd" d="M264.668 163.95C258.521 164.966 250.111 165.111 240.404 161.11L238.325 169.355C245.401 174.267 254.734 177.683 262.1 176.172C267.905 174.981 269.642 167.403 264.668 163.95Z" fill="#2026A2"/>
<path fill-rule="evenodd" clip-rule="evenodd" d="M258.569 177.655C252.342 180.424 241.082 180.433 224.788 177.68C222.374 186.212 221.606 192.126 222.484 195.424C236.848 199.974 248.661 201.05 257.984 199.617C258.661 205.176 260.257 210.297 263.356 214.688C269.726 223.716 295.24 209.825 304.677 210.014C307.114 190.473 294.742 184.885 292.638 173.027C290.335 160.041 276.369 141.887 274.834 142.157L260.832 144.622C261.811 154.677 259.853 166.293 258.569 177.655Z" fill="#1F28CF"/>
<path fill-rule="evenodd" clip-rule="evenodd" d="M158.078 209.455C156.001 207.01 154.595 204.013 154.829 200.656C155.506 190.981 168.938 193.11 171.551 197.992C174.163 202.875 173.853 215.261 170.476 216.133C169.13 216.481 166.261 215.629 163.341 213.864L165.174 226.864H154.353L158.078 209.455Z" fill="#B28B67"/>
<path fill-rule="evenodd" clip-rule="evenodd" d="M176.345 191.224C176.12 190.434 175.518 189.758 174.705 189.557C174.509 189.508 174.305 189.489 174.102 189.497C174.03 189.5 174.009 189.521 173.975 189.47C173.95 189.432 173.95 189.34 173.939 189.295C173.907 189.157 173.867 189.021 173.817 188.888C173.647 188.435 173.361 188.034 173.017 187.696C172.373 187.064 171.503 186.628 170.599 186.549C170.104 186.506 169.613 186.586 169.145 186.748C168.903 186.831 168.668 186.935 168.439 187.05C168.37 187.085 168.147 187.255 168.078 187.244C168.002 187.231 167.848 187.041 167.786 186.993C167.019 186.403 166.072 186.171 165.116 186.178C164.038 186.186 162.999 186.24 162.1 186.9C161.909 187.039 161.728 187.192 161.555 187.353C161.464 187.438 161.376 187.525 161.292 187.617C161.242 187.672 161.192 187.729 161.145 187.787C161.064 187.885 161.077 187.917 160.964 187.849C160.531 187.585 160.03 187.462 159.525 187.524C159.225 187.561 158.933 187.651 158.655 187.77C158.561 187.811 158.343 187.972 158.242 187.974C158.142 187.975 157.927 187.826 157.824 187.788C157.269 187.582 156.671 187.531 156.087 187.626C155.485 187.724 154.894 187.965 154.384 188.298C154.139 188.458 153.925 188.635 153.753 188.873C153.679 188.976 153.612 189.085 153.528 189.18C153.478 189.236 153.381 189.293 153.354 189.363C153.37 189.321 152.696 189.061 152.633 189.044C152.294 188.955 151.949 188.973 151.617 189.083C150.993 189.289 150.456 189.75 150.015 190.224C149.789 190.467 149.591 190.736 149.422 191.022C149.342 191.159 149.268 191.3 149.2 191.444C149.168 191.514 149.146 191.601 149.103 191.664C149.047 191.745 149.01 191.747 148.91 191.782C148.399 191.961 147.933 192.265 147.579 192.675C147.22 193.09 146.988 193.602 146.89 194.14C146.884 194.172 146.881 194.303 146.862 194.32C146.837 194.344 146.734 194.333 146.696 194.338C146.561 194.354 146.427 194.377 146.296 194.409C146.053 194.466 145.816 194.551 145.593 194.662C144.721 195.095 144.097 195.906 143.792 196.818C143.472 197.776 143.477 198.873 143.86 199.813C143.922 199.964 143.995 200.112 144.082 200.251C144.135 200.337 144.152 200.337 144.117 200.427C144.079 200.527 144.009 200.624 143.963 200.721C143.815 201.04 143.711 201.377 143.645 201.722C143.537 202.288 143.484 202.883 143.59 203.453C143.639 203.718 143.725 203.977 143.857 204.213C143.924 204.333 144.002 204.447 144.09 204.552C144.136 204.607 144.185 204.659 144.236 204.71C144.265 204.738 144.303 204.763 144.328 204.795C144.389 204.873 144.401 204.809 144.37 204.924C144.326 205.084 144.227 205.241 144.167 205.397C144.104 205.558 144.048 205.72 143.996 205.885C143.892 206.217 143.804 206.556 143.748 206.901C143.642 207.562 143.661 208.267 143.973 208.874C144.106 209.134 144.298 209.361 144.53 209.539C144.644 209.625 144.767 209.7 144.896 209.761C144.962 209.793 145.047 209.807 145.077 209.871C145.11 209.94 145.061 210.077 145.05 210.155C144.954 210.828 144.906 211.534 145.106 212.193C145.289 212.8 145.694 213.337 146.219 213.692C147.238 214.38 148.611 214.341 149.682 213.79C149.961 213.646 150.222 213.468 150.455 213.258C151.048 214.058 152.268 214.033 153.134 213.805C154.214 213.52 155.081 212.768 155.58 211.779C156.262 212.612 157.695 212.341 158.168 211.438C158.284 211.216 158.353 210.973 158.387 210.726C158.404 210.596 158.393 210.465 158.406 210.337C158.424 210.173 158.533 210.013 158.596 209.855C158.718 209.546 158.794 209.227 158.797 208.894C158.799 208.72 158.777 208.55 158.76 208.378C158.746 208.223 158.788 208.078 158.813 207.925C158.536 207.971 158.199 207.896 157.938 207.815C157.682 207.736 157.442 207.528 157.261 207.338C156.842 206.897 156.585 206.318 156.41 205.743C156.025 204.479 156.183 202.963 157.45 202.269C158.041 201.946 159.81 201.947 160.513 202.107C161.253 202.275 162.091 203.911 162.133 204.065C162.158 204.16 162.145 204.278 162.233 204.341C162.424 204.481 162.74 204.239 162.882 204.119C163.126 203.913 163.3 203.639 163.45 203.361C163.779 202.755 164.043 202.106 164.23 201.443C164.374 200.932 164.467 200.404 164.655 199.906C164.842 199.411 165.138 198.968 165.598 198.687C166.097 198.381 166.671 198.221 167.219 198.029C167.763 197.838 168.298 197.606 168.72 197.202C168.812 197.113 168.902 197.019 168.977 196.915C169.036 196.832 169.094 196.674 169.184 196.622C169.323 196.54 169.527 196.752 169.648 196.829C170.243 197.208 170.74 197.737 171.14 198.314C171.539 198.889 171.866 199.442 172.131 200.083C172.328 200.559 172.451 201.168 172.798 201.558C172.952 201.732 174.102 201.837 174.475 201.685C174.847 201.533 175.265 201.139 175.39 200.891C175.518 200.638 175.548 200.36 175.494 200.083C175.462 199.92 175.396 199.768 175.36 199.608C175.33 199.473 175.302 199.346 175.237 199.223C175.113 198.989 174.902 198.821 174.647 198.751C174.912 198.506 175.132 198.212 175.284 197.884C175.442 197.543 175.576 197.129 175.614 196.755C175.645 196.451 175.597 196.136 175.432 195.875C175.258 195.601 174.949 195.423 174.683 195.252C175.09 194.932 175.439 194.543 175.725 194.113C176.283 193.276 176.628 192.221 176.345 191.224Z" fill="#191847"/>
<path fill-rule="evenodd" clip-rule="evenodd" d="M124.145 283.371H175.995C179.979 283.371 183.209 286.61 183.209 290.604V332.194C183.209 336.189 179.979 339.427 175.995 339.427H124.145C120.161 339.427 116.931 336.189 116.931 332.194V290.604C116.931 286.61 120.161 283.371 124.145 283.371ZM131.359 296.029C130.363 296.029 129.555 296.839 129.555 297.837V324.961C129.555 325.96 130.363 326.769 131.359 326.769H168.781C169.777 326.769 170.584 325.96 170.584 324.961V297.837C170.584 296.839 169.777 296.029 168.781 296.029H131.359Z" fill="#C5CFD6"/>
<path fill-rule="evenodd" clip-rule="evenodd" d="M215.45 337.917C209.673 325.097 205.495 313.935 203.818 308.045C200.947 297.961 198.763 289.087 198.211 285.773C196.894 277.871 208.338 277.411 209.851 281.338C212.14 287.282 216.137 306.812 220.939 336.311L215.45 337.917ZM148.441 297.685C153.742 295.585 172.303 289.011 181.255 287.151C183.828 286.617 186.321 286.12 188.665 285.672C195.633 284.338 199.243 296.941 192.532 297.91C175.82 300.321 152.127 302.812 150.099 303.091C147.258 303.483 145.11 299.005 148.441 297.685Z" fill="#B28B67"/>
<path fill-rule="evenodd" clip-rule="evenodd" d="M192.942 282.203L164.272 267.57V264.385H167.682C195.418 271.471 209.591 276.013 210.202 278.009C210.208 278.031 210.214 278.052 210.22 278.074C210.234 278.092 210.247 278.11 210.261 278.129C215.758 285.709 219.049 322.713 220.13 325.484L209.597 327.059C205.568 312.079 192.677 301.643 193.019 283.701C192.927 283.175 192.903 282.676 192.942 282.203Z" fill="#1F28CF"/>
<path fill-rule="evenodd" clip-rule="evenodd" d="M166.654 290.894C164.031 290.367 161.615 289.898 159.548 289.534C146.196 287.186 142.303 280.02 144.605 264.385L169.205 264.385C173.224 265.542 194.108 274.323 204.944 278.994C212.115 282.085 209.854 293.228 205.793 296.128C205.771 296.306 205.698 296.427 205.568 296.481C183.721 305.56 166.439 300.796 160.665 302.318L157.995 293.872L166.654 290.894Z" fill="#2B44FF"/>
<path fill-rule="evenodd" clip-rule="evenodd" d="M150.259 296.344C148.827 296.482 147.81 296.699 147.208 296.993C146.477 297.351 145.469 297.995 144.184 298.926C144.597 299.775 148.311 307.412 155.324 321.837C157.579 321.471 158.473 320.608 158.006 319.248C157.539 317.889 157.163 316.754 156.876 315.844L156.439 302.876C156.431 302.626 156.222 302.431 155.973 302.44C155.969 302.44 155.964 302.44 155.96 302.44L153.969 302.567C152.839 301.65 152.093 300.821 151.732 300.078C151.438 299.475 151.277 298.523 151.246 297.222L151.246 297.222C151.235 296.723 150.822 296.328 150.323 296.34C150.302 296.341 150.28 296.342 150.259 296.344Z" fill="#E4E4E4"/>
<path fill-rule="evenodd" clip-rule="evenodd" d="M212.821 335.54C212.316 336.89 212.064 337.9 212.064 338.571C212.064 339.386 212.2 340.575 212.471 342.139C213.414 342.139 221.89 342.139 237.9 342.139C238.561 339.949 238.18 338.766 236.756 338.592C235.332 338.417 234.149 338.259 233.208 338.119L221.388 332.835C221.161 332.734 220.894 332.836 220.793 333.064C220.791 333.068 220.789 333.072 220.788 333.076L220.028 334.924C218.71 335.54 217.639 335.849 216.815 335.849C216.145 335.849 215.221 335.578 214.041 335.035L214.041 335.035C213.588 334.827 213.053 335.027 212.846 335.481C212.837 335.5 212.828 335.52 212.821 335.54Z" fill="#E4E4E4"/>
<path fill-rule="evenodd" clip-rule="evenodd" d="M190.443 257.207L203.215 269.7C206.931 271.289 209.976 273.044 212.35 274.965C212.883 275.611 213.464 276.847 210.953 276.294C208.442 275.74 205.775 275.271 205.303 276.09C204.831 276.909 206.222 278.164 205.35 279.236C204.768 279.95 202.812 277.678 199.482 272.418L186.201 264.567L190.443 257.207ZM133.752 258.969L143.174 259.006C137.356 277.836 134.216 287.827 133.752 288.98C132.709 291.572 134.916 295.52 135.86 297.642C132.786 299.021 133.113 293.912 129.234 295.722C125.694 297.373 123 300.366 118.91 297.835C118.407 297.524 117.856 296.352 119.187 295.437C122.505 293.156 127.285 289.164 127.931 287.851C128.812 286.059 130.752 276.432 133.752 258.969Z" fill="#B28B67"/>
<path fill-rule="evenodd" clip-rule="evenodd" d="M160.528 219.329L164.426 218.658C171.139 235.471 182.858 250.747 199.583 264.487L186.945 279.882C170.221 260.318 159.912 240.134 160.528 219.329Z" fill="#191847"/>
<path fill-rule="evenodd" clip-rule="evenodd" d="M143.532 268.453H178.249C170.206 248.845 166.184 232.189 166.184 218.483L155.712 216.918C147.482 230.19 145.158 246.531 143.532 268.453Z" fill="#DDE3E9"/>
<path fill-rule="evenodd" clip-rule="evenodd" d="M155.49 216.926C155.492 216.923 155.493 216.921 155.495 216.918H156.178C156.996 216.947 158.242 216.998 159.916 217.071L162.446 224.322C162.714 233.162 164.277 250.978 167.136 277.769H144.378C144.438 279.619 144.536 281.487 144.673 283.371H127.752C130.283 254.74 139.526 232.589 155.482 216.918L155.49 216.926V216.926Z" fill="#2F3676"/>
<path fill-rule="evenodd" clip-rule="evenodd" d="M145.881 254.093C146.529 265.627 148.151 273.578 150.746 277.947H144.384C144.105 269.648 144.605 261.697 145.881 254.093V254.093Z" fill="black" fill-opacity="0.1"/>
<path fill-rule="evenodd" clip-rule="evenodd" d="M149.443 263.933L160.665 258.702V263.933H149.443Z" fill="white" fill-opacity="0.2"/>
</svg>
